<svg width="640" height="232" viewBox="0 0 640 232" fill="none" xmlns="http://www.w3.org/2000/svg">
<g clip-path="url(#clip0_3_727)">
<rect width="640" height="232" fill="#F5F8FF"/>
<path opacity="0.5" d="M282.311 88.8105H673.788" stroke="#EEF0F7" stroke-width="1.07516" stroke-linejoin="round"/>
<path opacity="0.5" d="M-33.7878 88.8105H357.69" stroke="#EEF0F7" stroke-width="1.07516" stroke-linejoin="round"/>
<foreignObject x="244.738" y="13.549" width="150.523" height="150.523"><div xmlns="http://www.w3.org/1999/xhtml" style="backdrop-filter:blur(3.23px);clip-path:url(#bgblur_2_3_727_clip_path);height:100%;width:100%"></div></foreignObject><g filter="url(#filter0_d_3_727)" data-figma-bg-blur-radius="6.45099">
<g clip-path="url(#clip1_3_727)">
<path d="M320 36.6651V29.1389M333.495 38.4423L335.444 31.1721M346.073 43.6515L349.836 37.1328M356.872 51.9378L362.194 46.6157M365.159 62.7378L371.677 58.9747M370.369 75.314L377.639 73.3658M372.146 88.8106H379.672M370.369 102.306L377.639 104.254M365.159 114.883L371.677 118.646M356.873 125.682L362.195 131.004M346.073 133.97L349.836 140.487M333.497 139.179L335.445 146.449M320 140.956V148.482M304.556 146.449L306.503 139.179M290.164 140.487L293.927 133.97M277.805 131.004L283.127 125.682M268.323 118.646L274.841 114.883M262.363 104.255L269.632 102.307M260.328 88.8106H267.855M262.363 73.3658L269.632 75.314M268.323 58.9747L274.841 62.7378M277.806 46.6157L283.128 51.9378M290.164 37.1328L293.927 43.6515M304.556 31.1721L306.503 38.4423" stroke="black" stroke-opacity="0.1" stroke-width="1.07516" stroke-linecap="round" stroke-linejoin="round"/>
<path d="M320 36.6651V29.1389" stroke="#90A6EE" stroke-width="1.07516" stroke-linecap="round" stroke-linejoin="round"/>
<path d="M333.496 38.4418L335.444 31.1721" stroke="#90A6EE" stroke-width="1.07516" stroke-linecap="round" stroke-linejoin="round"/>
<path d="M346.073 43.6512L349.836 37.1333" stroke="#90A6EE" stroke-width="1.07516" stroke-linecap="round" stroke-linejoin="round"/>
<path d="M356.872 51.9382L362.194 46.6163" stroke="#90A6EE" stroke-width="1.07516" stroke-linecap="round" stroke-linejoin="round"/>
<path d="M365.159 62.7378L371.677 58.9747" stroke="#90A6EE" stroke-width="1.07516" stroke-linecap="round" stroke-linejoin="round"/>
<path d="M370.369 75.3143L377.639 73.3665" stroke="#90A6EE" stroke-width="1.07516" stroke-linecap="round" stroke-linejoin="round"/>
<path d="M372.146 88.8101H379.672" stroke="#90A6EE" stroke-width="1.07516" stroke-linecap="round" stroke-linejoin="round"/>
<path d="M370.369 102.306L377.639 104.254" stroke="#90A6EE" stroke-width="1.07516" stroke-linecap="round" stroke-linejoin="round"/>
<path d="M365.159 114.883L371.677 118.646" stroke="#90A6EE" stroke-width="1.07516" stroke-linecap="round" stroke-linejoin="round"/>
<path d="M356.873 125.682L362.195 131.004" stroke="#90A6EE" stroke-width="1.07516" stroke-linecap="round" stroke-linejoin="round"/>
<path d="M346.073 133.969L349.836 140.487" stroke="#90A6EE" stroke-width="1.07516" stroke-linecap="round" stroke-linejoin="round"/>
<path d="M333.497 139.179L335.445 146.449" stroke="#90A6EE" stroke-width="1.07516" stroke-linecap="round" stroke-linejoin="round"/>
<path d="M320 140.956V148.482" stroke="#90A6EE" stroke-width="1.07516" stroke-linecap="round" stroke-linejoin="round"/>
<path d="M304.556 146.449L306.504 139.179" stroke="#90A6EE" stroke-width="1.07516" stroke-linecap="round" stroke-linejoin="round"/>
<path d="M290.164 140.487L293.927 133.969" stroke="#90A6EE" stroke-width="1.07516" stroke-linecap="round" stroke-linejoin="round"/>
<path d="M277.805 131.004L283.127 125.683" stroke="#90A6EE" stroke-width="1.07516" stroke-linecap="round" stroke-linejoin="round"/>
<path d="M268.323 118.646L274.841 114.883" stroke="#90A6EE" stroke-width="1.07516" stroke-linecap="round" stroke-linejoin="round"/>
<path opacity="0.986713" d="M262.362 104.255L269.632 102.307" stroke="#90A6EE" stroke-width="1.07516" stroke-linecap="round" stroke-linejoin="round"/>
<path opacity="0.944274" d="M260.328 88.8101H267.855" stroke="#90A6EE" stroke-width="1.07516" stroke-linecap="round" stroke-linejoin="round"/>
<path opacity="0.879627" d="M262.362 73.3657L269.632 75.3137" stroke="#90A6EE" stroke-width="1.07516" stroke-linecap="round" stroke-linejoin="round"/>
<path opacity="0.79613" d="M268.323 58.9742L274.841 62.7373" stroke="#90A6EE" stroke-width="1.07516" stroke-linecap="round" stroke-linejoin="round"/>
<path opacity="0.697596" d="M277.807 46.6156L283.128 51.9374" stroke="#90A6EE" stroke-width="1.07516" stroke-linecap="round" stroke-linejoin="round"/>
<path opacity="0.584964" d="M290.164 37.1331L293.927 43.6509" stroke="#90A6EE" stroke-width="1.07516" stroke-linecap="round" stroke-linejoin="round"/>
<path opacity="0.460858" d="M304.556 31.1724L306.504 38.442" stroke="#90A6EE" stroke-width="1.07516" stroke-linecap="round" stroke-linejoin="round"/>
<path opacity="0.325025" d="M320 36.6651V29.1389" stroke="#90A6EE" stroke-width="1.07516" stroke-linecap="round" stroke-linejoin="round"/>
<g filter="url(#filter1_ddi_3_727)">
<rect x="276.993" y="45.804" width="86.0132" height="86.0132" rx="43.0066" fill="#8E93AF"/>
</g>
<mask id="mask0_3_727" style="mask-type:alpha" maskUnits="userSpaceOnUse" x="281" y="50" width="78" height="78">
<rect x="281.294" y="50.1046" width="77.4119" height="77.4119" fill="url(#paint0_linear_3_727)"/>
</mask>
<g mask="url(#mask0_3_727)">
</g>
<g filter="url(#filter2_i_3_727)">
<rect x="281.294" y="50.1046" width="77.4119" height="77.4119" rx="38.7059" fill="black" fill-opacity="0.01"/>
<path fill-rule="evenodd" clip-rule="evenodd" d="M312.474 79.1342C312.474 74.9777 315.843 71.6081 320 71.6081C324.156 71.6081 327.526 74.9777 327.526 79.1342V84.5101H312.474V79.1342ZM310.323 84.5101V79.1342C310.323 73.7901 314.656 69.4578 320 69.4578C325.344 69.4578 329.676 73.7901 329.676 79.1342V84.5101H330.751C332.533 84.5101 333.977 85.9541 333.977 87.7356V104.938C333.977 106.72 332.533 108.164 330.751 108.164H309.248C307.467 108.164 306.023 106.72 306.023 104.938V87.7356C306.023 85.9541 307.467 84.5101 309.248 84.5101H310.323Z" fill="#757A97"/>
</g>
</g>
</g>
</g>
<defs>
<filter id="filter0_d_3_727" x="244.738" y="13.549" width="150.523" height="150.523" filterUnits="userSpaceOnUse" color-interpolation-filters="sRGB">
<feFlood flood-opacity="0" result="BackgroundImageFix"/>
<feColorMatrix in="SourceAlpha" type="matrix" values="0 0 0 0 0 0 0 0 0 0 0 0 0 0 0 0 0 0 127 0" result="hardAlpha"/>
<feMorphology radius="1.07516" operator="dilate" in="SourceAlpha" result="effect1_dropShadow_3_727"/>
<feOffset/>
<feComposite in2="hardAlpha" operator="out"/>
<feColorMatrix type="matrix" values="0 0 0 0 1 0 0 0 0 1 0 0 0 0 1 0 0 0 0.05 0"/>
<feBlend mode="normal" in2="BackgroundImageFix" result="effect1_dropShadow_3_727"/>
<feBlend mode="normal" in="SourceGraphic" in2="effect1_dropShadow_3_727" result="shape"/>
</filter>
<clipPath id="bgblur_2_3_727_clip_path" transform="translate(-244.738 -13.549)"><rect x="251.189" y="20" width="137.621" height="137.621" rx="68.8105"/>
</clipPath><filter id="filter1_ddi_3_727" x="221.085" y="11.3987" width="197.83" height="197.83" filterUnits="userSpaceOnUse" color-interpolation-filters="sRGB">
<feFlood flood-opacity="0" result="BackgroundImageFix"/>
<feColorMatrix in="SourceAlpha" type="matrix" values="0 0 0 0 0 0 0 0 0 0 0 0 0 0 0 0 0 0 127 0" result="hardAlpha"/>
<feMorphology radius="8.60132" operator="dilate" in="SourceAlpha" result="effect1_dropShadow_3_727"/>
<feOffset dy="21.5033"/>
<feGaussianBlur stdDeviation="23.6536"/>
<feComposite in2="hardAlpha" operator="out"/>
<feColorMatrix type="matrix" values="0 0 0 0 0 0 0 0 0 0 0 0 0 0 0 0 0 0 0.08 0"/>
<feBlend mode="normal" in2="BackgroundImageFix" result="effect1_dropShadow_3_727"/>
<feColorMatrix in="SourceAlpha" type="matrix" values="0 0 0 0 0 0 0 0 0 0 0 0 0 0 0 0 0 0 127 0" result="hardAlpha"/>
<feOffset dy="4.30066"/>
<feGaussianBlur stdDeviation="8.60132"/>
<feComposite in2="hardAlpha" operator="out"/>
<feColorMatrix type="matrix" values="0 0 0 0 0 0 0 0 0 0 0 0 0 0 0 0 0 0 0.6 0"/>
<feBlend mode="normal" in2="effect1_dropShadow_3_727" result="effect2_dropShadow_3_727"/>
<feBlend mode="normal" in="SourceGraphic" in2="effect2_dropShadow_3_727" result="shape"/>
<feColorMatrix in="SourceAlpha" type="matrix" values="0 0 0 0 0 0 0 0 0 0 0 0 0 0 0 0 0 0 127 0" result="hardAlpha"/>
<feMorphology radius="4.30066" operator="erode" in="SourceAlpha" result="effect3_innerShadow_3_727"/>
<feOffset/>
<feComposite in2="hardAlpha" operator="arithmetic" k2="-1" k3="1"/>
<feColorMatrix type="matrix" values="0 0 0 0 0 0 0 0 0 0 0 0 0 0 0 0 0 0 0.15 0"/>
<feBlend mode="normal" in2="shape" result="effect3_innerShadow_3_727"/>
</filter>
<filter id="filter2_i_3_727" x="281.294" y="50.1046" width="77.4119" height="77.412" filterUnits="userSpaceOnUse" color-interpolation-filters="sRGB">
<feFlood flood-opacity="0" result="BackgroundImageFix"/>
<feBlend mode="normal" in="SourceGraphic" in2="BackgroundImageFix" result="shape"/>
<feColorMatrix in="SourceAlpha" type="matrix" values="0 0 0 0 0 0 0 0 0 0 0 0 0 0 0 0 0 0 127 0" result="hardAlpha"/>
<feMorphology radius="1.07516" operator="erode" in="SourceAlpha" result="effect1_innerShadow_3_727"/>
<feOffset/>
<feComposite in2="hardAlpha" operator="arithmetic" k2="-1" k3="1"/>
<feColorMatrix type="matrix" values="0 0 0 0 1 0 0 0 0 1 0 0 0 0 1 0 0 0 0.05 0"/>
<feBlend mode="normal" in2="shape" result="effect1_innerShadow_3_727"/>
</filter>
<linearGradient id="paint0_linear_3_727" x1="320" y1="50.1046" x2="320" y2="127.516" gradientUnits="userSpaceOnUse">
<stop stop-color="white"/>
<stop offset="1" stop-opacity="0"/>
</linearGradient>
<clipPath id="clip0_3_727">
<rect width="640" height="232" fill="white"/>
</clipPath>
<clipPath id="clip1_3_727">
<rect x="251.189" y="20" width="137.621" height="137.621" rx="68.8105" fill="white"/>
</clipPath>
</defs>
</svg>
