<svg preserveAspectRatio="none" width="100%" height="100%" overflow="visible" style="display: block;" viewBox="0 0 2503.11 1146.67" fill="none" xmlns="http://www.w3.org/2000/svg">
<g id="64c1062f4f9a86123111d69f_Grid%20Crosshair.svg" clip-path="url(#clip0_0_4)">
<path id="Vector" d="M-241.777 -277.333H-312.888V-206.222M-241.777 -277.333V-206.222M-241.777 -277.333H-170.666M-312.888 -206.222H-241.777M-312.888 -206.222V-135.111M-241.777 -206.222V-135.111M-241.777 -206.222H-170.666M-170.666 -277.333V-206.222M-170.666 -277.333H-99.5554M-241.777 -135.111H-312.888M-241.777 -135.111V-64M-241.777 -135.111H-170.666M-170.666 -206.222V-135.111M-170.666 -206.222H-99.5554M-312.888 -135.111V-64M-241.777 -64H-312.888M-241.777 -64V7.11105M-241.777 -64H-170.666M-170.666 -135.111V-64M-170.666 -135.111H-99.5554M-312.888 -64V7.11105M-241.777 7.11105H-312.888M-241.777 7.11105V78.2221M-241.777 7.11105H-170.666M-170.666 -64V7.11105M-170.666 -64H-99.5554M-312.888 7.11105V78.2221M-241.777 78.2221H-312.888M-241.777 78.2221V149.333M-241.777 78.2221H-170.666M-170.666 7.11105V78.2221M-170.666 7.11105H-99.5554M-312.888 78.2221V149.333M-241.777 149.333H-312.888M-241.777 149.333V220.444M-241.777 149.333H-170.666M-170.666 78.2221V149.333M-170.666 78.2221H-99.5554M-312.888 149.333V220.444M-241.777 220.444H-312.888M-241.777 220.444V291.555M-241.777 220.444H-170.666M-170.666 149.333V220.444M-170.666 149.333H-99.5554M-312.888 220.444V291.555M-241.777 291.555H-312.888M-241.777 291.555V362.666M-241.777 291.555H-170.666M-170.666 220.444V291.555M-170.666 220.444H-99.5554M-312.888 291.555V362.666M-241.777 362.666H-312.888M-241.777 362.666V433.777M-241.777 362.666H-170.666M-170.666 291.555V362.666M-170.666 291.555H-99.5554M-312.888 362.666V433.777M-241.777 433.777H-312.888M-241.777 433.777V504.888M-241.777 433.777H-170.666M-170.666 362.666V433.777M-170.666 362.666H-99.5554M-312.888 433.777V504.888M-241.777 504.888H-312.888M-241.777 504.888V575.999M-241.777 504.888H-170.666M-170.666 433.777V504.888M-170.666 433.777H-99.5554M-312.888 504.888V575.999M-241.777 575.999H-312.888M-241.777 575.999V647.11M-241.777 575.999H-170.666M-170.666 504.888V575.999M-170.666 504.888H-99.5554M-312.888 575.999V647.11M-241.777 647.11H-312.888M-241.777 647.11V718.221M-241.777 647.11H-170.666M-170.666 575.999V647.11M-170.666 575.999H-99.5554M-312.888 647.11V718.221M-241.777 718.221H-312.888M-241.777 718.221V789.332M-241.777 718.221H-170.666M-170.666 647.11V718.221M-170.666 647.11H-99.5554M-312.888 718.221V789.332M-241.777 789.332H-312.888M-241.777 789.332V860.443M-241.777 789.332H-170.666M-170.666 718.221V789.332M-170.666 718.221H-99.5554M-312.888 789.332V860.443M-241.777 860.443H-312.888M-241.777 860.443V931.554M-241.777 860.443H-170.666M-170.666 789.332V860.443M-170.666 789.332H-99.5554M-312.888 860.443V931.554M-241.777 931.554H-312.888M-241.777 931.554V1002.67M-241.777 931.554H-170.666M-170.666 860.443V931.554M-170.666 860.443H-99.5554M-312.888 931.554V1002.67M-241.777 1002.67H-312.888M-241.777 1002.67V1073.78M-241.777 1002.67H-170.666M-170.666 931.554V1002.67M-170.666 931.554H-99.5554M-312.888 1002.67V1073.78M-241.777 1073.78H-312.888M-241.777 1073.78V1144.89M-241.777 1073.78H-170.666M-170.666 1002.67V1073.78M-170.666 1002.67H-99.5554M-312.888 1073.78V1144.89H-241.777M-241.777 1144.89H-170.666M-170.666 1073.78V1144.89M-170.666 1073.78H-99.5554M-170.666 1144.89H-99.5554M-99.5554 -277.333V-206.222M-99.5554 -277.333H-28.4444M-99.5554 -206.222V-135.111M-99.5554 -206.222H-28.4444M-99.5554 -135.111V-64M-99.5554 -135.111H-28.4444M-99.5554 -64V7.11105M-99.5554 -64H-28.4444M-99.5554 7.11105V78.2221M-99.5554 7.11105H-28.4444M-99.5554 78.2221V149.333M-99.5554 78.2221H-28.4444M-99.5554 149.333V220.444M-99.5554 149.333H-28.4444M-99.5554 220.444V291.555M-99.5554 220.444H-28.4444M-99.5554 291.555V362.666M-99.5554 291.555H-28.4444M-99.5554 362.666V433.777M-99.5554 362.666H-28.4444M-99.5554 433.777V504.888M-99.5554 433.777H-28.4444M-99.5554 504.888V575.999M-99.5554 504.888H-28.4444M-99.5554 575.999V647.11M-99.5554 575.999H-28.4444M-99.5554 647.11V718.221M-99.5554 647.11H-28.4444M-99.5554 718.221V789.332M-99.5554 718.221H-28.4444M-99.5554 789.332V860.443M-99.5554 789.332H-28.4444M-99.5554 860.443V931.554M-99.5554 860.443H-28.4444M-99.5554 931.554V1002.67M-99.5554 931.554H-28.4444M-99.5554 1002.67V1073.78M-99.5554 1002.67H-28.4444M-99.5554 1073.78V1144.89M-99.5554 1073.78H-28.4444M-99.5554 1144.89H-28.4444M-28.4444 -277.333V-206.222M-28.4444 -277.333H42.6666M-28.4444 -206.222V-135.111M-28.4444 -206.222H42.6666M-28.4444 -135.111V-64M-28.4444 -135.111H42.6666M-28.4444 -64V7.11105M-28.4444 -64H42.6666M-28.4444 7.11105V78.2221M-28.4444 7.11105H42.6666M-28.4444 78.2221V149.333M-28.4444 78.2221H42.6666M-28.4444 149.333V220.444M-28.4444 149.333H42.6666M-28.4444 220.444V291.555M-28.4444 220.444H42.6666M-28.4444 291.555V362.666M-28.4444 291.555H42.6666M-28.4444 362.666V433.777M-28.4444 362.666H42.6666M-28.4444 433.777V504.888M-28.4444 433.777H42.6666M-28.4444 504.888V575.999M-28.4444 504.888H42.6666M-28.4444 575.999V647.11M-28.4444 575.999H42.6666M-28.4444 647.11V718.221M-28.4444 647.11H42.6666M-28.4444 718.221V789.332M-28.4444 718.221H42.6666M-28.4444 789.332V860.443M-28.4444 789.332H42.6666M-28.4444 860.443V931.554M-28.4444 860.443H42.6666M-28.4444 931.554V1002.67M-28.4444 931.554H42.6666M-28.4444 1002.67V1073.78M-28.4444 1002.67H42.6666M-28.4444 1073.78V1144.89M-28.4444 1073.78H42.6666M-28.4444 1144.89H42.6666M42.6666 -277.333V-206.222M42.6666 -277.333H113.778M42.6666 -206.222V-135.111M42.6666 -206.222H113.778M42.6666 -135.111V-64M42.6666 -135.111H113.778M42.6666 -64V7.11105M42.6666 -64H113.778M42.6666 7.11105V78.2221M42.6666 7.11105H113.778M42.6666 78.2221V149.333M42.6666 78.2221H113.778M42.6666 149.333V220.444M42.6666 149.333H113.778M42.6666 220.444V291.555M42.6666 220.444H113.778M42.6666 291.555V362.666M42.6666 291.555H113.778M42.6666 362.666V433.777M42.6666 362.666H113.778M42.6666 433.777V504.888M42.6666 433.777H113.778M42.6666 504.888V575.999M42.6666 504.888H113.778M42.6666 575.999V647.11M42.6666 575.999H113.778M42.6666 647.11V718.221M42.6666 647.11H113.778M42.6666 718.221V789.332M42.6666 718.221H113.778M42.6666 789.332V860.443M42.6666 789.332H113.778M42.6666 860.443V931.554M42.6666 860.443H113.778M42.6666 931.554V1002.67M42.6666 931.554H113.778M42.6666 1002.67V1073.78M42.6666 1002.67H113.778M42.6666 1073.78V1144.89M42.6666 1073.78H113.778M42.6666 1144.89H113.778M113.778 -277.333V-206.222M113.778 -277.333H184.889M113.778 -206.222V-135.111M113.778 -206.222H184.889M113.778 -135.111V-64M113.778 -135.111H184.889M113.778 -64V7.11105M113.778 -64H184.889M113.778 7.11105V78.2221M113.778 7.11105H184.889M113.778 78.2221V149.333M113.778 78.2221H184.889M113.778 149.333V220.444M113.778 149.333H184.889M113.778 220.444V291.555M113.778 220.444H184.889M113.778 291.555V362.666M113.778 291.555H184.889M113.778 362.666V433.777M113.778 362.666H184.889M113.778 433.777V504.888M113.778 433.777H184.889M113.778 504.888V575.999M113.778 504.888H184.889M113.778 575.999V647.11M113.778 575.999H184.889M113.778 647.11V718.221M113.778 647.11H184.889M113.778 718.221V789.332M113.778 718.221H184.889M113.778 789.332V860.443M113.778 789.332H184.889M113.778 860.443V931.554M113.778 860.443H184.889M113.778 931.554V1002.67M113.778 931.554H184.889M113.778 1002.67V1073.78M113.778 1002.67H184.889M113.778 1073.78V1144.89M113.778 1073.78H184.889M113.778 1144.89H184.889M184.889 -277.333V-206.222M184.889 -277.333H256M184.889 -206.222V-135.111M184.889 -206.222H256M184.889 -135.111V-64M184.889 -135.111H256M184.889 -64V7.11105M184.889 -64H256M184.889 7.11105V78.2221M184.889 7.11105H256M184.889 78.2221V149.333M184.889 78.2221H256M184.889 149.333V220.444M184.889 149.333H256M184.889 220.444V291.555M184.889 220.444H256M184.889 291.555V362.666M184.889 291.555H256M184.889 362.666V433.777M184.889 362.666H256M184.889 433.777V504.888M184.889 433.777H256M184.889 504.888V575.999M184.889 504.888H256M184.889 575.999V647.11M184.889 575.999H256M184.889 647.11V718.221M184.889 647.11H256M184.889 718.221V789.332M184.889 718.221H256M184.889 789.332V860.443M184.889 789.332H256M184.889 860.443V931.554M184.889 860.443H256M184.889 931.554V1002.67M184.889 931.554H256M184.889 1002.67V1073.78M184.889 1002.67H256M184.889 1073.78V1144.89M184.889 1073.78H256M184.889 1144.89H256M256 -277.333V-206.222M256 -277.333H327.111M256 -206.222V-135.111M256 -206.222H327.111M256 -135.111V-64M256 -135.111H327.111M256 -64V7.11105M256 -64H327.111M256 7.11105V78.2221M256 7.11105H327.111M256 78.2221V149.333M256 78.2221H327.111M256 149.333V220.444M256 149.333H327.111M256 220.444V291.555M256 220.444H327.111M256 291.555V362.666M256 291.555H327.111M256 362.666V433.777M256 362.666H327.111M256 433.777V504.888M256 433.777H327.111M256 504.888V575.999M256 504.888H327.111M256 575.999V647.11M256 575.999H327.111M256 647.11V718.221M256 647.11H327.111M256 718.221V789.332M256 718.221H327.111M256 789.332V860.443M256 789.332H327.111M256 860.443V931.554M256 860.443H327.111M256 931.554V1002.67M256 931.554H327.111M256 1002.67V1073.78M256 1002.67H327.111M256 1073.78V1144.89M256 1073.78H327.111M256 1144.89H327.111M327.111 -277.333V-206.222M327.111 -277.333H398.222M327.111 -206.222V-135.111M327.111 -206.222H398.222M327.111 -135.111V-64M327.111 -135.111H398.222M327.111 -64V7.11105M327.111 -64H398.222M327.111 7.11105V78.2221M327.111 7.11105H398.222M327.111 78.2221V149.333M327.111 78.2221H398.222M327.111 149.333V220.444M327.111 149.333H398.222M327.111 220.444V291.555M327.111 220.444H398.222M327.111 291.555V362.666M327.111 291.555H398.222M327.111 362.666V433.777M327.111 362.666H398.222M327.111 433.777V504.888M327.111 433.777H398.222M327.111 504.888V575.999M327.111 504.888H398.222M327.111 575.999V647.11M327.111 575.999H398.222M327.111 647.11V718.221M327.111 647.11H398.222M327.111 718.221V789.332M327.111 718.221H398.222M327.111 789.332V860.443M327.111 789.332H398.222M327.111 860.443V931.554M327.111 860.443H398.222M327.111 931.554V1002.67M327.111 931.554H398.222M327.111 1002.67V1073.78M327.111 1002.67H398.222M327.111 1073.78V1144.89M327.111 1073.78H398.222M327.111 1144.89H398.222M398.222 -277.333V-206.222M398.222 -277.333H469.333M398.222 -206.222V-135.111M398.222 -206.222H469.333M398.222 -135.111V-64M398.222 -135.111H469.333M398.222 -64V7.11105M398.222 -64H469.333M398.222 7.11105V78.2221M398.222 7.11105H469.333M398.222 78.2221V149.333M398.222 78.2221H469.333M398.222 149.333V220.444M398.222 149.333H469.333M398.222 220.444V291.555M398.222 220.444H469.333M398.222 291.555V362.666M398.222 291.555H469.333M398.222 362.666V433.777M398.222 362.666H469.333M398.222 433.777V504.888M398.222 433.777H469.333M398.222 504.888V575.999M398.222 504.888H469.333M398.222 575.999V647.11M398.222 575.999H469.333M398.222 647.11V718.221M398.222 647.11H469.333M398.222 718.221V789.332M398.222 718.221H469.333M398.222 789.332V860.443M398.222 789.332H469.333M398.222 860.443V931.554M398.222 860.443H469.333M398.222 931.554V1002.67M398.222 931.554H469.333M398.222 1002.67V1073.78M398.222 1002.67H469.333M398.222 1073.78V1144.89M398.222 1073.78H469.333M398.222 1144.89H469.333M469.333 -277.333V-206.222M469.333 -277.333H540.444M469.333 -206.222V-135.111M469.333 -206.222H540.444M469.333 -135.111V-64M469.333 -135.111H540.444M469.333 -64V7.11105M469.333 -64H540.444M469.333 7.11105V78.2221M469.333 7.11105H540.444M469.333 78.2221V149.333M469.333 78.2221H540.444M469.333 149.333V220.444M469.333 149.333H540.444M469.333 220.444V291.555M469.333 220.444H540.444M469.333 291.555V362.666M469.333 291.555H540.444M469.333 362.666V433.777M469.333 362.666H540.444M469.333 433.777V504.888M469.333 433.777H540.444M469.333 504.888V575.999M469.333 504.888H540.444M469.333 575.999V647.11M469.333 575.999H540.444M469.333 647.11V718.221M469.333 647.11H540.444M469.333 718.221V789.332M469.333 718.221H540.444M469.333 789.332V860.443M469.333 789.332H540.444M469.333 860.443V931.554M469.333 860.443H540.444M469.333 931.554V1002.67M469.333 931.554H540.444M469.333 1002.67V1073.78M469.333 1002.67H540.444M469.333 1073.78V1144.89M469.333 1073.78H540.444M469.333 1144.89H540.444M540.444 -277.333V-206.222M540.444 -277.333H611.555M540.444 -206.222V-135.111M540.444 -206.222H611.555M540.444 -135.111V-64M540.444 -135.111H611.555M540.444 -64V7.11105M540.444 -64H611.555M540.444 7.11105V78.2221M540.444 7.11105H611.555M540.444 78.2221V149.333M540.444 78.2221H611.555M540.444 149.333V220.444M540.444 149.333H611.555M540.444 220.444V291.555M540.444 220.444H611.555M540.444 291.555V362.666M540.444 291.555H611.555M540.444 362.666V433.777M540.444 362.666H611.555M540.444 433.777V504.888M540.444 433.777H611.555M540.444 504.888V575.999M540.444 504.888H611.555M540.444 575.999V647.11M540.444 575.999H611.555M540.444 647.11V718.221M540.444 647.11H611.555M540.444 718.221V789.332M540.444 718.221H611.555M540.444 789.332V860.443M540.444 789.332H611.555M540.444 860.443V931.554M540.444 860.443H611.555M540.444 931.554V1002.67M540.444 931.554H611.555M540.444 1002.67V1073.78M540.444 1002.67H611.555M540.444 1073.78V1144.89M540.444 1073.78H611.555M540.444 1144.89H611.555M611.555 -277.333V-206.222M611.555 -277.333H682.666M611.555 -206.222V-135.111M611.555 -206.222H682.666M611.555 -135.111V-64M611.555 -135.111H682.666M611.555 -64V7.11105M611.555 -64H682.666M611.555 7.11105V78.2221M611.555 7.11105H682.666M611.555 78.2221V149.333M611.555 78.2221H682.666M611.555 149.333V220.444M611.555 149.333H682.666M611.555 220.444V291.555M611.555 220.444H682.666M611.555 291.555V362.666M611.555 291.555H682.666M611.555 362.666V433.777M611.555 362.666H682.666M611.555 433.777V504.888M611.555 433.777H682.666M611.555 504.888V575.999M611.555 504.888H682.666M611.555 575.999V647.11M611.555 575.999H682.666M611.555 647.11V718.221M611.555 647.11H682.666M611.555 718.221V789.332M611.555 718.221H682.666M611.555 789.332V860.443M611.555 789.332H682.666M611.555 860.443V931.554M611.555 860.443H682.666M611.555 931.554V1002.67M611.555 931.554H682.666M611.555 1002.67V1073.78M611.555 1002.67H682.666M611.555 1073.78V1144.89M611.555 1073.78H682.666M611.555 1144.89H682.666M682.666 -277.333V-206.222M682.666 -277.333H753.777M682.666 -206.222V-135.111M682.666 -206.222H753.777M682.666 -135.111V-64M682.666 -135.111H753.777M682.666 -64V7.11105M682.666 -64H753.777M682.666 7.11105V78.2221M682.666 7.11105H753.777M682.666 78.2221V149.333M682.666 78.2221H753.777M682.666 149.333V220.444M682.666 149.333H753.777M682.666 220.444V291.555M682.666 220.444H753.777M682.666 291.555V362.666M682.666 291.555H753.777M682.666 362.666V433.777M682.666 362.666H753.777M682.666 433.777V504.888M682.666 433.777H753.777M682.666 504.888V575.999M682.666 504.888H753.777M682.666 575.999V647.11M682.666 575.999H753.777M682.666 647.11V718.221M682.666 647.11H753.777M682.666 718.221V789.332M682.666 718.221H753.777M682.666 789.332V860.443M682.666 789.332H753.777M682.666 860.443V931.554M682.666 860.443H753.777M682.666 931.554V1002.67M682.666 931.554H753.777M682.666 1002.67V1073.78M682.666 1002.67H753.777M682.666 1073.78V1144.89M682.666 1073.78H753.777M682.666 1144.89H753.777M753.777 -277.333V-206.222M753.777 -277.333H824.888M753.777 -206.222V-135.111M753.777 -206.222H824.888M753.777 -135.111V-64M753.777 -135.111H824.888M753.777 -64V7.11105M753.777 -64H824.888M753.777 7.11105V78.2221M753.777 7.11105H824.888M753.777 78.2221V149.333M753.777 78.2221H824.888M753.777 149.333V220.444M753.777 149.333H824.888M753.777 220.444V291.555M753.777 220.444H824.888M753.777 291.555V362.666M753.777 291.555H824.888M753.777 362.666V433.777M753.777 362.666H824.888M753.777 433.777V504.888M753.777 433.777H824.888M753.777 504.888V575.999M753.777 504.888H824.888M753.777 575.999V647.11M753.777 575.999H824.888M753.777 647.11V718.221M753.777 647.11H824.888M753.777 718.221V789.332M753.777 718.221H824.888M753.777 789.332V860.443M753.777 789.332H824.888M753.777 860.443V931.554M753.777 860.443H824.888M753.777 931.554V1002.67M753.777 931.554H824.888M753.777 1002.67V1073.78M753.777 1002.67H824.888M753.777 1073.78V1144.89M753.777 1073.78H824.888M753.777 1144.89H824.888M824.888 -277.333V-206.222M824.888 -277.333H895.999M824.888 -206.222V-135.111M824.888 -206.222H895.999M824.888 -135.111V-64M824.888 -135.111H895.999M824.888 -64V7.11105M824.888 -64H895.999M824.888 7.11105V78.2221M824.888 7.11105H895.999M824.888 78.2221V149.333M824.888 78.2221H895.999M824.888 149.333V220.444M824.888 149.333H895.999M824.888 220.444V291.555M824.888 220.444H895.999M824.888 291.555V362.666M824.888 291.555H895.999M824.888 362.666V433.777M824.888 362.666H895.999M824.888 433.777V504.888M824.888 433.777H895.999M824.888 504.888V575.999M824.888 504.888H895.999M824.888 575.999V647.11M824.888 575.999H895.999M824.888 647.11V718.221M824.888 647.11H895.999M824.888 718.221V789.332M824.888 718.221H895.999M824.888 789.332V860.443M824.888 789.332H895.999M824.888 860.443V931.554M824.888 860.443H895.999M824.888 931.554V1002.67M824.888 931.554H895.999M824.888 1002.67V1073.78M824.888 1002.67H895.999M824.888 1073.78V1144.89M824.888 1073.78H895.999M824.888 1144.89H895.999M895.999 -277.333V-206.222M895.999 -277.333H967.11M895.999 -206.222V-135.111M895.999 -206.222H967.11M895.999 -135.111V-64M895.999 -135.111H967.11M895.999 -64V7.11105M895.999 -64H967.11M895.999 7.11105V78.2221M895.999 7.11105H967.11M895.999 78.2221V149.333M895.999 78.2221H967.11M895.999 149.333V220.444M895.999 149.333H967.11M895.999 220.444V291.555M895.999 220.444H967.11M895.999 291.555V362.666M895.999 291.555H967.11M895.999 362.666V433.777M895.999 362.666H967.11M895.999 433.777V504.888M895.999 433.777H967.11M895.999 504.888V575.999M895.999 504.888H967.11M895.999 575.999V647.11M895.999 575.999H967.11M895.999 647.11V718.221M895.999 647.11H967.11M895.999 718.221V789.332M895.999 718.221H967.11M895.999 789.332V860.443M895.999 789.332H967.11M895.999 860.443V931.554M895.999 860.443H967.11M895.999 931.554V1002.67M895.999 931.554H967.11M895.999 1002.67V1073.78M895.999 1002.67H967.11M895.999 1073.78V1144.89M895.999 1073.78H967.11M895.999 1144.89H967.11M967.11 -277.333V-206.222M967.11 -277.333H1038.22M967.11 -206.222V-135.111M967.11 -206.222H1038.22M967.11 -135.111V-64M967.11 -135.111H1038.22M967.11 -64V7.11105M967.11 -64H1038.22M967.11 7.11105V78.2221M967.11 7.11105H1038.22M967.11 78.2221V149.333M967.11 78.2221H1038.22M967.11 149.333V220.444M967.11 149.333H1038.22M967.11 220.444V291.555M967.11 220.444H1038.22M967.11 291.555V362.666M967.11 291.555H1038.22M967.11 362.666V433.777M967.11 362.666H1038.22M967.11 433.777V504.888M967.11 433.777H1038.22M967.11 504.888V575.999M967.11 504.888H1038.22M967.11 575.999V647.11M967.11 575.999H1038.22M967.11 647.11V718.221M967.11 647.11H1038.22M967.11 718.221V789.332M967.11 718.221H1038.22M967.11 789.332V860.443M967.11 789.332H1038.22M967.11 860.443V931.554M967.11 860.443H1038.22M967.11 931.554V1002.67M967.11 931.554H1038.22M967.11 1002.67V1073.78M967.11 1002.67H1038.22M967.11 1073.78V1144.89M967.11 1073.78H1038.22M967.11 1144.89H1038.22M1038.22 -277.333V-206.222M1038.22 -277.333H1109.33M1038.22 -206.222V-135.111M1038.22 -206.222H1109.33M1038.22 -135.111V-64M1038.22 -135.111H1109.33M1038.22 -64V7.11105M1038.22 -64H1109.33M1038.22 7.11105V78.2221M1038.22 7.11105H1109.33M1038.22 78.2221V149.333M1038.22 78.2221H1109.33M1038.22 149.333V220.444M1038.22 149.333H1109.33M1038.22 220.444V291.555M1038.22 220.444H1109.33M1038.22 291.555V362.666M1038.22 291.555H1109.33M1038.22 362.666V433.777M1038.22 362.666H1109.33M1038.22 433.777V504.888M1038.22 433.777H1109.33M1038.22 504.888V575.999M1038.22 504.888H1109.33M1038.22 575.999V647.11M1038.22 575.999H1109.33M1038.22 647.11V718.221M1038.22 647.11H1109.33M1038.22 718.221V789.332M1038.22 718.221H1109.33M1038.22 789.332V860.443M1038.22 789.332H1109.33M1038.22 860.443V931.554M1038.22 860.443H1109.33M1038.22 931.554V1002.67M1038.22 931.554H1109.33M1038.22 1002.67V1073.78M1038.22 1002.67H1109.33M1038.22 1073.78V1144.89M1038.22 1073.78H1109.33M1038.22 1144.89H1109.33M1109.33 -277.333V-206.222M1109.33 -277.333H1180.44M1109.33 -206.222V-135.111M1109.33 -206.222H1180.44M1109.33 -135.111V-64M1109.33 -135.111H1180.44M1109.33 -64V7.11105M1109.33 -64H1180.44M1109.33 7.11105V78.2221M1109.33 7.11105H1180.44M1109.33 78.2221V149.333M1109.33 78.2221H1180.44M1109.33 149.333V220.444M1109.33 149.333H1180.44M1109.33 220.444V291.555M1109.33 220.444H1180.44M1109.33 291.555V362.666M1109.33 291.555H1180.44M1109.33 362.666V433.777M1109.33 362.666H1180.44M1109.33 433.777V504.888M1109.33 433.777H1180.44M1109.33 504.888V575.999M1109.33 504.888H1180.44M1109.33 575.999V647.11M1109.33 575.999H1180.44M1109.33 647.11V718.221M1109.33 647.11H1180.44M1109.33 718.221V789.332M1109.33 718.221H1180.44M1109.33 789.332V860.443M1109.33 789.332H1180.44M1109.33 860.443V931.554M1109.33 860.443H1180.44M1109.33 931.554V1002.67M1109.33 931.554H1180.44M1109.33 1002.67V1073.78M1109.33 1002.67H1180.44M1109.33 1073.78V1144.89M1109.33 1073.78H1180.44M1109.33 1144.89H1180.44M1180.44 -277.333V-206.222M1180.44 -277.333H1251.55M1180.44 -206.222V-135.111M1180.44 -206.222H1251.55M1180.44 -135.111V-64M1180.44 -135.111H1251.55M1180.44 -64V7.11105M1180.44 -64H1251.55M1180.44 7.11105V78.2221M1180.44 7.11105H1251.55M1180.44 78.2221V149.333M1180.44 78.2221H1251.55M1180.44 149.333V220.444M1180.44 149.333H1251.55M1180.44 220.444V291.555M1180.44 220.444H1251.55M1180.44 291.555V362.666M1180.44 291.555H1251.55M1180.44 362.666V433.777M1180.44 362.666H1251.55M1180.44 433.777V504.888M1180.44 433.777H1251.55M1180.44 504.888V575.999M1180.44 504.888H1251.55M1180.44 575.999V647.11M1180.44 575.999H1251.55M1180.44 647.11V718.221M1180.44 647.11H1251.55M1180.44 718.221V789.332M1180.44 718.221H1251.55M1180.44 789.332V860.443M1180.44 789.332H1251.55M1180.44 860.443V931.554M1180.44 860.443H1251.55M1180.44 931.554V1002.67M1180.44 931.554H1251.55M1180.44 1002.67V1073.78M1180.44 1002.67H1251.55M1180.44 1073.78V1144.89M1180.44 1073.78H1251.55M1180.44 1144.89H1251.55M1251.55 -277.333V-206.222M1251.55 -277.333H1322.66M1251.55 -206.222V-135.111M1251.55 -206.222H1322.66M1251.55 -135.111V-64M1251.55 -135.111H1322.66M1251.55 -64V7.11105M1251.55 -64H1322.66M1251.55 7.11105V78.2221M1251.55 7.11105H1322.66M1251.55 78.2221V149.333M1251.55 78.2221H1322.66M1251.55 149.333V220.444M1251.55 149.333H1322.66M1251.55 220.444V291.555M1251.55 220.444H1322.66M1251.55 291.555V362.666M1251.55 291.555H1322.66M1251.55 362.666V433.777M1251.55 362.666H1322.66M1251.55 433.777V504.888M1251.55 433.777H1322.66M1251.55 504.888V575.999M1251.55 504.888H1322.66M1251.55 575.999V647.11M1251.55 575.999H1322.66M1251.55 647.11V718.221M1251.55 647.11H1322.66M1251.55 718.221V789.332M1251.55 718.221H1322.66M1251.55 789.332V860.443M1251.55 789.332H1322.66M1251.55 860.443V931.554M1251.55 860.443H1322.66M1251.55 931.554V1002.67M1251.55 931.554H1322.66M1251.55 1002.67V1073.78M1251.55 1002.67H1322.66M1251.55 1073.78V1144.89M1251.55 1073.78H1322.66M1251.55 1144.89H1322.66M1322.66 -277.333V-206.222M1322.66 -277.333H1393.78M1322.66 -206.222V-135.111M1322.66 -206.222H1393.78M1322.66 -135.111V-64M1322.66 -135.111H1393.78M1322.66 -64V7.11105M1322.66 -64H1393.78M1322.66 7.11105V78.2221M1322.66 7.11105H1393.78M1322.66 78.2221V149.333M1322.66 78.2221H1393.78M1322.66 149.333V220.444M1322.66 149.333H1393.78M1322.66 220.444V291.555M1322.66 220.444H1393.78M1322.66 291.555V362.666M1322.66 291.555H1393.78M1322.66 362.666V433.777M1322.66 362.666H1393.78M1322.66 433.777V504.888M1322.66 433.777H1393.78M1322.66 504.888V575.999M1322.66 504.888H1393.78M1322.66 575.999V647.11M1322.66 575.999H1393.78M1322.66 647.11V718.221M1322.66 647.11H1393.78M1322.66 718.221V789.332M1322.66 718.221H1393.78M1322.66 789.332V860.443M1322.66 789.332H1393.78M1322.66 860.443V931.554M1322.66 860.443H1393.78M1322.66 931.554V1002.67M1322.66 931.554H1393.78M1322.66 1002.67V1073.78M1322.66 1002.67H1393.78M1322.66 1073.78V1144.89M1322.66 1073.78H1393.78M1322.66 1144.89H1393.78M1393.78 -277.333V-206.222M1393.78 -277.333H1464.89M1393.78 -206.222V-135.111M1393.78 -206.222H1464.89M1393.78 -135.111V-64M1393.78 -135.111H1464.89M1393.78 -64V7.11105M1393.78 -64H1464.89M1393.78 7.11105V78.2221M1393.78 7.11105H1464.89M1393.78 78.2221V149.333M1393.78 78.2221H1464.89M1393.78 149.333V220.444M1393.78 149.333H1464.89M1393.78 220.444V291.555M1393.78 220.444H1464.89M1393.78 291.555V362.666M1393.78 291.555H1464.89M1393.78 362.666V433.777M1393.78 362.666H1464.89M1393.78 433.777V504.888M1393.78 433.777H1464.89M1393.78 504.888V575.999M1393.78 504.888H1464.89M1393.78 575.999V647.11M1393.78 575.999H1464.89M1393.78 647.11V718.221M1393.78 647.11H1464.89M1393.78 718.221V789.332M1393.78 718.221H1464.89M1393.78 789.332V860.443M1393.78 789.332H1464.89M1393.78 860.443V931.554M1393.78 860.443H1464.89M1393.78 931.554V1002.67M1393.78 931.554H1464.89M1393.78 1002.67V1073.78M1393.78 1002.67H1464.89M1393.78 1073.78V1144.89M1393.78 1073.78H1464.89M1393.78 1144.89H1464.89M1464.89 -277.333V-206.222M1464.89 -277.333H1536M1464.89 -206.222V-135.111M1464.89 -206.222H1536M1464.89 -135.111V-64M1464.89 -135.111H1536M1464.89 -64V7.11105M1464.89 -64H1536M1464.89 7.11105V78.2221M1464.89 7.11105H1536M1464.89 78.2221V149.333M1464.89 78.2221H1536M1464.89 149.333V220.444M1464.89 149.333H1536M1464.89 220.444V291.555M1464.89 220.444H1536M1464.89 291.555V362.666M1464.89 291.555H1536M1464.89 362.666V433.777M1464.89 362.666H1536M1464.89 433.777V504.888M1464.89 433.777H1536M1464.89 504.888V575.999M1464.89 504.888H1536M1464.89 575.999V647.11M1464.89 575.999H1536M1464.89 647.11V718.221M1464.89 647.11H1536M1464.89 718.221V789.332M1464.89 718.221H1536M1464.89 789.332V860.443M1464.89 789.332H1536M1464.89 860.443V931.554M1464.89 860.443H1536M1464.89 931.554V1002.67M1464.89 931.554H1536M1464.89 1002.67V1073.78M1464.89 1002.67H1536M1464.89 1073.78V1144.89M1464.89 1073.78H1536M1464.89 1144.89H1536M1536 -277.333V-206.222M1536 -277.333H1607.11M1536 -206.222V-135.111M1536 -206.222H1607.11M1536 -135.111V-64M1536 -135.111H1607.11M1536 -64V7.11105M1536 -64H1607.11M1536 7.11105V78.2221M1536 7.11105H1607.11M1536 78.2221V149.333M1536 78.2221H1607.11M1536 149.333V220.444M1536 149.333H1607.11M1536 220.444V291.555M1536 220.444H1607.11M1536 291.555V362.666M1536 291.555H1607.11M1536 362.666V433.777M1536 362.666H1607.11M1536 433.777V504.888M1536 433.777H1607.11M1536 504.888V575.999M1536 504.888H1607.11M1536 575.999V647.11M1536 575.999H1607.11M1536 647.11V718.221M1536 647.11H1607.11M1536 718.221V789.332M1536 718.221H1607.11M1536 789.332V860.443M1536 789.332H1607.11M1536 860.443V931.554M1536 860.443H1607.11M1536 931.554V1002.67M1536 931.554H1607.11M1536 1002.67V1073.78M1536 1002.67H1607.11M1536 1073.78V1144.89M1536 1073.78H1607.11M1536 1144.89H1607.11M1607.11 -277.333V-206.222M1607.11 -277.333H1678.22M1607.11 -206.222V-135.111M1607.11 -206.222H1678.22M1607.11 -135.111V-64M1607.11 -135.111H1678.22M1607.11 -64V7.11105M1607.11 -64H1678.22M1607.11 7.11105V78.2221M1607.11 7.11105H1678.22M1607.11 78.2221V149.333M1607.11 78.2221H1678.22M1607.11 149.333V220.444M1607.11 149.333H1678.22M1607.11 220.444V291.555M1607.11 220.444H1678.22M1607.11 291.555V362.666M1607.11 291.555H1678.22M1607.11 362.666V433.777M1607.11 362.666H1678.22M1607.11 433.777V504.888M1607.11 433.777H1678.22M1607.11 504.888V575.999M1607.11 504.888H1678.22M1607.11 575.999V647.11M1607.11 575.999H1678.22M1607.11 647.11V718.221M1607.11 647.11H1678.22M1607.11 718.221V789.332M1607.11 718.221H1678.22M1607.11 789.332V860.443M1607.11 789.332H1678.22M1607.11 860.443V931.554M1607.11 860.443H1678.22M1607.11 931.554V1002.67M1607.11 931.554H1678.22M1607.11 1002.67V1073.78M1607.11 1002.67H1678.22M1607.11 1073.78V1144.89M1607.11 1073.78H1678.22M1607.11 1144.89H1678.22M1678.22 -277.333V-206.222M1678.22 -277.333H1749.33M1678.22 -206.222V-135.111M1678.22 -206.222H1749.33M1678.22 -135.111V-64M1678.22 -135.111H1749.33M1678.22 -64V7.11105M1678.22 -64H1749.33M1678.22 7.11105V78.2221M1678.22 7.11105H1749.33M1678.22 78.2221V149.333M1678.22 78.2221H1749.33M1678.22 149.333V220.444M1678.22 149.333H1749.33M1678.22 220.444V291.555M1678.22 220.444H1749.33M1678.22 291.555V362.666M1678.22 291.555H1749.33M1678.22 362.666V433.777M1678.22 362.666H1749.33M1678.22 433.777V504.888M1678.22 433.777H1749.33M1678.22 504.888V575.999M1678.22 504.888H1749.33M1678.22 575.999V647.11M1678.22 575.999H1749.33M1678.22 647.11V718.221M1678.22 647.11H1749.33M1678.22 718.221V789.332M1678.22 718.221H1749.33M1678.22 789.332V860.443M1678.22 789.332H1749.33M1678.22 860.443V931.554M1678.22 860.443H1749.33M1678.22 931.554V1002.67M1678.22 931.554H1749.33M1678.22 1002.67V1073.78M1678.22 1002.67H1749.33M1678.22 1073.78V1144.89M1678.22 1073.78H1749.33M1678.22 1144.89H1749.33M1749.33 -277.333V-206.222M1749.33 -277.333H1820.44M1749.33 -206.222V-135.111M1749.33 -206.222H1820.44M1749.33 -135.111V-64M1749.33 -135.111H1820.44M1749.33 -64V7.11105M1749.33 -64H1820.44M1749.33 7.11105V78.2221M1749.33 7.11105H1820.44M1749.33 78.2221V149.333M1749.33 78.2221H1820.44M1749.33 149.333V220.444M1749.33 149.333H1820.44M1749.33 220.444V291.555M1749.33 220.444H1820.44M1749.33 291.555V362.666M1749.33 291.555H1820.44M1749.33 362.666V433.777M1749.33 362.666H1820.44M1749.33 433.777V504.888M1749.33 433.777H1820.44M1749.33 504.888V575.999M1749.33 504.888H1820.44M1749.33 575.999V647.11M1749.33 575.999H1820.44M1749.33 647.11V718.221M1749.33 647.11H1820.44M1749.33 718.221V789.332M1749.33 718.221H1820.44M1749.33 789.332V860.443M1749.33 789.332H1820.44M1749.33 860.443V931.554M1749.33 860.443H1820.44M1749.33 931.554V1002.67M1749.33 931.554H1820.44M1749.33 1002.67V1073.78M1749.33 1002.67H1820.44M1749.33 1073.78V1144.89M1749.33 1073.78H1820.44M1749.33 1144.89H1820.44M1820.44 -277.333V-206.222M1820.44 -277.333H1891.55M1820.44 -206.222V-135.111M1820.44 -206.222H1891.55M1820.44 -135.111V-64M1820.44 -135.111H1891.55M1820.44 -64V7.11105M1820.44 -64H1891.55M1820.44 7.11105V78.2221M1820.44 7.11105H1891.55M1820.44 78.2221V149.333M1820.44 78.2221H1891.55M1820.44 149.333V220.444M1820.44 149.333H1891.55M1820.44 220.444V291.555M1820.44 220.444H1891.55M1820.44 291.555V362.666M1820.44 291.555H1891.55M1820.44 362.666V433.777M1820.44 362.666H1891.55M1820.44 433.777V504.888M1820.44 433.777H1891.55M1820.44 504.888V575.999M1820.44 504.888H1891.55M1820.44 575.999V647.11M1820.44 575.999H1891.55M1820.44 647.11V718.221M1820.44 647.11H1891.55M1820.44 718.221V789.332M1820.44 718.221H1891.55M1820.44 789.332V860.443M1820.44 789.332H1891.55M1820.44 860.443V931.554M1820.44 860.443H1891.55M1820.44 931.554V1002.67M1820.44 931.554H1891.55M1820.44 1002.67V1073.78M1820.44 1002.67H1891.55M1820.44 1073.78V1144.89M1820.44 1073.78H1891.55M1820.44 1144.89H1891.55M1891.55 -277.333V-206.222M1891.55 -277.333H1962.66M1891.55 -206.222V-135.111M1891.55 -206.222H1962.66M1891.55 -135.111V-64M1891.55 -135.111H1962.66M1891.55 -64V7.11105M1891.55 -64H1962.66M1891.55 7.11105V78.2221M1891.55 7.11105H1962.66M1891.55 78.2221V149.333M1891.55 78.2221H1962.66M1891.55 149.333V220.444M1891.55 149.333H1962.66M1891.55 220.444V291.555M1891.55 220.444H1962.66M1891.55 291.555V362.666M1891.55 291.555H1962.66M1891.55 362.666V433.777M1891.55 362.666H1962.66M1891.55 433.777V504.888M1891.55 433.777H1962.66M1891.55 504.888V575.999M1891.55 504.888H1962.66M1891.55 575.999V647.11M1891.55 575.999H1962.66M1891.55 647.11V718.221M1891.55 647.11H1962.66M1891.55 718.221V789.332M1891.55 718.221H1962.66M1891.55 789.332V860.443M1891.55 789.332H1962.66M1891.55 860.443V931.554M1891.55 860.443H1962.66M1891.55 931.554V1002.67M1891.55 931.554H1962.66M1891.55 1002.67V1073.78M1891.55 1002.67H1962.66M1891.55 1073.78V1144.89M1891.55 1073.78H1962.66M1891.55 1144.89H1962.66M1962.66 -277.333V-206.222M1962.66 -277.333H2033.77M1962.66 -206.222V-135.111M1962.66 -206.222H2033.77M1962.66 -135.111V-64M1962.66 -135.111H2033.77M1962.66 -64V7.11105M1962.66 -64H2033.77M1962.66 7.11105V78.2221M1962.66 7.11105H2033.77M1962.66 78.2221V149.333M1962.66 78.2221H2033.77M1962.66 149.333V220.444M1962.66 149.333H2033.77M1962.66 220.444V291.555M1962.66 220.444H2033.77M1962.66 291.555V362.666M1962.66 291.555H2033.77M1962.66 362.666V433.777M1962.66 362.666H2033.77M1962.66 433.777V504.888M1962.66 433.777H2033.77M1962.66 504.888V575.999M1962.66 504.888H2033.77M1962.66 575.999V647.11M1962.66 575.999H2033.77M1962.66 647.11V718.221M1962.66 647.11H2033.77M1962.66 718.221V789.332M1962.66 718.221H2033.77M1962.66 789.332V860.443M1962.66 789.332H2033.77M1962.66 860.443V931.554M1962.66 860.443H2033.77M1962.66 931.554V1002.67M1962.66 931.554H2033.77M1962.66 1002.67V1073.78M1962.66 1002.67H2033.77M1962.66 1073.78V1144.89M1962.66 1073.78H2033.77M1962.66 1144.89H2033.77M2033.77 -277.333V-206.222M2033.77 -277.333H2104.89M2033.77 -206.222V-135.111M2033.77 -206.222H2104.89M2033.77 -135.111V-64M2033.77 -135.111H2104.89M2033.77 -64V7.11105M2033.77 -64H2104.89M2033.77 7.11105V78.2221M2033.77 7.11105H2104.89M2033.77 78.2221V149.333M2033.77 78.2221H2104.89M2033.77 149.333V220.444M2033.77 149.333H2104.89M2033.77 220.444V291.555M2033.77 220.444H2104.89M2033.77 291.555V362.666M2033.77 291.555H2104.89M2033.77 362.666V433.777M2033.77 362.666H2104.89M2033.77 433.777V504.888M2033.77 433.777H2104.89M2033.77 504.888V575.999M2033.77 504.888H2104.89M2033.77 575.999V647.11M2033.77 575.999H2104.89M2033.77 647.11V718.221M2033.77 647.11H2104.89M2033.77 718.221V789.332M2033.77 718.221H2104.89M2033.77 789.332V860.443M2033.77 789.332H2104.89M2033.77 860.443V931.554M2033.77 860.443H2104.89M2033.77 931.554V1002.67M2033.77 931.554H2104.89M2033.77 1002.67V1073.78M2033.77 1002.67H2104.89M2033.77 1073.78V1144.89M2033.77 1073.78H2104.89M2033.77 1144.89H2104.89M2104.89 -277.333V-206.222M2104.89 -277.333H2176M2104.89 -206.222V-135.111M2104.89 -206.222H2176M2104.89 -135.111V-64M2104.89 -135.111H2176M2104.89 -64V7.11105M2104.89 -64H2176M2104.89 7.11105V78.2221M2104.89 7.11105H2176M2104.89 78.2221V149.333M2104.89 78.2221H2176M2104.89 149.333V220.444M2104.89 149.333H2176M2104.89 220.444V291.555M2104.89 220.444H2176M2104.89 291.555V362.666M2104.89 291.555H2176M2104.89 362.666V433.777M2104.89 362.666H2176M2104.89 433.777V504.888M2104.89 433.777H2176M2104.89 504.888V575.999M2104.89 504.888H2176M2104.89 575.999V647.11M2104.89 575.999H2176M2104.89 647.11V718.221M2104.89 647.11H2176M2104.89 718.221V789.332M2104.89 718.221H2176M2104.89 789.332V860.443M2104.89 789.332H2176M2104.89 860.443V931.554M2104.89 860.443H2176M2104.89 931.554V1002.67M2104.89 931.554H2176M2104.89 1002.67V1073.78M2104.89 1002.67H2176M2104.89 1073.78V1144.89M2104.89 1073.78H2176M2104.89 1144.89H2176M2176 -277.333V-206.222M2176 -277.333H2247.11M2176 -206.222V-135.111M2176 -206.222H2247.11M2176 -135.111V-64M2176 -135.111H2247.11M2176 -64V7.11105M2176 -64H2247.11M2176 7.11105V78.2221M2176 7.11105H2247.11M2176 78.2221V149.333M2176 78.2221H2247.11M2176 149.333V220.444M2176 149.333H2247.11M2176 220.444V291.555M2176 220.444H2247.11M2176 291.555V362.666M2176 291.555H2247.11M2176 362.666V433.777M2176 362.666H2247.11M2176 433.777V504.888M2176 433.777H2247.11M2176 504.888V575.999M2176 504.888H2247.11M2176 575.999V647.11M2176 575.999H2247.11M2176 647.11V718.221M2176 647.11H2247.11M2176 718.221V789.332M2176 718.221H2247.11M2176 789.332V860.443M2176 789.332H2247.11M2176 860.443V931.554M2176 860.443H2247.11M2176 931.554V1002.67M2176 931.554H2247.11M2176 1002.67V1073.78M2176 1002.67H2247.11M2176 1073.78V1144.89M2176 1073.78H2247.11M2176 1144.89H2247.11M2247.11 -277.333V-206.222M2247.11 -277.333H2318.22M2247.11 -206.222V-135.111M2247.11 -206.222H2318.22M2247.11 -135.111V-64M2247.11 -135.111H2318.22M2247.11 -64V7.11105M2247.11 -64H2318.22M2247.11 7.11105V78.2221M2247.11 7.11105H2318.22M2247.11 78.2221V149.333M2247.11 78.2221H2318.22M2247.11 149.333V220.444M2247.11 149.333H2318.22M2247.11 220.444V291.555M2247.11 220.444H2318.22M2247.11 291.555V362.666M2247.11 291.555H2318.22M2247.11 362.666V433.777M2247.11 362.666H2318.22M2247.11 433.777V504.888M2247.11 433.777H2318.22M2247.11 504.888V575.999M2247.11 504.888H2318.22M2247.11 575.999V647.11M2247.11 575.999H2318.22M2247.11 647.11V718.221M2247.11 647.11H2318.22M2247.11 718.221V789.332M2247.11 718.221H2318.22M2247.11 789.332V860.443M2247.11 789.332H2318.22M2247.11 860.443V931.554M2247.11 860.443H2318.22M2247.11 931.554V1002.67M2247.11 931.554H2318.22M2247.11 1002.67V1073.78M2247.11 1002.67H2318.22M2247.11 1073.78V1144.89M2247.11 1073.78H2318.22M2247.11 1144.89H2318.22M2318.22 -277.333V-206.222M2318.22 -277.333H2389.33M2318.22 -206.222V-135.111M2318.22 -206.222H2389.33M2318.22 -135.111V-64M2318.22 -135.111H2389.33M2318.22 -64V7.11105M2318.22 -64H2389.33M2318.22 7.11105V78.2221M2318.22 7.11105H2389.33M2318.22 78.2221V149.333M2318.22 78.2221H2389.33M2318.22 149.333V220.444M2318.22 149.333H2389.33M2318.22 220.444V291.555M2318.22 220.444H2389.33M2318.22 291.555V362.666M2318.22 291.555H2389.33M2318.22 362.666V433.777M2318.22 362.666H2389.33M2318.22 433.777V504.888M2318.22 433.777H2389.33M2318.22 504.888V575.999M2318.22 504.888H2389.33M2318.22 575.999V647.11M2318.22 575.999H2389.33M2318.22 647.11V718.221M2318.22 647.11H2389.33M2318.22 718.221V789.332M2318.22 718.221H2389.33M2318.22 789.332V860.443M2318.22 789.332H2389.33M2318.22 860.443V931.554M2318.22 860.443H2389.33M2318.22 931.554V1002.67M2318.22 931.554H2389.33M2318.22 1002.67V1073.78M2318.22 1002.67H2389.33M2318.22 1073.78V1144.89M2318.22 1073.78H2389.33M2318.22 1144.89H2389.33M2389.33 -277.333V-206.222M2389.33 -277.333H2460.44M2389.33 -206.222V-135.111M2389.33 -206.222H2460.44M2389.33 -135.111V-64M2389.33 -135.111H2460.44M2389.33 -64V7.11105M2389.33 -64H2460.44M2389.33 7.11105V78.2221M2389.33 7.11105H2460.44M2389.33 78.2221V149.333M2389.33 78.2221H2460.44M2389.33 149.333V220.444M2389.33 149.333H2460.44M2389.33 220.444V291.555M2389.33 220.444H2460.44M2389.33 291.555V362.666M2389.33 291.555H2460.44M2389.33 362.666V433.777M2389.33 362.666H2460.44M2389.33 433.777V504.888M2389.33 433.777H2460.44M2389.33 504.888V575.999M2389.33 504.888H2460.44M2389.33 575.999V647.11M2389.33 575.999H2460.44M2389.33 647.11V718.221M2389.33 647.11H2460.44M2389.33 718.221V789.332M2389.33 718.221H2460.44M2389.33 789.332V860.443M2389.33 789.332H2460.44M2389.33 860.443V931.554M2389.33 860.443H2460.44M2389.33 931.554V1002.67M2389.33 931.554H2460.44M2389.33 1002.67V1073.78M2389.33 1002.67H2460.44M2389.33 1073.78V1144.89M2389.33 1073.78H2460.44M2389.33 1144.89H2460.44M2460.44 -277.333V-206.222M2460.44 -277.333H2531.55M2460.44 -206.222V-135.111M2460.44 -206.222H2531.55M2460.44 -135.111V-64M2460.44 -135.111H2531.55M2460.44 -64V7.11105M2460.44 -64H2531.55M2460.44 7.11105V78.2221M2460.44 7.11105H2531.55M2460.44 78.2221V149.333M2460.44 78.2221H2531.55M2460.44 149.333V220.444M2460.44 149.333H2531.55M2460.44 220.444V291.555M2460.44 220.444H2531.55M2460.44 291.555V362.666M2460.44 291.555H2531.55M2460.44 362.666V433.777M2460.44 362.666H2531.55M2460.44 433.777V504.888M2460.44 433.777H2531.55M2460.44 504.888V575.999M2460.44 504.888H2531.55M2460.44 575.999V647.11M2460.44 575.999H2531.55M2460.44 647.11V718.221M2460.44 647.11H2531.55M2460.44 718.221V789.332M2460.44 718.221H2531.55M2460.44 789.332V860.443M2460.44 789.332H2531.55M2460.44 860.443V931.554M2460.44 860.443H2531.55M2460.44 931.554V1002.67M2460.44 931.554H2531.55M2460.44 1002.67V1073.78M2460.44 1002.67H2531.55M2460.44 1073.78V1144.89M2460.44 1073.78H2531.55M2460.44 1144.89H2531.55M2531.55 -277.333V-206.222M2531.55 -277.333H2602.66M2531.55 -206.222V-135.111M2531.55 -206.222H2602.66M2531.55 -135.111V-64M2531.55 -135.111H2602.66M2531.55 -64V7.11105M2531.55 -64H2602.66M2531.55 7.11105V78.2221M2531.55 7.11105H2602.66M2531.55 78.2221V149.333M2531.55 78.2221H2602.66M2531.55 149.333V220.444M2531.55 149.333H2602.66M2531.55 220.444V291.555M2531.55 220.444H2602.66M2531.55 291.555V362.666M2531.55 291.555H2602.66M2531.55 362.666V433.777M2531.55 362.666H2602.66M2531.55 433.777V504.888M2531.55 433.777H2602.66M2531.55 504.888V575.999M2531.55 504.888H2602.66M2531.55 575.999V647.11M2531.55 575.999H2602.66M2531.55 647.11V718.221M2531.55 647.11H2602.66M2531.55 718.221V789.332M2531.55 718.221H2602.66M2531.55 789.332V860.443M2531.55 789.332H2602.66M2531.55 860.443V931.554M2531.55 860.443H2602.66M2531.55 931.554V1002.67M2531.55 931.554H2602.66M2531.55 1002.67V1073.78M2531.55 1002.67H2602.66M2531.55 1073.78V1144.89M2531.55 1073.78H2602.66M2531.55 1144.89H2602.66M2602.66 -277.333V-206.222M2602.66 -277.333H2673.77M2602.66 -206.222V-135.111M2602.66 -206.222H2673.77M2602.66 -135.111V-64M2602.66 -135.111H2673.77M2602.66 -64V7.11105M2602.66 -64H2673.77M2602.66 7.11105V78.2221M2602.66 7.11105H2673.77M2602.66 78.2221V149.333M2602.66 78.2221H2673.77M2602.66 149.333V220.444M2602.66 149.333H2673.77M2602.66 220.444V291.555M2602.66 220.444H2673.77M2602.66 291.555V362.666M2602.66 291.555H2673.77M2602.66 362.666V433.777M2602.66 362.666H2673.77M2602.66 433.777V504.888M2602.66 433.777H2673.77M2602.66 504.888V575.999M2602.66 504.888H2673.77M2602.66 575.999V647.11M2602.66 575.999H2673.77M2602.66 647.11V718.221M2602.66 647.11H2673.77M2602.66 718.221V789.332M2602.66 718.221H2673.77M2602.66 789.332V860.443M2602.66 789.332H2673.77M2602.66 860.443V931.554M2602.66 860.443H2673.77M2602.66 931.554V1002.67M2602.66 931.554H2673.77M2602.66 1002.67V1073.78M2602.66 1002.67H2673.77M2602.66 1073.78V1144.89M2602.66 1073.78H2673.77M2602.66 1144.89H2673.77M2673.77 -277.333V-206.222M2673.77 -277.333H2744.88M2673.77 -206.222V-135.111M2673.77 -206.222H2744.88M2673.77 -135.111V-64M2673.77 -135.111H2744.88M2673.77 -64V7.11105M2673.77 -64H2744.88M2673.77 7.11105V78.2221M2673.77 7.11105H2744.88M2673.77 78.2221V149.333M2673.77 78.2221H2744.88M2673.77 149.333V220.444M2673.77 149.333H2744.88M2673.77 220.444V291.555M2673.77 220.444H2744.88M2673.77 291.555V362.666M2673.77 291.555H2744.88M2673.77 362.666V433.777M2673.77 362.666H2744.88M2673.77 433.777V504.888M2673.77 433.777H2744.88M2673.77 504.888V575.999M2673.77 504.888H2744.88M2673.77 575.999V647.11M2673.77 575.999H2744.88M2673.77 647.11V718.221M2673.77 647.11H2744.88M2673.77 718.221V789.332M2673.77 718.221H2744.88M2673.77 789.332V860.443M2673.77 789.332H2744.88M2673.77 860.443V931.554M2673.77 860.443H2744.88M2673.77 931.554V1002.67M2673.77 931.554H2744.88M2673.77 1002.67V1073.78M2673.77 1002.67H2744.88M2673.77 1073.78V1144.89M2673.77 1073.78H2744.88M2673.77 1144.89H2744.88M2744.88 -277.333V-206.222M2744.88 -277.333H2816V-206.222M2744.88 -206.222V-135.111M2744.88 -206.222H2816M2744.88 -135.111V-64M2744.88 -135.111H2816M2744.88 -64V7.11105M2744.88 -64H2816M2744.88 7.11105V78.2221M2744.88 7.11105H2816M2744.88 78.2221V149.333M2744.88 78.2221H2816M2744.88 149.333V220.444M2744.88 149.333H2816M2744.88 220.444V291.555M2744.88 220.444H2816M2744.88 291.555V362.666M2744.88 291.555H2816M2744.88 362.666V433.777M2744.88 362.666H2816M2744.88 433.777V504.888M2744.88 433.777H2816M2744.88 504.888V575.999M2744.88 504.888H2816M2744.88 575.999V647.11M2744.88 575.999H2816M2744.88 647.11V718.221M2744.88 647.11H2816M2744.88 718.221V789.332M2744.88 718.221H2816M2744.88 789.332V860.443M2744.88 789.332H2816M2744.88 860.443V931.554M2744.88 860.443H2816M2744.88 931.554V1002.67M2744.88 931.554H2816M2744.88 1002.67V1073.78M2744.88 1002.67H2816M2744.88 1073.78V1144.89M2744.88 1073.78H2816M2744.88 1144.89H2816V1073.78M2816 -206.222V-135.111M2816 -135.111V-64M2816 -64V7.11105M2816 7.11105V78.2221M2816 78.2221V149.333M2816 149.333V220.444M2816 220.444V291.555M2816 291.555V362.666M2816 362.666V433.777M2816 433.777V504.888M2816 504.888V575.999M2816 575.999V647.11M2816 647.11V718.221M2816 718.221V789.332M2816 789.332V860.443M2816 860.443V931.554M2816 931.554V1002.67M2816 1002.67V1073.78" stroke="var(--stroke-0, #2D3044)" stroke-width="0.888888"/>
<path id="Vector_2" d="M540.444 839.11V881.776M519.11 860.443H561.777" stroke="var(--stroke-0, #424766)" stroke-width="1.77778"/>
<path id="Vector_3" d="M1109.33 839.109V881.776M1088 860.443H1130.67" stroke="var(--stroke-0, #424766)" stroke-width="1.77778"/>
<path id="Vector_4" d="M1678.22 839.11V881.776M1656.89 860.443H1699.55" stroke="var(--stroke-0, #424766)" stroke-width="1.77778"/>
<path id="Vector_5" d="M824.888 839.11V881.777M803.554 860.443H846.221" stroke="var(--stroke-0, #424766)" stroke-width="1.77778"/>
<path id="Vector_6" d="M1393.78 839.109V881.776M1372.44 860.443H1415.11" stroke="var(--stroke-0, #424766)" stroke-width="1.77778"/>
<path id="Vector_7" d="M1962.66 839.109V881.776M1941.33 860.443H1984" stroke="var(--stroke-0, #424766)" stroke-width="1.77778"/>
<path id="Vector_8" d="M471.11 647.11C471.11 648.092 470.314 648.888 469.333 648.888C468.351 648.888 467.555 648.092 467.555 647.11C467.555 646.129 468.351 645.333 469.333 645.333C470.314 645.333 471.11 646.129 471.11 647.11Z" fill="var(--fill-0, #424766)"/>
<path id="Vector_9" d="M471.11 718.222C471.11 719.203 470.314 719.999 469.333 719.999C468.351 719.999 467.555 719.203 467.555 718.222C467.555 717.24 468.351 716.444 469.333 716.444C470.314 716.444 471.11 717.24 471.11 718.222Z" fill="var(--fill-0, #424766)"/>
<path id="Vector_10" d="M471.11 789.332C471.11 790.313 470.314 791.11 469.333 791.11C468.351 791.11 467.555 790.313 467.555 789.332C467.555 788.351 468.351 787.554 469.333 787.554C470.314 787.554 471.11 788.351 471.11 789.332Z" fill="var(--fill-0, #424766)"/>
<path id="Vector_11" d="M471.11 860.443C471.11 861.425 470.314 862.221 469.333 862.221C468.351 862.221 467.555 861.425 467.555 860.443C467.555 859.462 468.351 858.666 469.333 858.666C470.314 858.666 471.11 859.462 471.11 860.443Z" fill="var(--fill-0, #424766)"/>
<path id="Vector_12" d="M399.999 647.11C399.999 648.092 399.203 648.888 398.222 648.888C397.24 648.888 396.444 648.092 396.444 647.11C396.444 646.129 397.24 645.333 398.222 645.333C399.203 645.333 399.999 646.129 399.999 647.11Z" fill="var(--fill-0, #424766)"/>
<path id="Vector_13" d="M399.999 718.222C399.999 719.203 399.203 719.999 398.222 719.999C397.24 719.999 396.444 719.203 396.444 718.222C396.444 717.24 397.24 716.444 398.222 716.444C399.203 716.444 399.999 717.24 399.999 718.222Z" fill="var(--fill-0, #424766)"/>
<path id="Vector_14" d="M399.999 789.332C399.999 790.313 399.203 791.11 398.222 791.11C397.24 791.11 396.444 790.313 396.444 789.332C396.444 788.351 397.24 787.554 398.222 787.554C399.203 787.554 399.999 788.351 399.999 789.332Z" fill="var(--fill-0, #424766)"/>
<path id="Vector_15" d="M399.999 860.443C399.999 861.425 399.203 862.221 398.222 862.221C397.24 862.221 396.444 861.425 396.444 860.443C396.444 859.462 397.24 858.666 398.222 858.666C399.203 858.666 399.999 859.462 399.999 860.443Z" fill="var(--fill-0, #424766)"/>
<path id="Vector_16" d="M328.888 647.11C328.888 648.092 328.092 648.888 327.111 648.888C326.129 648.888 325.333 648.092 325.333 647.11C325.333 646.129 326.129 645.333 327.111 645.333C328.092 645.333 328.888 646.129 328.888 647.11Z" fill="var(--fill-0, #424766)"/>
<path id="Vector_17" d="M328.888 718.222C328.888 719.203 328.092 719.999 327.111 719.999C326.129 719.999 325.333 719.203 325.333 718.222C325.333 717.24 326.129 716.444 327.111 716.444C328.092 716.444 328.888 717.24 328.888 718.222Z" fill="var(--fill-0, #424766)"/>
<path id="Vector_18" d="M328.888 789.332C328.888 790.314 328.092 791.11 327.111 791.11C326.129 791.11 325.333 790.314 325.333 789.332C325.333 788.351 326.129 787.554 327.111 787.554C328.092 787.554 328.888 788.351 328.888 789.332Z" fill="var(--fill-0, #424766)"/>
<path id="Vector_19" d="M257.777 647.11C257.777 648.092 256.981 648.888 256 648.888C255.018 648.888 254.222 648.092 254.222 647.11C254.222 646.129 255.018 645.333 256 645.333C256.981 645.333 257.777 646.129 257.777 647.11Z" fill="var(--fill-0, #424766)"/>
<path id="Vector_20" d="M257.777 718.222C257.777 719.203 256.981 719.999 256 719.999C255.018 719.999 254.222 719.203 254.222 718.222C254.222 717.24 255.018 716.444 256 716.444C256.981 716.444 257.777 717.24 257.777 718.222Z" fill="var(--fill-0, #424766)"/>
<path id="Vector_21" d="M257.777 789.332C257.777 790.314 256.981 791.11 256 791.11C255.018 791.11 254.222 790.314 254.222 789.332C254.222 788.351 255.018 787.554 256 787.554C256.981 787.554 257.777 788.351 257.777 789.332Z" fill="var(--fill-0, #424766)"/>
<path id="Vector_22" d="M186.666 647.11C186.666 648.092 185.87 648.888 184.888 648.888C183.907 648.888 183.111 648.092 183.111 647.11C183.111 646.129 183.907 645.333 184.888 645.333C185.87 645.333 186.666 646.129 186.666 647.11Z" fill="var(--fill-0, #424766)"/>
<path id="Vector_23" d="M186.666 718.222C186.666 719.203 185.87 719.999 184.888 719.999C183.907 719.999 183.111 719.203 183.111 718.222C183.111 717.24 183.907 716.444 184.888 716.444C185.87 716.444 186.666 717.24 186.666 718.222Z" fill="var(--fill-0, #424766)"/>
<path id="Vector_24" d="M542.221 647.11C542.221 648.092 541.425 648.888 540.444 648.888C539.462 648.888 538.666 648.092 538.666 647.11C538.666 646.129 539.462 645.333 540.444 645.333C541.425 645.333 542.221 646.129 542.221 647.11Z" fill="var(--fill-0, #424766)"/>
<path id="Vector_25" d="M542.221 718.222C542.221 719.203 541.425 719.999 540.444 719.999C539.462 719.999 538.666 719.203 538.666 718.222C538.666 717.24 539.462 716.444 540.444 716.444C541.425 716.444 542.221 717.24 542.221 718.222Z" fill="var(--fill-0, #424766)"/>
<path id="Vector_26" d="M542.221 789.332C542.221 790.313 541.425 791.11 540.444 791.11C539.462 791.11 538.666 790.313 538.666 789.332C538.666 788.351 539.462 787.554 540.444 787.554C541.425 787.554 542.221 788.351 542.221 789.332Z" fill="var(--fill-0, #424766)"/>
<path id="Vector_27" d="M542.221 860.443C542.221 861.425 541.425 862.221 540.444 862.221C539.462 862.221 538.666 861.425 538.666 860.443C538.666 859.462 539.462 858.666 540.444 858.666C541.425 858.666 542.221 859.462 542.221 860.443Z" fill="var(--fill-0, #424766)"/>
<path id="Vector_28" d="M613.332 647.11C613.332 648.092 612.536 648.888 611.555 648.888C610.573 648.888 609.777 648.092 609.777 647.11C609.777 646.129 610.573 645.333 611.555 645.333C612.536 645.333 613.332 646.129 613.332 647.11Z" fill="var(--fill-0, #424766)"/>
<path id="Vector_29" d="M613.332 718.222C613.332 719.203 612.536 719.999 611.555 719.999C610.573 719.999 609.777 719.203 609.777 718.222C609.777 717.24 610.573 716.444 611.555 716.444C612.536 716.444 613.332 717.24 613.332 718.222Z" fill="var(--fill-0, #424766)"/>
<path id="Vector_30" d="M613.332 789.332C613.332 790.313 612.536 791.11 611.555 791.11C610.573 791.11 609.777 790.313 609.777 789.332C609.777 788.351 610.573 787.554 611.555 787.554C612.536 787.554 613.332 788.351 613.332 789.332Z" fill="var(--fill-0, #424766)"/>
<path id="Vector_31" d="M613.332 860.443C613.332 861.425 612.536 862.221 611.555 862.221C610.573 862.221 609.777 861.425 609.777 860.443C609.777 859.462 610.573 858.666 611.555 858.666C612.536 858.666 613.332 859.462 613.332 860.443Z" fill="var(--fill-0, #424766)"/>
<path id="Vector_32" d="M684.443 647.11C684.443 648.092 683.647 648.888 682.666 648.888C681.684 648.888 680.888 648.092 680.888 647.11C680.888 646.129 681.684 645.333 682.666 645.333C683.647 645.333 684.443 646.129 684.443 647.11Z" fill="var(--fill-0, #424766)"/>
<path id="Vector_33" d="M684.443 718.222C684.443 719.203 683.647 719.999 682.666 719.999C681.684 719.999 680.888 719.203 680.888 718.222C680.888 717.24 681.684 716.444 682.666 716.444C683.647 716.444 684.443 717.24 684.443 718.222Z" fill="var(--fill-0, #424766)"/>
<path id="Vector_34" d="M684.443 789.332C684.443 790.313 683.647 791.11 682.666 791.11C681.684 791.11 680.888 790.313 680.888 789.332C680.888 788.351 681.684 787.554 682.666 787.554C683.647 787.554 684.443 788.351 684.443 789.332Z" fill="var(--fill-0, #424766)"/>
<path id="Vector_35" d="M684.443 860.443C684.443 861.425 683.647 862.221 682.666 862.221C681.684 862.221 680.888 861.425 680.888 860.443C680.888 859.462 681.684 858.666 682.666 858.666C683.647 858.666 684.443 859.462 684.443 860.443Z" fill="var(--fill-0, #424766)"/>
<path id="Vector_36" d="M755.554 647.11C755.554 648.092 754.758 648.888 753.777 648.888C752.795 648.888 751.999 648.092 751.999 647.11C751.999 646.129 752.795 645.333 753.777 645.333C754.758 645.333 755.554 646.129 755.554 647.11Z" fill="var(--fill-0, #424766)"/>
<path id="Vector_37" d="M755.554 718.222C755.554 719.203 754.758 719.999 753.777 719.999C752.795 719.999 751.999 719.203 751.999 718.222C751.999 717.24 752.795 716.444 753.777 716.444C754.758 716.444 755.554 717.24 755.554 718.222Z" fill="var(--fill-0, #424766)"/>
<path id="Vector_38" d="M755.554 789.332C755.554 790.313 754.758 791.11 753.777 791.11C752.795 791.11 751.999 790.313 751.999 789.332C751.999 788.351 752.795 787.554 753.777 787.554C754.758 787.554 755.554 788.351 755.554 789.332Z" fill="var(--fill-0, #424766)"/>
<path id="Vector_39" d="M755.554 860.443C755.554 861.425 754.758 862.221 753.777 862.221C752.795 862.221 751.999 861.425 751.999 860.443C751.999 859.462 752.795 858.666 753.777 858.666C754.758 858.666 755.554 859.462 755.554 860.443Z" fill="var(--fill-0, #424766)"/>
<path id="Vector_40" d="M826.665 647.11C826.665 648.092 825.869 648.888 824.888 648.888C823.906 648.888 823.11 648.092 823.11 647.11C823.11 646.129 823.906 645.333 824.888 645.333C825.869 645.333 826.665 646.129 826.665 647.11Z" fill="var(--fill-0, #424766)"/>
<path id="Vector_41" d="M826.665 718.222C826.665 719.203 825.869 719.999 824.888 719.999C823.906 719.999 823.11 719.203 823.11 718.222C823.11 717.24 823.906 716.444 824.888 716.444C825.869 716.444 826.665 717.24 826.665 718.222Z" fill="var(--fill-0, #424766)"/>
<path id="Vector_42" d="M826.665 789.332C826.665 790.313 825.869 791.11 824.888 791.11C823.906 791.11 823.11 790.313 823.11 789.332C823.11 788.351 823.906 787.554 824.888 787.554C825.869 787.554 826.665 788.351 826.665 789.332Z" fill="var(--fill-0, #424766)"/>
<path id="Vector_43" d="M826.665 860.443C826.665 861.425 825.869 862.221 824.888 862.221C823.906 862.221 823.11 861.425 823.11 860.443C823.11 859.462 823.906 858.666 824.888 858.666C825.869 858.666 826.665 859.462 826.665 860.443Z" fill="var(--fill-0, #424766)"/>
<path id="Vector_44" d="M897.776 647.11C897.776 648.092 896.98 648.888 895.999 648.888C895.017 648.888 894.221 648.092 894.221 647.11C894.221 646.129 895.017 645.333 895.999 645.333C896.98 645.333 897.776 646.129 897.776 647.11Z" fill="var(--fill-0, #424766)"/>
<path id="Vector_45" d="M897.776 718.222C897.776 719.203 896.98 719.999 895.999 719.999C895.017 719.999 894.221 719.203 894.221 718.222C894.221 717.24 895.017 716.444 895.999 716.444C896.98 716.444 897.776 717.24 897.776 718.222Z" fill="var(--fill-0, #424766)"/>
<path id="Vector_46" d="M897.776 789.332C897.776 790.313 896.98 791.11 895.999 791.11C895.017 791.11 894.221 790.313 894.221 789.332C894.221 788.351 895.017 787.554 895.999 787.554C896.98 787.554 897.776 788.351 897.776 789.332Z" fill="var(--fill-0, #424766)"/>
<path id="Vector_47" d="M897.776 860.443C897.776 861.425 896.98 862.221 895.999 862.221C895.017 862.221 894.221 861.425 894.221 860.443C894.221 859.462 895.017 858.666 895.999 858.666C896.98 858.666 897.776 859.462 897.776 860.443Z" fill="var(--fill-0, #424766)"/>
<path id="Vector_48" d="M968.887 647.11C968.887 648.092 968.091 648.888 967.11 648.888C966.128 648.888 965.332 648.092 965.332 647.11C965.332 646.129 966.128 645.333 967.11 645.333C968.091 645.333 968.887 646.129 968.887 647.11Z" fill="var(--fill-0, #424766)"/>
<path id="Vector_49" d="M968.887 718.222C968.887 719.203 968.091 719.999 967.11 719.999C966.128 719.999 965.332 719.203 965.332 718.222C965.332 717.24 966.128 716.444 967.11 716.444C968.091 716.444 968.887 717.24 968.887 718.222Z" fill="var(--fill-0, #424766)"/>
<path id="Vector_50" d="M968.887 789.332C968.887 790.313 968.091 791.11 967.11 791.11C966.128 791.11 965.332 790.313 965.332 789.332C965.332 788.351 966.128 787.554 967.11 787.554C968.091 787.554 968.887 788.351 968.887 789.332Z" fill="var(--fill-0, #424766)"/>
<path id="Vector_51" d="M968.887 860.443C968.887 861.425 968.091 862.221 967.11 862.221C966.128 862.221 965.332 861.425 965.332 860.443C965.332 859.462 966.128 858.666 967.11 858.666C968.091 858.666 968.887 859.462 968.887 860.443Z" fill="var(--fill-0, #424766)"/>
<path id="Vector_52" d="M1040 647.11C1040 648.092 1039.2 648.888 1038.22 648.888C1037.24 648.888 1036.44 648.092 1036.44 647.11C1036.44 646.129 1037.24 645.333 1038.22 645.333C1039.2 645.333 1040 646.129 1040 647.11Z" fill="var(--fill-0, #424766)"/>
<path id="Vector_53" d="M1040 718.222C1040 719.203 1039.2 719.999 1038.22 719.999C1037.24 719.999 1036.44 719.203 1036.44 718.222C1036.44 717.24 1037.24 716.444 1038.22 716.444C1039.2 716.444 1040 717.24 1040 718.222Z" fill="var(--fill-0, #424766)"/>
<path id="Vector_54" d="M1040 789.332C1040 790.313 1039.2 791.11 1038.22 791.11C1037.24 791.11 1036.44 790.313 1036.44 789.332C1036.44 788.351 1037.24 787.554 1038.22 787.554C1039.2 787.554 1040 788.351 1040 789.332Z" fill="var(--fill-0, #424766)"/>
<path id="Vector_55" d="M1040 860.443C1040 861.425 1039.2 862.221 1038.22 862.221C1037.24 862.221 1036.44 861.425 1036.44 860.443C1036.44 859.462 1037.24 858.666 1038.22 858.666C1039.2 858.666 1040 859.462 1040 860.443Z" fill="var(--fill-0, #424766)"/>
<path id="Vector_56" d="M1111.11 647.11C1111.11 648.092 1110.31 648.888 1109.33 648.888C1108.35 648.888 1107.55 648.092 1107.55 647.11C1107.55 646.129 1108.35 645.333 1109.33 645.333C1110.31 645.333 1111.11 646.129 1111.11 647.11Z" fill="var(--fill-0, #424766)"/>
<path id="Vector_57" d="M1111.11 718.222C1111.11 719.203 1110.31 719.999 1109.33 719.999C1108.35 719.999 1107.55 719.203 1107.55 718.222C1107.55 717.24 1108.35 716.444 1109.33 716.444C1110.31 716.444 1111.11 717.24 1111.11 718.222Z" fill="var(--fill-0, #424766)"/>
<path id="Vector_58" d="M1111.11 789.332C1111.11 790.313 1110.31 791.11 1109.33 791.11C1108.35 791.11 1107.55 790.313 1107.55 789.332C1107.55 788.351 1108.35 787.554 1109.33 787.554C1110.31 787.554 1111.11 788.351 1111.11 789.332Z" fill="var(--fill-0, #424766)"/>
<path id="Vector_59" d="M1111.11 860.443C1111.11 861.425 1110.31 862.221 1109.33 862.221C1108.35 862.221 1107.55 861.425 1107.55 860.443C1107.55 859.462 1108.35 858.666 1109.33 858.666C1110.31 858.666 1111.11 859.462 1111.11 860.443Z" fill="var(--fill-0, #424766)"/>
<path id="Vector_60" d="M1182.22 647.11C1182.22 648.092 1181.42 648.888 1180.44 648.888C1179.46 648.888 1178.66 648.092 1178.66 647.11C1178.66 646.129 1179.46 645.333 1180.44 645.333C1181.42 645.333 1182.22 646.129 1182.22 647.11Z" fill="var(--fill-0, #424766)"/>
<path id="Vector_61" d="M1182.22 718.222C1182.22 719.203 1181.42 719.999 1180.44 719.999C1179.46 719.999 1178.66 719.203 1178.66 718.222C1178.66 717.24 1179.46 716.444 1180.44 716.444C1181.42 716.444 1182.22 717.24 1182.22 718.222Z" fill="var(--fill-0, #424766)"/>
<path id="Vector_62" d="M1182.22 789.332C1182.22 790.313 1181.42 791.11 1180.44 791.11C1179.46 791.11 1178.66 790.313 1178.66 789.332C1178.66 788.351 1179.46 787.554 1180.44 787.554C1181.42 787.554 1182.22 788.351 1182.22 789.332Z" fill="var(--fill-0, #424766)"/>
<path id="Vector_63" d="M1182.22 860.443C1182.22 861.425 1181.42 862.221 1180.44 862.221C1179.46 862.221 1178.66 861.425 1178.66 860.443C1178.66 859.462 1179.46 858.666 1180.44 858.666C1181.42 858.666 1182.22 859.462 1182.22 860.443Z" fill="var(--fill-0, #424766)"/>
<path id="Vector_64" d="M1253.33 647.11C1253.33 648.092 1252.53 648.888 1251.55 648.888C1250.57 648.888 1249.78 648.092 1249.78 647.11C1249.78 646.129 1250.57 645.333 1251.55 645.333C1252.53 645.333 1253.33 646.129 1253.33 647.11Z" fill="var(--fill-0, #424766)"/>
<path id="Vector_65" d="M1253.33 718.222C1253.33 719.203 1252.53 719.999 1251.55 719.999C1250.57 719.999 1249.78 719.203 1249.78 718.222C1249.78 717.24 1250.57 716.444 1251.55 716.444C1252.53 716.444 1253.33 717.24 1253.33 718.222Z" fill="var(--fill-0, #424766)"/>
<path id="Vector_66" d="M1253.33 789.332C1253.33 790.313 1252.53 791.11 1251.55 791.11C1250.57 791.11 1249.78 790.313 1249.78 789.332C1249.78 788.351 1250.57 787.554 1251.55 787.554C1252.53 787.554 1253.33 788.351 1253.33 789.332Z" fill="var(--fill-0, #424766)"/>
<path id="Vector_67" d="M1253.33 860.443C1253.33 861.425 1252.53 862.221 1251.55 862.221C1250.57 862.221 1249.78 861.425 1249.78 860.443C1249.78 859.462 1250.57 858.666 1251.55 858.666C1252.53 858.666 1253.33 859.462 1253.33 860.443Z" fill="var(--fill-0, #424766)"/>
<path id="Vector_68" d="M1324.44 647.11C1324.44 648.092 1323.65 648.888 1322.66 648.888C1321.68 648.888 1320.89 648.092 1320.89 647.11C1320.89 646.129 1321.68 645.333 1322.66 645.333C1323.65 645.333 1324.44 646.129 1324.44 647.11Z" fill="var(--fill-0, #424766)"/>
<path id="Vector_69" d="M1324.44 718.222C1324.44 719.203 1323.65 719.999 1322.66 719.999C1321.68 719.999 1320.89 719.203 1320.89 718.222C1320.89 717.24 1321.68 716.444 1322.66 716.444C1323.65 716.444 1324.44 717.24 1324.44 718.222Z" fill="var(--fill-0, #424766)"/>
<path id="Vector_70" d="M1324.44 789.332C1324.44 790.313 1323.65 791.11 1322.66 791.11C1321.68 791.11 1320.89 790.313 1320.89 789.332C1320.89 788.351 1321.68 787.554 1322.66 787.554C1323.65 787.554 1324.44 788.351 1324.44 789.332Z" fill="var(--fill-0, #424766)"/>
<path id="Vector_71" d="M1324.44 860.443C1324.44 861.425 1323.65 862.221 1322.66 862.221C1321.68 862.221 1320.89 861.425 1320.89 860.443C1320.89 859.462 1321.68 858.665 1322.66 858.665C1323.65 858.665 1324.44 859.462 1324.44 860.443Z" fill="var(--fill-0, #424766)"/>
<path id="Vector_72" d="M1395.55 647.11C1395.55 648.092 1394.76 648.888 1393.78 648.888C1392.79 648.888 1392 648.092 1392 647.11C1392 646.129 1392.79 645.333 1393.78 645.333C1394.76 645.333 1395.55 646.129 1395.55 647.11Z" fill="var(--fill-0, #424766)"/>
<path id="Vector_73" d="M1395.55 718.222C1395.55 719.203 1394.76 719.999 1393.78 719.999C1392.79 719.999 1392 719.203 1392 718.222C1392 717.24 1392.79 716.444 1393.78 716.444C1394.76 716.444 1395.55 717.24 1395.55 718.222Z" fill="var(--fill-0, #424766)"/>
<path id="Vector_74" d="M1395.55 789.332C1395.55 790.313 1394.76 791.11 1393.78 791.11C1392.79 791.11 1392 790.313 1392 789.332C1392 788.351 1392.79 787.554 1393.78 787.554C1394.76 787.554 1395.55 788.351 1395.55 789.332Z" fill="var(--fill-0, #424766)"/>
<path id="Vector_75" d="M1395.55 860.443C1395.55 861.425 1394.76 862.221 1393.78 862.221C1392.79 862.221 1392 861.425 1392 860.443C1392 859.462 1392.79 858.665 1393.78 858.665C1394.76 858.665 1395.55 859.462 1395.55 860.443Z" fill="var(--fill-0, #424766)"/>
<path id="Vector_76" d="M1466.66 647.11C1466.66 648.092 1465.87 648.888 1464.89 648.888C1463.91 648.888 1463.11 648.092 1463.11 647.11C1463.11 646.129 1463.91 645.333 1464.89 645.333C1465.87 645.333 1466.66 646.129 1466.66 647.11Z" fill="var(--fill-0, #424766)"/>
<path id="Vector_77" d="M1466.66 718.222C1466.66 719.203 1465.87 719.999 1464.89 719.999C1463.91 719.999 1463.11 719.203 1463.11 718.222C1463.11 717.24 1463.91 716.444 1464.89 716.444C1465.87 716.444 1466.66 717.24 1466.66 718.222Z" fill="var(--fill-0, #424766)"/>
<path id="Vector_78" d="M1466.66 789.332C1466.66 790.313 1465.87 791.11 1464.89 791.11C1463.91 791.11 1463.11 790.313 1463.11 789.332C1463.11 788.351 1463.91 787.554 1464.89 787.554C1465.87 787.554 1466.66 788.351 1466.66 789.332Z" fill="var(--fill-0, #424766)"/>
<path id="Vector_79" d="M1466.66 860.443C1466.66 861.425 1465.87 862.221 1464.89 862.221C1463.91 862.221 1463.11 861.425 1463.11 860.443C1463.11 859.462 1463.91 858.665 1464.89 858.665C1465.87 858.665 1466.66 859.462 1466.66 860.443Z" fill="var(--fill-0, #424766)"/>
<path id="Vector_80" d="M1537.78 647.11C1537.78 648.092 1536.98 648.888 1536 648.888C1535.02 648.888 1534.22 648.092 1534.22 647.11C1534.22 646.129 1535.02 645.333 1536 645.333C1536.98 645.333 1537.78 646.129 1537.78 647.11Z" fill="var(--fill-0, #424766)"/>
<path id="Vector_81" d="M1537.78 718.222C1537.78 719.203 1536.98 719.999 1536 719.999C1535.02 719.999 1534.22 719.203 1534.22 718.222C1534.22 717.24 1535.02 716.444 1536 716.444C1536.98 716.444 1537.78 717.24 1537.78 718.222Z" fill="var(--fill-0, #424766)"/>
<path id="Vector_82" d="M1537.78 789.332C1537.78 790.313 1536.98 791.11 1536 791.11C1535.02 791.11 1534.22 790.313 1534.22 789.332C1534.22 788.351 1535.02 787.554 1536 787.554C1536.98 787.554 1537.78 788.351 1537.78 789.332Z" fill="var(--fill-0, #424766)"/>
<path id="Vector_83" d="M1537.78 860.443C1537.78 861.425 1536.98 862.221 1536 862.221C1535.02 862.221 1534.22 861.425 1534.22 860.443C1534.22 859.462 1535.02 858.665 1536 858.665C1536.98 858.665 1537.78 859.462 1537.78 860.443Z" fill="var(--fill-0, #424766)"/>
<path id="Vector_84" d="M186.666 575.999C186.666 575.018 185.87 574.221 184.889 574.221C183.907 574.221 183.111 575.018 183.111 575.999C183.111 576.98 183.907 577.777 184.889 577.777C185.87 577.777 186.666 576.98 186.666 575.999Z" fill="var(--fill-0, #424766)"/>
<path id="Vector_85" d="M2316.44 647.11C2316.44 648.092 2317.24 648.888 2318.22 648.888C2319.2 648.888 2320 648.092 2320 647.11C2320 646.129 2319.2 645.333 2318.22 645.333C2317.24 645.333 2316.44 646.129 2316.44 647.11Z" fill="var(--fill-0, #424766)"/>
<path id="Vector_86" d="M2316.44 718.221C2316.44 719.203 2317.24 719.999 2318.22 719.999C2319.2 719.999 2320 719.203 2320 718.221C2320 717.24 2319.2 716.444 2318.22 716.444C2317.24 716.444 2316.44 717.24 2316.44 718.221Z" fill="var(--fill-0, #424766)"/>
<path id="Vector_87" d="M2245.33 647.11C2245.33 648.092 2246.13 648.888 2247.11 648.888C2248.09 648.888 2248.89 648.092 2248.89 647.11C2248.89 646.129 2248.09 645.333 2247.11 645.333C2246.13 645.333 2245.33 646.129 2245.33 647.11Z" fill="var(--fill-0, #424766)"/>
<path id="Vector_88" d="M2245.33 718.221C2245.33 719.203 2246.13 719.999 2247.11 719.999C2248.09 719.999 2248.89 719.203 2248.89 718.221C2248.89 717.24 2248.09 716.444 2247.11 716.444C2246.13 716.444 2245.33 717.24 2245.33 718.221Z" fill="var(--fill-0, #424766)"/>
<path id="Vector_89" d="M2245.33 789.332C2245.33 790.313 2246.13 791.11 2247.11 791.11C2248.09 791.11 2248.89 790.313 2248.89 789.332C2248.89 788.351 2248.09 787.554 2247.11 787.554C2246.13 787.554 2245.33 788.351 2245.33 789.332Z" fill="var(--fill-0, #424766)"/>
<path id="Vector_90" d="M2174.22 647.11C2174.22 648.092 2175.02 648.888 2176 648.888C2176.97 648.888 2177.77 648.092 2177.77 647.11C2177.77 646.129 2176.97 645.333 2176 645.333C2175.02 645.333 2174.22 646.129 2174.22 647.11Z" fill="var(--fill-0, #424766)"/>
<path id="Vector_91" d="M2174.22 718.221C2174.22 719.203 2175.02 719.999 2176 719.999C2176.97 719.999 2177.77 719.203 2177.77 718.221C2177.77 717.24 2176.97 716.444 2176 716.444C2175.02 716.444 2174.22 717.24 2174.22 718.221Z" fill="var(--fill-0, #424766)"/>
<path id="Vector_92" d="M2174.22 789.332C2174.22 790.313 2175.02 791.11 2176 791.11C2176.97 791.11 2177.77 790.313 2177.77 789.332C2177.77 788.351 2176.97 787.554 2176 787.554C2175.02 787.554 2174.22 788.351 2174.22 789.332Z" fill="var(--fill-0, #424766)"/>
<path id="Vector_93" d="M2103.11 647.11C2103.11 648.092 2103.91 648.888 2104.89 648.888C2105.86 648.888 2106.66 648.092 2106.66 647.11C2106.66 646.129 2105.86 645.333 2104.89 645.333C2103.91 645.333 2103.11 646.129 2103.11 647.11Z" fill="var(--fill-0, #424766)"/>
<path id="Vector_94" d="M2103.11 718.221C2103.11 719.203 2103.91 719.999 2104.89 719.999C2105.86 719.999 2106.66 719.203 2106.66 718.221C2106.66 717.24 2105.86 716.444 2104.89 716.444C2103.91 716.444 2103.11 717.24 2103.11 718.221Z" fill="var(--fill-0, #424766)"/>
<path id="Vector_95" d="M2103.11 789.332C2103.11 790.313 2103.91 791.11 2104.89 791.11C2105.86 791.11 2106.66 790.313 2106.66 789.332C2106.66 788.351 2105.86 787.554 2104.89 787.554C2103.91 787.554 2103.11 788.351 2103.11 789.332Z" fill="var(--fill-0, #424766)"/>
<path id="Vector_96" d="M2103.11 860.443C2103.11 861.425 2103.91 862.221 2104.89 862.221C2105.86 862.221 2106.66 861.425 2106.66 860.443C2106.66 859.462 2105.86 858.665 2104.89 858.665C2103.91 858.665 2103.11 859.462 2103.11 860.443Z" fill="var(--fill-0, #424766)"/>
<path id="Vector_97" d="M2032 647.11C2032 648.092 2032.8 648.888 2033.77 648.888C2034.75 648.888 2035.55 648.092 2035.55 647.11C2035.55 646.129 2034.75 645.333 2033.77 645.333C2032.8 645.333 2032 646.129 2032 647.11Z" fill="var(--fill-0, #424766)"/>
<path id="Vector_98" d="M2032 718.221C2032 719.203 2032.8 719.999 2033.77 719.999C2034.75 719.999 2035.55 719.203 2035.55 718.221C2035.55 717.24 2034.75 716.444 2033.77 716.444C2032.8 716.444 2032 717.24 2032 718.221Z" fill="var(--fill-0, #424766)"/>
<path id="Vector_99" d="M2032 789.332C2032 790.313 2032.8 791.11 2033.77 791.11C2034.75 791.11 2035.55 790.313 2035.55 789.332C2035.55 788.351 2034.75 787.554 2033.77 787.554C2032.8 787.554 2032 788.351 2032 789.332Z" fill="var(--fill-0, #424766)"/>
<path id="Vector_100" d="M2032 860.443C2032 861.425 2032.8 862.221 2033.77 862.221C2034.75 862.221 2035.55 861.425 2035.55 860.443C2035.55 859.462 2034.75 858.665 2033.77 858.665C2032.8 858.665 2032 859.462 2032 860.443Z" fill="var(--fill-0, #424766)"/>
<path id="Vector_101" d="M1960.89 647.11C1960.89 648.092 1961.69 648.888 1962.66 648.888C1963.64 648.888 1964.44 648.092 1964.44 647.11C1964.44 646.129 1963.64 645.333 1962.66 645.333C1961.69 645.333 1960.89 646.129 1960.89 647.11Z" fill="var(--fill-0, #424766)"/>
<path id="Vector_102" d="M1960.89 718.221C1960.89 719.203 1961.69 719.999 1962.66 719.999C1963.64 719.999 1964.44 719.203 1964.44 718.221C1964.44 717.24 1963.64 716.444 1962.66 716.444C1961.69 716.444 1960.89 717.24 1960.89 718.221Z" fill="var(--fill-0, #424766)"/>
<path id="Vector_103" d="M1960.89 789.332C1960.89 790.313 1961.69 791.11 1962.66 791.11C1963.64 791.11 1964.44 790.313 1964.44 789.332C1964.44 788.351 1963.64 787.554 1962.66 787.554C1961.69 787.554 1960.89 788.351 1960.89 789.332Z" fill="var(--fill-0, #424766)"/>
<path id="Vector_104" d="M1960.89 860.443C1960.89 861.425 1961.69 862.221 1962.66 862.221C1963.64 862.221 1964.44 861.425 1964.44 860.443C1964.44 859.462 1963.64 858.665 1962.66 858.665C1961.69 858.665 1960.89 859.462 1960.89 860.443Z" fill="var(--fill-0, #424766)"/>
<path id="Vector_105" d="M1889.78 647.11C1889.78 648.092 1890.58 648.888 1891.55 648.888C1892.53 648.888 1893.33 648.092 1893.33 647.11C1893.33 646.129 1892.53 645.333 1891.55 645.333C1890.58 645.333 1889.78 646.129 1889.78 647.11Z" fill="var(--fill-0, #424766)"/>
<path id="Vector_106" d="M1889.78 718.221C1889.78 719.203 1890.58 719.999 1891.55 719.999C1892.53 719.999 1893.33 719.203 1893.33 718.221C1893.33 717.24 1892.53 716.444 1891.55 716.444C1890.58 716.444 1889.78 717.24 1889.78 718.221Z" fill="var(--fill-0, #424766)"/>
<path id="Vector_107" d="M1889.78 789.332C1889.78 790.313 1890.58 791.11 1891.55 791.11C1892.53 791.11 1893.33 790.313 1893.33 789.332C1893.33 788.351 1892.53 787.554 1891.55 787.554C1890.58 787.554 1889.78 788.351 1889.78 789.332Z" fill="var(--fill-0, #424766)"/>
<path id="Vector_108" d="M1889.78 860.443C1889.78 861.425 1890.58 862.221 1891.55 862.221C1892.53 862.221 1893.33 861.425 1893.33 860.443C1893.33 859.462 1892.53 858.665 1891.55 858.665C1890.58 858.665 1889.78 859.462 1889.78 860.443Z" fill="var(--fill-0, #424766)"/>
<path id="Vector_109" d="M1818.66 647.11C1818.66 648.092 1819.46 648.888 1820.44 648.888C1821.42 648.888 1822.22 648.092 1822.22 647.11C1822.22 646.129 1821.42 645.333 1820.44 645.333C1819.46 645.333 1818.66 646.129 1818.66 647.11Z" fill="var(--fill-0, #424766)"/>
<path id="Vector_110" d="M1818.66 718.221C1818.66 719.203 1819.46 719.999 1820.44 719.999C1821.42 719.999 1822.22 719.203 1822.22 718.221C1822.22 717.24 1821.42 716.444 1820.44 716.444C1819.46 716.444 1818.66 717.24 1818.66 718.221Z" fill="var(--fill-0, #424766)"/>
<path id="Vector_111" d="M1818.66 789.332C1818.66 790.313 1819.46 791.11 1820.44 791.11C1821.42 791.11 1822.22 790.313 1822.22 789.332C1822.22 788.351 1821.42 787.554 1820.44 787.554C1819.46 787.554 1818.66 788.351 1818.66 789.332Z" fill="var(--fill-0, #424766)"/>
<path id="Vector_112" d="M1818.66 860.443C1818.66 861.425 1819.46 862.221 1820.44 862.221C1821.42 862.221 1822.22 861.425 1822.22 860.443C1822.22 859.462 1821.42 858.665 1820.44 858.665C1819.46 858.665 1818.66 859.462 1818.66 860.443Z" fill="var(--fill-0, #424766)"/>
<path id="Vector_113" d="M1747.55 647.11C1747.55 648.092 1748.35 648.888 1749.33 648.888C1750.31 648.888 1751.11 648.092 1751.11 647.11C1751.11 646.129 1750.31 645.333 1749.33 645.333C1748.35 645.333 1747.55 646.129 1747.55 647.11Z" fill="var(--fill-0, #424766)"/>
<path id="Vector_114" d="M1747.55 718.221C1747.55 719.203 1748.35 719.999 1749.33 719.999C1750.31 719.999 1751.11 719.203 1751.11 718.221C1751.11 717.24 1750.31 716.444 1749.33 716.444C1748.35 716.444 1747.55 717.24 1747.55 718.221Z" fill="var(--fill-0, #424766)"/>
<path id="Vector_115" d="M1747.55 789.332C1747.55 790.313 1748.35 791.11 1749.33 791.11C1750.31 791.11 1751.11 790.313 1751.11 789.332C1751.11 788.351 1750.31 787.554 1749.33 787.554C1748.35 787.554 1747.55 788.351 1747.55 789.332Z" fill="var(--fill-0, #424766)"/>
<path id="Vector_116" d="M1747.55 860.443C1747.55 861.425 1748.35 862.221 1749.33 862.221C1750.31 862.221 1751.11 861.425 1751.11 860.443C1751.11 859.462 1750.31 858.665 1749.33 858.665C1748.35 858.665 1747.55 859.462 1747.55 860.443Z" fill="var(--fill-0, #424766)"/>
<path id="Vector_117" d="M1676.44 647.11C1676.44 648.092 1677.24 648.888 1678.22 648.888C1679.2 648.888 1680 648.092 1680 647.11C1680 646.129 1679.2 645.333 1678.22 645.333C1677.24 645.333 1676.44 646.129 1676.44 647.11Z" fill="var(--fill-0, #424766)"/>
<path id="Vector_118" d="M1676.44 718.221C1676.44 719.203 1677.24 719.999 1678.22 719.999C1679.2 719.999 1680 719.203 1680 718.221C1680 717.24 1679.2 716.444 1678.22 716.444C1677.24 716.444 1676.44 717.24 1676.44 718.221Z" fill="var(--fill-0, #424766)"/>
<path id="Vector_119" d="M1676.44 789.332C1676.44 790.313 1677.24 791.11 1678.22 791.11C1679.2 791.11 1680 790.313 1680 789.332C1680 788.351 1679.2 787.554 1678.22 787.554C1677.24 787.554 1676.44 788.351 1676.44 789.332Z" fill="var(--fill-0, #424766)"/>
<path id="Vector_120" d="M1676.44 860.443C1676.44 861.425 1677.24 862.221 1678.22 862.221C1679.2 862.221 1680 861.425 1680 860.443C1680 859.462 1679.2 858.665 1678.22 858.665C1677.24 858.665 1676.44 859.462 1676.44 860.443Z" fill="var(--fill-0, #424766)"/>
<path id="Vector_121" d="M1605.33 647.11C1605.33 648.092 1606.13 648.888 1607.11 648.888C1608.09 648.888 1608.89 648.092 1608.89 647.11C1608.89 646.129 1608.09 645.333 1607.11 645.333C1606.13 645.333 1605.33 646.129 1605.33 647.11Z" fill="var(--fill-0, #424766)"/>
<path id="Vector_122" d="M1605.33 718.221C1605.33 719.203 1606.13 719.999 1607.11 719.999C1608.09 719.999 1608.89 719.203 1608.89 718.221C1608.89 717.24 1608.09 716.444 1607.11 716.444C1606.13 716.444 1605.33 717.24 1605.33 718.221Z" fill="var(--fill-0, #424766)"/>
<path id="Vector_123" d="M1605.33 789.332C1605.33 790.313 1606.13 791.11 1607.11 791.11C1608.09 791.11 1608.89 790.313 1608.89 789.332C1608.89 788.351 1608.09 787.554 1607.11 787.554C1606.13 787.554 1605.33 788.351 1605.33 789.332Z" fill="var(--fill-0, #424766)"/>
<path id="Vector_124" d="M1605.33 860.443C1605.33 861.425 1606.13 862.221 1607.11 862.221C1608.09 862.221 1608.89 861.425 1608.89 860.443C1608.89 859.462 1608.09 858.665 1607.11 858.665C1606.13 858.665 1605.33 859.462 1605.33 860.443Z" fill="var(--fill-0, #424766)"/>
<path id="Vector_125" d="M2316.44 575.999C2316.44 575.018 2317.24 574.222 2318.22 574.222C2319.2 574.222 2320 575.018 2320 575.999C2320 576.981 2319.2 577.777 2318.22 577.777C2317.24 577.777 2316.44 576.981 2316.44 575.999Z" fill="var(--fill-0, #424766)"/>
</g>
<defs>
<clipPath id="clip0_0_4">
<rect width="2503.11" height="1146.67" fill="white"/>
</clipPath>
</defs>
</svg>
