<svg preserveAspectRatio="none" width="100%" height="100%" overflow="visible" style="display: block;" viewBox="0 0 135 180" fill="none" xmlns="http://www.w3.org/2000/svg">
<g id="petavue logo 1" clip-path="url(#clip0_0_240)">
<path id="Vector" d="M67.5 0.5C104.489 0.500001 134.5 31.4402 134.5 69.6396C134.5 107.839 104.489 138.778 67.5 138.778C63.7501 138.778 60.0726 138.461 56.4912 137.85L55.7764 137.724C54.6212 137.513 53.4236 137.813 52.5098 138.584L5.28223 178.43C3.39016 180.026 0.5 178.663 0.5 176.07V149.906C0.500037 149.519 0.669271 149.157 0.953125 148.918V148.917L25.2412 128.479V128.591L26.0635 127.897L36.8584 118.79C43.5961 113.105 52.1493 111.112 60.0713 112.555C62.4655 112.991 64.9466 113.222 67.5 113.222C90.8533 113.222 109.759 93.6945 109.759 69.6396C109.759 45.5848 90.8534 26.0576 67.5 26.0576C44.1467 26.0576 25.2412 45.5848 25.2412 69.6396V90.0186C25.2412 92.0023 24.3766 93.8761 22.8936 95.124L2.47852 112.302C1.70663 112.951 0.5 112.411 0.5 111.312V69.6396C0.5 31.4402 30.5115 0.5 67.5 0.5Z" stroke="#8E93AF" stroke-width="2"/>
</g>
<defs>
<clipPath id="clip0_0_240">
<rect width="135" height="180" fill="white"/>
</clipPath>
</defs>
</svg>
