<svg width="640" height="232" viewBox="0 0 640 232" fill="none" xmlns="http://www.w3.org/2000/svg">
<g clip-path="url(#clip0_3_669)">
<rect width="640" height="232" fill="#F5F8FF"/>
<circle cx="320" cy="102" r="95.0088" stroke="#EEF0F7"/>
<circle cx="320" cy="102" r="124.173" stroke="#EEF0F7"/>
<circle cx="320" cy="102" r="151.958" stroke="#EEF0F7"/>
<circle cx="320" cy="102" r="179.327" stroke="#EEF0F7"/>
<circle cx="320" cy="102" r="205.833" stroke="#EEF0F7"/>
<circle cx="320" cy="102" r="230.885" stroke="#EEF0F7"/>
<circle cx="320" cy="102.001" r="256.085" stroke="#EEF0F7"/>
<circle cx="320" cy="102" r="287.238" stroke="#EEF0F7"/>
<g clip-path="url(#clip1_3_669)">
<g clip-path="url(#clip2_3_669)">
<path d="M320 151.518C347.348 151.518 369.518 129.348 369.518 102C369.518 74.652 347.348 52.4819 320 52.4819C292.652 52.4819 270.482 74.652 270.482 102C270.482 129.348 292.652 151.518 320 151.518Z" fill="#0067D6"/>
<path d="M320 151.518C347.348 151.518 369.518 129.348 369.518 102C369.518 74.652 347.348 52.4819 320 52.4819C292.652 52.4819 270.482 74.652 270.482 102C270.482 129.348 292.652 151.518 320 151.518Z" fill="url(#paint0_linear_3_669)"/>
<path d="M320 143.265C342.79 143.265 361.265 124.79 361.265 102C361.265 79.2098 342.79 60.7347 320 60.7347C297.21 60.7347 278.735 79.2098 278.735 102C278.735 124.79 297.21 143.265 320 143.265Z" fill="#0067D6"/>
<path d="M320 143.265C342.79 143.265 361.265 124.79 361.265 102C361.265 79.2098 342.79 60.7347 320 60.7347C297.21 60.7347 278.735 79.2098 278.735 102C278.735 124.79 297.21 143.265 320 143.265Z" fill="url(#paint1_linear_3_669)"/>
<path d="M289.493 98.9934L294.926 83.9258H298.745L304.178 98.9934H300.825L299.722 95.7888H293.928L292.825 98.9934H289.493ZM294.841 93.1361H298.83L296.835 87.3212L294.841 93.1361ZM305.434 83.9258H308.66V98.9934H305.434V83.9258ZM323.897 93.5605C323.282 97.2107 320.948 99.3328 317.34 99.3328C312.883 99.3328 310.082 95.9587 310.082 91.4807C310.082 87.0028 312.883 83.5861 317.34 83.5861C320.799 83.5861 323.176 85.6235 323.834 89.1039L320.481 89.2524C320.099 87.3638 318.931 86.3026 317.276 86.3026C314.623 86.3026 313.393 88.5309 313.393 91.4807C313.393 94.4095 314.645 96.6165 317.276 96.6165C319.038 96.6165 320.184 95.4704 320.523 93.4332L323.897 93.5605ZM331.255 83.9258C334.863 83.9258 337.049 85.7933 337.049 88.8493C337.049 91.9051 334.863 93.794 331.255 93.794H328.454V98.9934H325.228V83.9258H331.255ZM328.454 91.0777H331.064C332.762 91.0777 333.738 90.3136 333.738 88.8493C333.738 87.3848 332.762 86.6421 331.064 86.6421H328.454V91.0777ZM335.816 98.9934L341.249 83.9258H345.068L350.501 98.9934H347.148L346.045 95.7888H340.251L339.147 98.9934H335.816ZM341.164 93.1361H345.153L343.158 87.3212L341.164 93.1361ZM295.561 116.162C295.837 117.775 296.983 118.836 298.872 118.836C300.315 118.836 301.291 118.263 301.27 117.159C301.249 116.056 300.315 115.419 297.959 114.846C294.691 114.061 292.59 112.745 292.59 110.326C292.59 107.588 294.882 105.869 298.32 105.869C301.673 105.869 303.965 107.928 304.326 110.963L301.1 111.132C300.93 109.541 299.827 108.543 298.235 108.543C296.835 108.543 295.837 109.265 295.901 110.368C295.943 111.642 297.429 112.066 299.042 112.469C302.416 113.212 304.559 114.655 304.559 117.053C304.559 119.918 302.034 121.531 298.787 121.531C295.116 121.531 292.526 119.494 292.314 116.311L295.561 116.162ZM312.978 121.616C308.395 121.616 305.657 118.603 305.657 113.764C305.657 108.883 308.395 105.869 312.978 105.869C317.562 105.869 320.321 108.883 320.321 113.764C320.321 118.603 317.562 121.616 312.978 121.616ZM308.989 113.764C308.989 116.99 310.474 118.9 312.978 118.9C315.525 118.9 316.989 116.99 316.989 113.764C316.989 110.517 315.525 108.586 312.978 108.586C310.474 108.586 308.989 110.517 308.989 113.764ZM335.017 115.844C334.401 119.494 332.067 121.616 328.459 121.616C324.002 121.616 321.201 118.242 321.201 113.764C321.201 109.286 324.002 105.869 328.459 105.869C331.918 105.869 334.295 107.907 334.953 111.387L331.6 111.536C331.218 109.647 330.051 108.586 328.395 108.586C325.743 108.586 324.512 110.814 324.512 113.764C324.512 116.693 325.764 118.9 328.395 118.9C330.157 118.9 331.303 117.754 331.642 115.716L335.017 115.844ZM336.238 111.005C336.493 108.034 338.742 105.869 342.074 105.869C345.236 105.869 347.507 107.8 347.507 110.453C347.507 112.767 345.661 114.104 343.602 115.292C342.775 115.759 340.143 117.329 340.058 118.56H347.549V121.277H336.132C336.132 116.862 338.615 114.846 341.692 113.106C343.22 112.172 344.197 111.387 344.197 110.411C344.197 109.35 343.326 108.586 342.074 108.586C340.716 108.586 339.825 109.519 339.549 111.196L336.238 111.005Z" fill="white"/>
</g>
</g>
<rect y="153.518" width="640" height="78.4819" fill="url(#paint2_linear_3_669)"/>
</g>
<defs>
<linearGradient id="paint0_linear_3_669" x1="369.518" y1="151.518" x2="269.244" y2="52.482" gradientUnits="userSpaceOnUse">
<stop stop-opacity="0"/>
<stop offset="1" stop-color="#01B0F7"/>
</linearGradient>
<linearGradient id="paint1_linear_3_669" x1="361.265" y1="143.265" x2="277.703" y2="60.735" gradientUnits="userSpaceOnUse">
<stop stop-color="#01B0F7"/>
<stop offset="1" stop-opacity="0"/>
</linearGradient>
<linearGradient id="paint2_linear_3_669" x1="320" y1="153.518" x2="320" y2="232" gradientUnits="userSpaceOnUse">
<stop stop-color="#F6F8FD" stop-opacity="0"/>
<stop offset="1" stop-color="#F6F8FD"/>
</linearGradient>
<clipPath id="clip0_3_669">
<rect width="640" height="232" fill="white"/>
</clipPath>
<clipPath id="clip1_3_669">
<rect width="99.0363" height="99.0363" fill="white" transform="translate(270.482 52.4819)"/>
</clipPath>
<clipPath id="clip2_3_669">
<rect width="99.0363" height="99.0363" fill="white" transform="translate(270.482 52.4819)"/>
</clipPath>
</defs>
</svg>
