<svg width="640" height="232" viewBox="0 0 640 232" fill="none" xmlns="http://www.w3.org/2000/svg">
<g clip-path="url(#clip0_3_653)">
<rect width="640" height="232" fill="#F5F8FF"/>
<circle cx="320" cy="102" r="95.0088" stroke="#EEF0F7"/>
<circle cx="320" cy="102" r="124.173" stroke="#EEF0F7"/>
<circle cx="320" cy="102" r="151.958" stroke="#EEF0F7"/>
<circle cx="320" cy="102" r="179.327" stroke="#EEF0F7"/>
<circle cx="320" cy="102" r="205.833" stroke="#EEF0F7"/>
<circle cx="320" cy="102" r="230.885" stroke="#EEF0F7"/>
<circle cx="320" cy="102.001" r="256.085" stroke="#EEF0F7"/>
<circle cx="320" cy="102" r="287.238" stroke="#EEF0F7"/>
<rect y="153.518" width="640" height="78.4819" fill="url(#paint0_linear_3_653)"/>
<g filter="url(#filter0_d_3_653)">
<rect x="270.5" y="52.5" width="99" height="99" rx="49.5" fill="#D4D9EA" shape-rendering="crispEdges"/>
<g filter="url(#filter1_i_3_653)">
<g clip-path="url(#clip1_3_653)">
<rect x="276" y="58" width="88" height="88" rx="44" fill="url(#paint1_linear_3_653)"/>
<g filter="url(#filter2_dddi_3_653)">
<rect x="298" y="80" width="44" height="44" rx="22" fill="url(#paint2_linear_3_653)" shape-rendering="crispEdges"/>
</g>
<rect opacity="0.1" x="296.639" y="-20.7738" width="55" height="105.6" rx="27.5" transform="rotate(45 296.639 -20.7738)" fill="url(#paint3_linear_3_653)"/>
<path fill-rule="evenodd" clip-rule="evenodd" d="M318.625 77.25C316.347 77.25 314.5 79.0968 314.5 81.375V104.18C314.5 104.545 314.645 104.895 314.903 105.153L319.028 109.278C319.565 109.815 319.565 110.685 319.028 111.222L314.903 115.347C314.645 115.605 314.5 115.955 314.5 116.32V122.625C314.5 124.903 316.347 126.75 318.625 126.75H321.375C323.653 126.75 325.5 124.903 325.5 122.625V99.8195C325.5 99.4549 325.355 99.1051 325.097 98.8473L320.972 94.7223C320.435 94.1853 320.435 93.3147 320.972 92.7777L325.097 88.6527C325.355 88.3949 325.5 88.0451 325.5 87.6805V81.375C325.5 79.0968 323.653 77.25 321.375 77.25H318.625Z" fill="#3661ED"/>
</g>
</g>
</g>
</g>
<defs>
<filter id="filter0_d_3_653" x="270.5" y="52.5" width="99" height="100.375" filterUnits="userSpaceOnUse" color-interpolation-filters="sRGB">
<feFlood flood-opacity="0" result="BackgroundImageFix"/>
<feColorMatrix in="SourceAlpha" type="matrix" values="0 0 0 0 0 0 0 0 0 0 0 0 0 0 0 0 0 0 127 0" result="hardAlpha"/>
<feOffset dy="1.375"/>
<feComposite in2="hardAlpha" operator="out"/>
<feColorMatrix type="matrix" values="0 0 0 0 1 0 0 0 0 1 0 0 0 0 1 0 0 0 0.05 0"/>
<feBlend mode="normal" in2="BackgroundImageFix" result="effect1_dropShadow_3_653"/>
<feBlend mode="normal" in="SourceGraphic" in2="effect1_dropShadow_3_653" result="shape"/>
</filter>
<filter id="filter1_i_3_653" x="276" y="58" width="88" height="88" filterUnits="userSpaceOnUse" color-interpolation-filters="sRGB">
<feFlood flood-opacity="0" result="BackgroundImageFix"/>
<feBlend mode="normal" in="SourceGraphic" in2="BackgroundImageFix" result="shape"/>
<feColorMatrix in="SourceAlpha" type="matrix" values="0 0 0 0 0 0 0 0 0 0 0 0 0 0 0 0 0 0 127 0" result="hardAlpha"/>
<feOffset dy="1.375"/>
<feComposite in2="hardAlpha" operator="arithmetic" k2="-1" k3="1"/>
<feColorMatrix type="matrix" values="0 0 0 0 1 0 0 0 0 1 0 0 0 0 1 0 0 0 0.08 0"/>
<feBlend mode="normal" in2="shape" result="effect1_innerShadow_3_653"/>
</filter>
<filter id="filter2_dddi_3_653" x="292.5" y="71.75" width="55" height="55" filterUnits="userSpaceOnUse" color-interpolation-filters="sRGB">
<feFlood flood-opacity="0" result="BackgroundImageFix"/>
<feColorMatrix in="SourceAlpha" type="matrix" values="0 0 0 0 0 0 0 0 0 0 0 0 0 0 0 0 0 0 127 0" result="hardAlpha"/>
<feOffset dy="-2.75"/>
<feGaussianBlur stdDeviation="2.75"/>
<feComposite in2="hardAlpha" operator="out"/>
<feColorMatrix type="matrix" values="0 0 0 0 1 0 0 0 0 1 0 0 0 0 1 0 0 0 0.02 0"/>
<feBlend mode="normal" in2="BackgroundImageFix" result="effect1_dropShadow_3_653"/>
<feColorMatrix in="SourceAlpha" type="matrix" values="0 0 0 0 0 0 0 0 0 0 0 0 0 0 0 0 0 0 127 0" result="hardAlpha"/>
<feOffset dy="-1.375"/>
<feComposite in2="hardAlpha" operator="out"/>
<feColorMatrix type="matrix" values="0 0 0 0 1 0 0 0 0 1 0 0 0 0 1 0 0 0 0.06 0"/>
<feBlend mode="normal" in2="effect1_dropShadow_3_653" result="effect2_dropShadow_3_653"/>
<feColorMatrix in="SourceAlpha" type="matrix" values="0 0 0 0 0 0 0 0 0 0 0 0 0 0 0 0 0 0 127 0" result="hardAlpha"/>
<feOffset dy="1.375"/>
<feComposite in2="hardAlpha" operator="out"/>
<feColorMatrix type="matrix" values="0 0 0 0 1 0 0 0 0 1 0 0 0 0 1 0 0 0 0.02 0"/>
<feBlend mode="normal" in2="effect2_dropShadow_3_653" result="effect3_dropShadow_3_653"/>
<feBlend mode="normal" in="SourceGraphic" in2="effect3_dropShadow_3_653" result="shape"/>
<feColorMatrix in="SourceAlpha" type="matrix" values="0 0 0 0 0 0 0 0 0 0 0 0 0 0 0 0 0 0 127 0" result="hardAlpha"/>
<feOffset dy="1.375"/>
<feGaussianBlur stdDeviation="0.6875"/>
<feComposite in2="hardAlpha" operator="arithmetic" k2="-1" k3="1"/>
<feColorMatrix type="matrix" values="0 0 0 0 0 0 0 0 0 0 0 0 0 0 0 0 0 0 0.2 0"/>
<feBlend mode="normal" in2="shape" result="effect4_innerShadow_3_653"/>
</filter>
<linearGradient id="paint0_linear_3_653" x1="320" y1="153.518" x2="320" y2="232" gradientUnits="userSpaceOnUse">
<stop stop-color="#F6F8FD" stop-opacity="0"/>
<stop offset="1" stop-color="#F6F8FD"/>
</linearGradient>
<linearGradient id="paint1_linear_3_653" x1="320" y1="58" x2="320" y2="146" gradientUnits="userSpaceOnUse">
<stop stop-color="#8E93AF"/>
<stop offset="1" stop-color="#ABAFC4"/>
</linearGradient>
<linearGradient id="paint2_linear_3_653" x1="320" y1="80" x2="320" y2="124" gradientUnits="userSpaceOnUse">
<stop stop-color="#B2C3F7"/>
<stop offset="1" stop-color="#B2C3F7" stop-opacity="0.5"/>
</linearGradient>
<linearGradient id="paint3_linear_3_653" x1="296.639" y1="32.0262" x2="351.639" y2="32.0262" gradientUnits="userSpaceOnUse">
<stop stop-opacity="0"/>
<stop offset="0.3" stop-color="white" stop-opacity="0.5"/>
<stop offset="0.5" stop-color="white"/>
<stop offset="0.7" stop-color="white" stop-opacity="0.5"/>
<stop offset="1" stop-opacity="0"/>
</linearGradient>
<clipPath id="clip0_3_653">
<rect width="640" height="232" fill="white"/>
</clipPath>
<clipPath id="clip1_3_653">
<rect x="276" y="58" width="88" height="88" rx="44" fill="white"/>
</clipPath>
</defs>
</svg>
