<svg width="100%" height="100%" viewBox="0 0 1256 243" fill="none" xmlns="http://www.w3.org/2000/svg">
<path d="M40.2307 202.423V202.596L41.0531 201.902L58.0365 187.573C68.705 178.573 82.2495 175.416 94.7949 177.701C98.5449 178.384 102.431 178.745 106.431 178.745C143.007 178.745 172.63 148.159 172.63 110.463C172.63 72.7664 143.007 42.1806 106.431 42.1806C69.8548 42.1806 40.2307 72.7664 40.2307 110.463V142.527C40.2307 145.73 38.8342 148.759 36.4347 150.778L4.31534 177.805C2.9008 178.995 0.730774 177.983 0.730774 176.029V110.463C0.730774 50.2127 48.0688 1.39709 106.431 1.39709C164.793 1.39709 212.13 50.2127 212.13 110.463C212.13 170.713 164.793 219.529 106.431 219.529C100.12 219.529 93.9394 218.958 87.934 217.864C86.1981 217.548 84.401 217.997 83.0306 219.154C83.0305 219.154 83.0305 219.154 83.0305 219.154L8.72685 281.845C5.54988 284.526 0.730774 282.22 0.730774 277.915V236.749C0.730774 236.057 1.03287 235.405 1.54597 234.974L1.54621 234.974L40.2307 202.423Z" stroke="#D4D9EA" style="stroke:#D4D9EA;stroke:color(display-p3 0.8314 0.8510 0.9176);stroke-opacity:1;"></path>
<path d="M1253.16 164.763H1253.57L1253.65 164.356C1254.29 161.013 1254.6 157.046 1254.6 152.463C1254.6 141.527 1252.07 131.531 1246.99 122.485C1242.06 113.431 1234.84 106.208 1225.32 100.817C1215.95 95.4171 1204.93 92.7268 1192.27 92.7268C1179.77 92.7268 1168.67 95.4181 1158.99 100.814C1149.3 106.211 1141.69 113.991 1136.14 124.139L1136.14 124.139L1136.13 124.144C1130.74 134.298 1128.05 146.181 1128.05 159.779C1128.05 173.376 1130.74 185.259 1136.13 195.413L1136.13 195.413L1136.14 195.421C1141.69 205.412 1149.31 213.111 1158.99 218.507C1168.67 223.903 1179.77 226.595 1192.27 226.595C1203.19 226.595 1213.01 224.617 1221.74 220.65C1230.46 216.685 1237.53 211.129 1242.94 203.979C1248.49 196.834 1252.06 188.735 1253.65 179.689L1253.75 179.103H1253.16H1230.27H1229.85L1229.77 179.515C1228.22 188.202 1223.96 195.17 1216.99 200.443C1210.17 205.558 1201.62 208.131 1191.33 208.131C1179.96 208.131 1170.33 204.476 1162.4 197.173C1154.76 189.983 1150.62 179.209 1150.07 164.763H1253.16ZM1162.87 122.154L1162.87 122.15C1170.8 114.848 1180.58 111.191 1192.27 111.191C1199.59 111.191 1206.36 112.748 1212.58 115.858C1218.78 118.958 1223.66 123.683 1227.23 130.051C1230.74 136.293 1232.31 144.059 1231.91 153.379H1150.08C1150.79 139.57 1155.07 129.188 1162.87 122.154Z" stroke="#D4D9EA" style="stroke:#D4D9EA;stroke:color(display-p3 0.8314 0.8510 0.9176);stroke-opacity:1;"></path>
<path d="M1101.02 94.8788V94.3788H1100.52H1079.04H1078.54V94.8788V163.791C1078.54 178.346 1075.02 189.377 1068.05 196.962C1061.08 204.398 1051.78 208.131 1040.1 208.131C1028.88 208.131 1020.06 204.708 1013.56 197.903C1007.07 190.943 1003.78 181.091 1003.78 168.275V94.8788V94.3788H1003.28H981.808H981.308V94.8788V170.399C981.308 188.575 985.972 202.64 995.37 212.515L995.373 212.518C1004.76 222.225 1017.01 227.067 1032.08 227.067C1043.33 227.067 1053.19 224.291 1061.62 218.724L1061.62 218.723C1069.43 213.512 1075.07 206.263 1078.54 196.996V224.443V224.943H1079.04H1100.52H1101.02V224.443V94.8788Z" stroke="#D4D9EA" style="stroke:#D4D9EA;stroke:color(display-p3 0.8314 0.8510 0.9176);stroke-opacity:1;"></path>
<path d="M940.675 94.7028L901.02 200.138L860.898 94.701L860.776 94.3788H860.431H837.303H836.57L836.837 95.0612L887.577 224.625L887.702 224.943H888.043H913.531H913.872L913.996 224.625L964.736 95.0612L965.004 94.3788H964.271H941.143H940.797L940.675 94.7028Z" stroke="#D4D9EA" style="stroke:#D4D9EA;stroke:color(display-p3 0.8314 0.8510 0.9176);stroke-opacity:1;"></path>
<path d="M785.435 93.1988H784.935V93.6988V118.279C781.515 110.481 776.186 104.19 768.954 99.4175C760.993 94.163 751.453 91.5468 740.359 91.5468C729.26 91.5468 719.258 94.2433 710.363 99.6434C701.463 105.047 694.478 112.911 689.406 123.214L689.405 123.217C684.488 133.368 682.039 145.324 682.039 159.071C682.039 172.818 684.488 184.851 689.403 195.158L689.403 195.158L689.408 195.166C694.48 205.312 701.465 213.095 710.363 218.498C719.258 223.898 729.26 226.595 740.359 226.595C751.453 226.595 760.993 223.978 768.954 218.724L768.96 218.72C776.188 213.805 781.516 207.438 784.935 199.628V224.443V224.943H785.435H818.475H818.975V224.443V93.6988V93.1988H818.475H785.435ZM775.161 186.337L775.161 186.338C768.812 192.996 760.687 196.331 750.743 196.331C740.476 196.331 732.276 193.069 726.091 186.576C719.907 179.927 716.787 170.779 716.787 159.071C716.787 147.361 719.907 138.213 726.093 131.563C732.279 124.913 740.479 121.575 750.743 121.575C760.683 121.575 768.807 124.986 775.157 131.8L775.157 131.8L775.165 131.808C781.662 138.459 784.935 147.527 784.935 159.071C784.935 170.455 781.663 179.526 775.161 186.337Z" stroke="#D4D9EA" style="stroke:#D4D9EA;stroke:color(display-p3 0.8314 0.8510 0.9176);stroke-opacity:1;"></path>
<path d="M665.702 195.887V195.387H665.202H652.222C646.291 195.387 642.209 194.134 639.832 191.757C637.458 189.384 636.202 185.149 636.202 178.895V122.283H664.966H665.466V121.783V93.6988V93.1988H664.966H636.202V61.3669V60.8669H635.702H602.426H601.926V61.3669V93.1988H584.254H583.754V93.6988V121.783V122.283H584.254H601.926V178.423C601.926 195.003 605.793 206.973 613.652 214.191L613.656 214.194C621.644 221.384 633.03 224.943 647.738 224.943H665.202H665.702V224.443V195.887Z" stroke="#D4D9EA" style="stroke:#D4D9EA;stroke:color(display-p3 0.8314 0.8510 0.9176);stroke-opacity:1;"></path>
<path d="M570.544 165.943H570.96L571.036 165.534C571.826 161.264 572.224 157.457 572.224 154.115C572.224 142.082 569.532 131.376 564.136 122.01C558.897 112.486 551.355 105.026 541.522 99.6333C531.839 94.2363 520.503 91.5468 507.532 91.5468C494.716 91.5468 483.305 94.2372 473.311 99.6308C463.311 105.028 455.532 112.887 449.981 123.196C444.427 133.352 441.66 145.316 441.66 159.071C441.66 172.826 444.428 184.791 449.982 194.947C455.533 205.098 463.31 212.955 473.305 218.508L473.311 218.511C483.305 223.904 494.716 226.595 507.532 226.595C518.452 226.595 528.358 224.537 537.241 220.413C546.276 216.291 553.657 210.579 559.374 203.275C565.088 195.974 568.818 187.719 570.563 178.516L570.676 177.923H570.072H534.908H534.506L534.42 178.315C533.029 184.65 529.792 189.656 524.702 193.358L524.702 193.358L524.696 193.363C519.766 197.06 513.506 198.927 505.88 198.927C497.344 198.927 490.233 196.215 484.512 190.803C478.907 185.501 475.792 177.247 475.251 165.943H570.544ZM529.377 126.871L529.382 126.875C535.285 132.172 538.095 139.952 537.732 150.311H475.261C475.964 139.967 479.3 132.179 485.21 126.875C491.246 121.458 498.676 118.743 507.532 118.743C516.229 118.743 523.499 121.456 529.377 126.871Z" stroke="#D4D9EA" style="stroke:#D4D9EA;stroke:color(display-p3 0.8314 0.8510 0.9176);stroke-opacity:1;"></path>
<path d="M340.306 224.943H340.806V224.443V163.111H367.682C386.798 163.111 401.568 158.371 411.916 148.819C422.417 139.272 427.654 126.465 427.654 110.455C427.654 94.1381 422.58 81.1742 412.393 71.6232C402.354 62.0635 387.42 57.3269 367.682 57.3269H307.03H306.53V57.8269V224.443V224.943H307.03H340.306ZM392.906 110.455C392.906 118.854 390.498 125.068 385.762 129.194C381.012 133.331 373.835 135.443 364.142 135.443H340.806V85.2309H364.142C374.475 85.2309 381.79 87.4259 386.215 91.6985C390.652 95.9826 392.906 102.207 392.906 110.455Z" stroke="#D4D9EA" style="stroke:#D4D9EA;stroke:color(display-p3 0.8314 0.8510 0.9176);stroke-opacity:1;"></path>
</svg>