<svg width="115" height="67" viewBox="0 0 115 67" fill="none" xmlns="http://www.w3.org/2000/svg">
<path d="M88.7587 43.8245C88.0613 43.6306 87.3877 43.4713 86.7311 43.2554C79.3521 40.8233 74.3505 35.8516 72.3139 28.2412C69.8573 19.0678 72.3954 11.2253 79.4461 5.00931C82.5028 2.31282 86.1617 0.817975 90.1761 0.229272C101.044 -1.36369 110.344 5.52991 113.669 15.1373C114.885 18.6476 115.168 22.2514 114.915 25.9348C114.702 29.0065 114.341 32.0527 113.664 35.0597C111.814 43.2785 108.116 50.4549 102.098 56.3062C97.0955 61.1659 91.2199 64.4926 84.6537 66.6177C83.2047 67.0864 81.8122 67.2226 80.4457 66.455C77.8702 65.0086 77.26 61.6068 79.1868 59.2832C81.1137 56.9595 82.985 54.5597 84.613 51.9902C86.1503 49.5712 87.4762 47.0192 88.5753 44.3636C88.6376 44.2089 88.6795 44.0461 88.7587 43.8245Z" fill="#E0EBFE"/>
<path d="M53.4003 23.7489C53.2501 27.1856 52.9057 30.5854 52.2214 33.9379C49.971 44.9638 44.594 53.9399 35.4523 60.4236C31.4086 63.3115 26.9128 65.4752 22.1576 66.822C19.5289 67.5621 17.2559 65.9066 16.6134 63.4856C16.199 61.92 16.5502 60.502 17.5653 59.2869C20.0088 56.3598 22.3326 53.3405 24.1743 49.9776C25.1815 48.133 26.0238 46.2077 26.9577 44.3286C27.1835 43.8674 27.022 43.7291 26.5975 43.6253C19.3934 41.8741 14.3574 37.4575 11.46 30.5508C9.82322 26.714 9.384 22.4555 10.2021 18.3547C11.8665 9.82356 16.7309 3.9855 24.7773 1.19328C33.2889 -1.75804 42.26 0.838198 48.1418 8.17267C50.6548 11.2856 52.3184 15.0206 52.9644 19.0003C53.2253 20.5636 53.2614 22.1672 53.4003 23.7489Z" fill="#E0EBFE"/>
</svg>
