<svg width="115" height="67" viewBox="0 0 115 67" fill="none" xmlns="http://www.w3.org/2000/svg">
<path d="M26.2413 23.1755C26.9387 23.3694 27.6123 23.5287 28.2689 23.7446C35.6479 26.1767 40.6495 31.1484 42.6861 38.7588C45.1427 47.9322 42.6046 55.7747 35.5539 61.9907C32.4972 64.6872 28.8383 66.182 24.8239 66.7707C13.9558 68.3637 4.65561 61.4701 1.33065 51.8627C0.114778 48.3524 -0.168245 44.7486 0.0853447 41.0652C0.298178 37.9935 0.659316 34.9473 1.33631 31.9403C3.18615 23.7215 6.88358 16.5451 12.9018 10.6938C17.9045 5.83413 23.7801 2.50738 30.3463 0.382277C31.7953 -0.086381 33.1878 -0.222581 34.5543 0.545043C37.1298 1.9914 37.74 5.39319 35.8132 7.71683C33.8863 10.0405 32.015 12.4403 30.387 15.0098C28.8497 17.4288 27.5238 19.9808 26.4247 22.6364C26.3624 22.7911 26.3205 22.9539 26.2413 23.1755Z" fill="#E0EBFE"/>
<path d="M61.5997 43.2511C61.7499 39.8144 62.0943 36.4146 62.7786 33.0621C65.029 22.0362 70.406 13.0601 79.5477 6.57639C83.5914 3.68854 88.0872 1.52483 92.8424 0.178038C95.4711 -0.562096 97.7441 1.09341 98.3866 3.5144C98.801 5.07998 98.4498 6.498 97.4347 7.71311C94.9912 10.6402 92.6674 13.6595 90.8257 17.0224C89.8185 18.867 88.9762 20.7923 88.0423 22.6714C87.8165 23.1326 87.978 23.2709 88.4025 23.3747C95.6066 25.1259 100.643 29.5425 103.54 36.4492C105.177 40.286 105.616 44.5445 104.798 48.6453C103.134 57.1764 98.2691 63.0145 90.2227 65.8067C81.7111 68.758 72.74 66.1618 66.8582 58.8273C64.3452 55.7144 62.6816 51.9794 62.0356 47.9997C61.7747 46.4364 61.7386 44.8328 61.5997 43.2511Z" fill="#E0EBFE"/>
</svg>
