<svg width="45" height="34" viewBox="0 0 45 34" fill="none" xmlns="http://www.w3.org/2000/svg">
<path d="M12.6624 34C10.0198 34 7.75153 33.3302 5.85778 31.9905C3.97473 30.6402 2.525 28.695 1.50858 26.1551C0.50286 23.6044 0 20.534 0 16.9437C0.0106991 13.3535 0.518909 10.2991 1.52463 7.78061C2.54105 5.25138 3.99078 3.3223 5.87383 1.99338C7.76758 0.664461 10.0304 0 12.6624 0C15.2944 0 17.5573 0.664461 19.451 1.99338C21.3448 3.3223 22.7945 5.25138 23.8002 7.78061C24.8167 10.3099 25.3249 13.3642 25.3249 16.9437C25.3249 20.5447 24.8167 23.6205 23.8002 26.1712C22.7945 28.7111 21.3448 30.6509 19.451 31.9905C17.568 33.3302 15.3051 34 12.6624 34ZM12.6624 28.9683C14.7167 28.9683 16.3376 27.9556 17.5252 25.93C18.7235 23.8938 19.3227 20.8983 19.3227 16.9437C19.3227 14.3288 19.0498 12.1318 18.5042 10.3527C17.9585 8.57368 17.1882 7.23404 16.1932 6.33381C15.1981 5.42285 14.0212 4.96738 12.6624 4.96738C10.6189 4.96738 9.00333 5.9855 7.81573 8.02175C6.62812 10.0473 6.02897 13.0213 6.01827 16.9437C6.00757 19.5694 6.2697 21.7771 6.80466 23.5669C7.35031 25.3567 8.12065 26.707 9.11567 27.618C10.1107 28.5182 11.2929 28.9683 12.6624 28.9683Z" fill="#D4D9EA"/>
<path d="M44.0256 0.450118V33.3731H38.0716V6.25343H37.879L30.1917 11.1726V5.70686L38.3604 0.450118H44.0256Z" fill="#D4D9EA"/>
</svg>
