<svg width="54" height="34" viewBox="0 0 54 34" fill="none" xmlns="http://www.w3.org/2000/svg">
<path d="M12.6601 34C10.0179 34 7.75008 33.3302 5.85668 31.9905C3.97399 30.6402 2.52452 28.695 1.5083 26.1551C0.502766 23.6044 0 20.534 0 16.9437C0.0106971 13.3535 0.518811 10.2991 1.52434 7.78061C2.54057 5.25138 3.99003 3.3223 5.87273 1.99338C7.76612 0.664461 10.0286 0 12.6601 0C15.2916 0 17.554 0.664461 19.4474 1.99338C21.3408 3.3223 22.7903 5.25138 23.7958 7.78061C24.812 10.3099 25.3201 13.3642 25.3201 16.9437C25.3201 20.5447 24.812 23.6205 23.7958 26.1712C22.7903 28.7111 21.3408 30.6509 19.4474 31.9905C17.5647 33.3302 15.3023 34 12.6601 34ZM12.6601 28.9683C14.7139 28.9683 16.3345 27.9556 17.5219 25.93C18.72 23.8938 19.319 20.8983 19.319 16.9437C19.319 14.3288 19.0463 12.1318 18.5007 10.3527C17.9551 8.57368 17.185 7.23404 16.1901 6.33381C15.1953 5.42285 14.0186 4.96738 12.6601 4.96738C10.6169 4.96738 9.00164 5.9855 7.81426 8.02175C6.62688 10.0473 6.02784 13.0213 6.01714 16.9437C6.00644 19.5694 6.26852 21.7771 6.80338 23.5669C7.34893 25.3567 8.11913 26.707 9.11396 27.618C10.1088 28.5182 11.2908 28.9683 12.6601 28.9683Z" fill="#D4D9EA"/>
<path d="M30.6513 33.3731V29.0648L42.0598 17.86C43.1509 16.7562 44.0602 15.7756 44.7876 14.9182C45.515 14.0608 46.0605 13.2303 46.4242 12.4265C46.7879 11.6227 46.9698 10.7653 46.9698 9.85438C46.9698 8.81482 46.7345 7.9253 46.2638 7.18582C45.7931 6.43562 45.1459 5.8569 44.3223 5.44965C43.4986 5.0424 42.5626 4.83877 41.5143 4.83877C40.4338 4.83877 39.4872 5.06383 38.6742 5.51395C37.8612 5.95335 37.2301 6.5803 36.7808 7.3948C36.3422 8.2093 36.1229 9.1792 36.1229 10.3045H30.4588C30.4588 8.21466 30.9348 6.39811 31.8868 4.85485C32.8389 3.31158 34.1493 2.11663 35.818 1.26998C37.4975 0.423326 39.423 0 41.5945 0C43.7981 0 45.7343 0.412608 47.403 1.23783C49.0718 2.06304 50.3661 3.1937 51.2861 4.62979C52.2167 6.06588 52.6821 7.70559 52.6821 9.54894C52.6821 10.7814 52.4467 11.9924 51.9761 13.182C51.5054 14.3716 50.6764 15.6898 49.489 17.1366C48.3123 18.5835 46.6596 20.3357 44.5309 22.3934L38.8667 28.1645V28.3896H53.1795V33.3731H30.6513Z" fill="#D4D9EA"/>
</svg>
