<svg width="55" height="34" viewBox="0 0 55 34" fill="none" xmlns="http://www.w3.org/2000/svg">
<path d="M12.7407 34C10.0817 34 7.79942 33.3302 5.89397 31.9905C3.99929 30.6402 2.5406 28.695 1.5179 26.1551C0.505967 23.6044 0 20.534 0 16.9437C0.0107652 13.3535 0.522114 10.2991 1.53405 7.78061C2.55675 5.25138 4.01544 3.3223 5.91012 1.99338C7.81557 0.664461 10.0924 0 12.7407 0C15.3889 0 17.6658 0.664461 19.5712 1.99338C21.4767 3.3223 22.9354 5.25138 23.9473 7.78061C24.97 10.3099 25.4813 13.3642 25.4813 16.9437C25.4813 20.5447 24.97 23.6205 23.9473 26.1712C22.9354 28.7111 21.4767 30.6509 19.5712 31.9905C17.6765 33.3302 15.3997 34 12.7407 34ZM12.7407 28.9683C14.8076 28.9683 16.4385 27.9556 17.6335 25.93C18.8392 23.8938 19.442 20.8983 19.442 16.9437C19.442 14.3288 19.1675 12.1318 18.6185 10.3527C18.0695 8.57368 17.2944 7.23404 16.2932 6.33381C15.292 5.42285 14.1079 4.96738 12.7407 4.96738C10.6845 4.96738 9.05896 5.9855 7.86401 8.02175C6.66907 10.0473 6.06622 13.0213 6.05545 16.9437C6.04469 19.5694 6.30843 21.7771 6.8467 23.5669C7.39572 25.3567 8.17082 26.707 9.17199 27.618C10.1732 28.5182 11.3627 28.9683 12.7407 28.9683Z" fill="#D4D9EA"/>
<path d="M42.7152 33.8232C40.3899 33.8232 38.3229 33.4266 36.5144 32.6336C34.7166 31.8405 33.2956 30.7366 32.2513 29.322C31.2071 27.9073 30.6527 26.273 30.5881 24.4189H36.6597C36.7135 25.3084 37.0096 26.0854 37.5478 26.7499C38.0861 27.4036 38.802 27.9127 39.6955 28.2771C40.589 28.6415 41.5902 28.8236 42.699 28.8236C43.8832 28.8236 44.9328 28.62 45.8478 28.2128C46.7629 27.7948 47.4788 27.2161 47.9955 26.4766C48.5122 25.7371 48.7652 24.8851 48.7545 23.9206C48.7652 22.9239 48.5069 22.0451 47.9794 21.2842C47.4519 20.5232 46.6875 19.9284 45.6864 19.4998C44.696 19.0711 43.501 18.8567 42.1015 18.8567H39.1788V14.2591H42.1015C43.2534 14.2591 44.26 14.0608 45.1212 13.6643C45.9932 13.2678 46.6768 12.7105 47.172 11.9924C47.6672 11.2637 47.9094 10.4224 47.8986 9.46856C47.9094 8.53617 47.6995 7.72703 47.2689 7.04114C46.849 6.34452 46.2515 5.80331 45.4764 5.41749C44.7121 5.03168 43.8132 4.83877 42.7797 4.83877C41.7678 4.83877 40.8312 5.02096 39.97 5.38534C39.1088 5.74972 38.4144 6.2695 37.8869 6.94468C37.3594 7.60914 37.0795 8.40221 37.0473 9.32388H31.2825C31.3255 7.48054 31.8584 5.86225 32.8811 4.46903C33.9146 3.06509 35.2925 1.97195 37.015 1.1896C38.7374 0.396533 40.6698 0 42.812 0C45.0189 0 46.9351 0.412608 48.5607 1.23783C50.197 2.05232 51.4619 3.15083 52.3554 4.53333C53.2489 5.91584 53.6957 7.44303 53.6957 9.11489C53.7065 10.969 53.1574 12.5229 52.0486 13.7768C50.9506 15.0307 49.508 15.8506 47.721 16.2364V16.4936C50.0463 16.8151 51.8279 17.6725 53.0659 19.0657C54.3147 20.4482 54.9337 22.1683 54.9229 24.226C54.9229 26.0693 54.3954 27.7198 53.3405 29.1773C52.2962 30.6241 50.8537 31.7601 49.0128 32.5853C47.1827 33.4106 45.0835 33.8232 42.7152 33.8232Z" fill="#D4D9EA"/>
</svg>
