<svg width="170" height="170" viewBox="0 0 170 170" fill="none" xmlns="http://www.w3.org/2000/svg">
<path d="M49.4575 38.75C62.7675 35.39 79.6275 36.07 91.7675 42.46C89.2075 45.68 86.6475 48.9 84.0875 52.13C93.0575 50.56 102.247 50.27 111.287 51.28C110.217 43.11 108.538 33.1 107.078 20.88C104.748 24.31 102.418 27.73 100.078 31.16C92.8075 27.36 87.5075 26.52 79.3175 25.99C71.1275 25.46 62.5475 27.62 56.4375 33.09C54.0975 35.18 52.1275 37.74 49.4375 39.36" fill="#052DAB"/>
<path d="M62.0875 28.63C64.7875 27.3 67.6875 26.4 70.6275 25.88C71.7275 25.68 72.8575 25.61 74.0075 25.36C74.5775 25.22 75.6675 25.36 76.6975 25.35C79.4975 25.33 82.2375 25.62 84.9975 25.9C87.6775 26.2 90.3575 26.63 92.9675 27.43C94.2575 27.81 95.5375 28.32 96.7775 28.85C97.3975 29.12 98.0175 29.39 98.6175 29.68C98.9175 29.82 99.2175 29.96 99.5175 30.1L99.7375 30.21C99.8075 30.24 99.7775 30.23 99.7975 30.23H99.8575C99.8575 30.23 99.8775 30.2 99.8775 30.19V30.17L99.8875 30.16L99.9375 30.08C100.088 29.86 100.238 29.63 100.388 29.41C100.698 28.98 100.998 28.55 101.288 28.12C101.888 27.27 102.498 26.44 103.078 25.56C103.638 24.71 104.208 23.85 104.778 23C105.708 21.65 106.628 20.31 107.528 19C107.568 19.4 107.608 19.78 107.648 20.15C108.008 23.55 108.058 24.46 108.308 26.16C108.458 27.14 108.668 28.05 108.808 29.12C108.938 30.11 109.008 31.26 109.318 32.1C109.348 32.17 109.368 32.62 109.378 32.85C109.408 33.94 109.608 35.25 109.818 36.14C110.028 37 110.128 37.78 110.248 38.59C110.578 40.83 110.898 43.07 111.228 45.3C111.328 46.14 111.438 46.98 111.538 47.82C111.638 48.71 111.748 49.6 111.848 50.49C111.918 51 111.988 51.51 112.058 52.04C110.278 51.87 108.448 51.7 106.818 51.55C105.198 51.35 103.648 51.29 102.058 51.27C101.158 51.25 100.098 51.18 99.3575 51.37C99.2875 51.39 98.9475 51.39 98.7975 51.38C96.2075 51.18 93.6875 51.66 91.0875 51.86C89.7475 51.97 88.3875 52.12 87.0375 52.33L85.8575 52.51L83.9875 52.82L83.0475 52.98L82.5775 53.06C82.5775 53.06 82.4775 53.09 82.4775 53.06L82.5475 52.97L82.6975 52.78L83.8775 51.29C84.2575 50.82 84.6475 50.34 85.0275 49.86C85.2575 49.57 85.4675 49.27 85.6275 48.96C85.7375 48.74 86.2075 48.14 86.4675 47.87C87.8775 46.4 89.1175 44.65 90.4375 43.04L90.6775 42.75C90.6775 42.75 90.7275 42.71 90.7075 42.69L90.6375 42.66L89.4175 42.07C88.3375 41.6 87.2675 41.12 86.1775 40.66C85.2575 40.27 83.9675 39.79 82.7575 39.65C82.2075 39.56 81.1175 39.2 80.2675 39.03C79.5775 38.88 78.8975 38.8 78.2075 38.69C77.6175 38.58 77.0475 38.41 76.4575 38.26C76.2775 38.22 76.0575 38.19 75.8875 38.18C72.4675 37.86 69.0775 37.35 65.6075 37.43C62.1275 37.5 58.6075 37.76 55.1475 38.28C54.1875 38.41 53.2275 38.6 52.3375 38.7C51.4475 38.83 50.6175 38.93 49.9375 38.9C49.3175 38.88 49.2775 38.72 50.0575 38.44C50.6375 38.23 51.2975 38.01 51.9775 37.84C53.0675 37.62 54.1575 37.33 55.2275 37.16C57.4575 36.75 59.6775 36.36 62.0375 36.32C62.7675 36.28 63.6175 36.2 64.2275 36.32C64.3075 36.34 64.6075 36.34 64.7575 36.32C67.8775 36.03 71.1375 36.35 74.2975 36.71C76.9875 37.02 79.6175 37.35 82.2575 38.1C83.0075 38.22 83.8075 38.41 84.6075 38.63C85.3975 38.88 86.1675 39.18 86.8875 39.46C87.5175 39.7 88.1275 40 88.7475 40.27C89.3675 40.53 89.9875 40.81 90.5875 41.13L91.7675 41.71L92.5775 42.11L92.7775 42.21L92.6375 42.39L92.3575 42.74L90.7975 44.7C89.1675 46.77 87.5275 48.84 85.8975 50.9C85.8275 50.98 85.7275 51.09 85.6775 51.17L86.0375 51.11C87.3875 50.91 88.7275 50.72 90.0875 50.58C92.7875 50.28 95.5075 50.09 98.2275 50.03C99.1575 50.01 99.9475 49.89 101.038 49.97C102.058 50.05 103.378 50.02 104.558 50.06C105.648 50.11 106.788 50.13 107.808 50.25L109.578 50.46L110.368 50.56L110.648 50.6L110.598 50.16L110.448 49.02L110.118 46.75C109.898 45.23 109.668 43.72 109.448 42.2C108.848 38.02 108.238 33.82 107.638 29.65L107.058 25.84L106.788 23.93L106.688 23.13L106.668 22.9C106.668 22.81 106.648 22.73 106.628 22.67C106.588 22.74 106.558 22.8 106.518 22.83C106.498 22.85 106.478 22.86 106.448 22.88L106.398 22.91C106.398 22.91 106.358 22.93 106.278 23.02C106.058 23.25 105.598 24.18 105.198 24.77C104.208 26.23 103.208 27.7 102.218 29.16L101.178 30.68L100.358 31.88C100.358 31.88 100.318 31.95 100.298 31.95L100.208 31.9L100.018 31.81L99.6475 31.62L99.0175 31.3C97.9375 30.75 96.8275 30.25 95.7075 29.8C94.3375 29.25 92.9375 28.85 91.5275 28.47C90.0475 28.08 88.5275 27.75 87.0075 27.49C85.0775 27.16 83.1375 26.9 81.1675 26.73C79.1075 26.54 77.0275 26.52 75.0875 26.55C71.4775 26.59 67.9075 27.38 64.5775 28.69C61.2575 30 58.1975 31.95 55.6975 34.5C54.2575 35.94 52.8775 37.25 51.2675 38.54C50.5175 39.17 49.1675 39.45 49.4275 39.11C49.4775 39.05 49.5875 38.94 49.7075 38.85C51.2575 37.66 52.3475 36.25 53.9475 34.65C56.2575 32.23 59.0175 30.04 62.0875 28.58V28.63Z" fill="#052DAB"/>
<path d="M111.298 131.25C97.9875 134.61 81.1275 133.93 68.9875 127.54C71.5475 124.32 74.1075 121.1 76.6675 117.87C67.6975 119.44 58.5075 119.73 49.4675 118.72C50.5375 126.89 52.2175 136.9 53.6775 149.12C56.0075 145.69 58.3375 142.27 60.6775 138.84C67.9475 142.64 73.2475 143.48 81.4375 144.01C89.6175 144.54 98.2075 142.38 104.318 136.91C106.658 134.82 108.628 132.26 111.318 130.64" fill="#90A6EE"/>
<path d="M98.6575 141.37C95.9575 142.7 93.0575 143.6 90.1175 144.12C89.0175 144.32 87.8875 144.39 86.7375 144.64C86.1675 144.78 85.0775 144.64 84.0475 144.65C81.2375 144.67 78.5075 144.38 75.7475 144.1C73.0675 143.8 70.3875 143.37 67.7775 142.57C66.4775 142.19 65.2075 141.68 63.9675 141.15C63.3475 140.88 62.7275 140.61 62.1275 140.32C61.8275 140.18 61.5275 140.04 61.2275 139.9L61.0075 139.79C60.9375 139.76 60.9675 139.77 60.9475 139.77H60.8875C60.8875 139.77 60.8675 139.8 60.8675 139.81V139.83L60.8575 139.84L60.8075 139.92C60.6575 140.14 60.5075 140.37 60.3575 140.59C60.0475 141.02 59.7475 141.45 59.4575 141.88C58.8575 142.73 58.2475 143.56 57.6675 144.44C57.1075 145.29 56.5375 146.15 55.9675 147C55.0375 148.35 54.1175 149.69 53.2075 151C53.1675 150.6 53.1275 150.22 53.0875 149.85C52.7275 146.45 52.6775 145.54 52.4275 143.84C52.2775 142.86 52.0675 141.95 51.9275 140.88C51.7975 139.89 51.7275 138.74 51.4175 137.9C51.3875 137.83 51.3675 137.38 51.3575 137.15C51.3275 136.06 51.1275 134.75 50.9175 133.86C50.7075 133 50.6075 132.22 50.4875 131.41C50.1575 129.17 49.8375 126.93 49.5075 124.7C49.4075 123.86 49.2975 123.02 49.1975 122.18C49.0975 121.29 48.9875 120.4 48.8875 119.51C48.8175 119 48.7475 118.49 48.6775 117.96C50.4575 118.13 52.2875 118.3 53.9175 118.45C55.5375 118.65 57.0875 118.71 58.6775 118.73C59.5775 118.75 60.6375 118.82 61.3775 118.63C61.4475 118.61 61.7875 118.61 61.9375 118.62C64.5275 118.82 67.0475 118.34 69.6475 118.14C70.9875 118.03 72.3475 117.88 73.6975 117.67L74.8775 117.49L76.7475 117.18L77.6875 117.02L78.1575 116.94C78.1575 116.94 78.2575 116.91 78.2575 116.94L78.1875 117.03L78.0375 117.22L76.8575 118.71C76.4775 119.18 76.0875 119.66 75.7075 120.14C75.4775 120.43 75.2675 120.73 75.1075 121.04C74.9975 121.26 74.5275 121.86 74.2675 122.13C72.8575 123.6 71.6175 125.35 70.2975 126.96L70.0575 127.25C70.0575 127.25 70.0075 127.29 70.0275 127.31L70.0975 127.34L71.3175 127.93C72.3975 128.4 73.4675 128.88 74.5575 129.34C75.4775 129.73 76.7675 130.21 77.9775 130.35C78.5275 130.44 79.6175 130.8 80.4675 130.97C81.1575 131.12 81.8375 131.2 82.5375 131.31C83.1175 131.42 83.6975 131.59 84.2875 131.74C84.4675 131.78 84.6875 131.81 84.8575 131.82C88.2775 132.14 91.6675 132.65 95.1375 132.57C98.6175 132.5 102.137 132.24 105.597 131.72C106.557 131.59 107.507 131.4 108.407 131.3C109.297 131.17 110.127 131.07 110.807 131.1C111.427 131.12 111.467 131.28 110.687 131.56C110.107 131.77 109.447 131.99 108.767 132.16C107.677 132.38 106.587 132.67 105.517 132.84C103.287 133.25 101.067 133.64 98.7075 133.68C97.9775 133.72 97.1275 133.8 96.5175 133.68C96.4375 133.66 96.1375 133.66 95.9875 133.68C92.8675 133.97 89.6075 133.65 86.4475 133.29C83.7575 132.98 81.1275 132.65 78.4875 131.9C77.7375 131.78 76.9375 131.59 76.1375 131.37C75.3475 131.12 74.5775 130.82 73.8575 130.54C73.2275 130.3 72.6175 130 71.9975 129.73C71.3775 129.47 70.7575 129.19 70.1575 128.87L68.9775 128.29L68.1675 127.89L67.9675 127.79L68.1075 127.61L68.3875 127.26L69.9475 125.3C71.5775 123.23 73.2175 121.16 74.8475 119.1C74.9175 119.02 75.0175 118.91 75.0675 118.83L74.7075 118.89C73.3575 119.09 72.0175 119.28 70.6575 119.42C67.9575 119.72 65.2375 119.91 62.5175 119.97C61.5875 119.99 60.7975 120.11 59.7075 120.03C58.6875 119.95 57.3675 119.98 56.1875 119.94C55.0975 119.89 53.9575 119.87 52.9375 119.75L51.1675 119.54L50.3775 119.44L50.0975 119.4L50.1475 119.84L50.2975 120.98L50.6275 123.25C50.8475 124.77 51.0775 126.28 51.2975 127.8C51.8975 131.98 52.5075 136.18 53.1075 140.35L53.6875 144.16L53.9575 146.07L54.0575 146.87L54.0775 147.1C54.0775 147.19 54.0975 147.27 54.1175 147.33C54.1575 147.26 54.1875 147.2 54.2275 147.17C54.2475 147.15 54.2675 147.14 54.2975 147.12L54.3475 147.09C54.3475 147.09 54.3875 147.07 54.4675 146.98C54.6875 146.75 55.1475 145.82 55.5475 145.23C56.5375 143.77 57.5375 142.3 58.5275 140.84L59.5675 139.32L60.3875 138.12C60.3875 138.12 60.4275 138.05 60.4475 138.05L60.5375 138.1L60.7275 138.19L61.0975 138.38L61.7275 138.7C62.8075 139.25 63.9175 139.75 65.0375 140.2C66.4075 140.75 67.8075 141.15 69.2275 141.53C70.7075 141.92 72.2275 142.25 73.7475 142.51C75.6775 142.84 77.6175 143.1 79.5875 143.27C81.6475 143.46 83.7275 143.48 85.6675 143.45C89.2775 143.41 92.8475 142.62 96.1775 141.31C99.4975 140 102.557 138.05 105.057 135.5C106.497 134.06 107.877 132.75 109.487 131.46C110.237 130.83 111.587 130.55 111.327 130.89C111.277 130.95 111.167 131.06 111.047 131.15C109.497 132.34 108.407 133.75 106.807 135.35C104.497 137.77 101.737 139.96 98.6675 141.42L98.6575 141.37Z" fill="#90A6EE"/>
<path d="M98.6575 141.37C95.9575 142.7 93.0575 143.6 90.1175 144.12C89.0175 144.32 87.8875 144.39 86.7375 144.64C86.1675 144.78 85.0775 144.64 84.0475 144.65C81.2375 144.67 78.5075 144.38 75.7475 144.1C73.0675 143.8 70.3875 143.37 67.7775 142.57C66.4775 142.19 65.2075 141.68 63.9675 141.15C63.3475 140.88 62.7275 140.61 62.1275 140.32C61.8275 140.18 61.5275 140.04 61.2275 139.9L61.0075 139.79C60.9375 139.76 60.9675 139.77 60.9475 139.77H60.8875C60.8875 139.77 60.8675 139.8 60.8675 139.81V139.83L60.8575 139.84L60.8075 139.92C60.6575 140.14 60.5075 140.37 60.3575 140.59C60.0475 141.02 59.7475 141.45 59.4575 141.88C58.8575 142.73 58.2475 143.56 57.6675 144.44C57.1075 145.29 56.5375 146.15 55.9675 147C55.0375 148.35 54.1175 149.69 53.2075 151C53.1675 150.6 53.1275 150.22 53.0875 149.85C52.7275 146.45 52.6775 145.54 52.4275 143.84C52.2775 142.86 52.0675 141.95 51.9275 140.88C51.7975 139.89 51.7275 138.74 51.4175 137.9C51.3875 137.83 51.3675 137.38 51.3575 137.15C51.3275 136.06 51.1275 134.75 50.9175 133.86C50.7075 133 50.6075 132.22 50.4875 131.41C50.1575 129.17 49.8375 126.93 49.5075 124.7C49.4075 123.86 49.2975 123.02 49.1975 122.18C49.0975 121.29 48.9875 120.4 48.8875 119.51C48.8175 119 48.7475 118.49 48.6775 117.96C50.4575 118.13 52.2875 118.3 53.9175 118.45C55.5375 118.65 57.0875 118.71 58.6775 118.73C59.5775 118.75 60.6375 118.82 61.3775 118.63C61.4475 118.61 61.7875 118.61 61.9375 118.62C64.5275 118.82 67.0475 118.34 69.6475 118.14C70.9875 118.03 72.3475 117.88 73.6975 117.67L74.8775 117.49L76.7475 117.18L77.6875 117.02L78.1575 116.94C78.1575 116.94 78.2575 116.91 78.2575 116.94L78.1875 117.03L78.0375 117.22L76.8575 118.71C76.4775 119.18 76.0875 119.66 75.7075 120.14C75.4775 120.43 75.2675 120.73 75.1075 121.04C74.9975 121.26 74.5275 121.86 74.2675 122.13C72.8575 123.6 71.6175 125.35 70.2975 126.96L70.0575 127.25C70.0575 127.25 70.0075 127.29 70.0275 127.31L70.0975 127.34L71.3175 127.93C72.3975 128.4 73.4675 128.88 74.5575 129.34C75.4775 129.73 76.7675 130.21 77.9775 130.35C78.5275 130.44 79.6175 130.8 80.4675 130.97C81.1575 131.12 81.8375 131.2 82.5375 131.31C83.1175 131.42 83.6975 131.59 84.2875 131.74C84.4675 131.78 84.6875 131.81 84.8575 131.82C88.2775 132.14 91.6675 132.65 95.1375 132.57C98.6175 132.5 102.137 132.24 105.597 131.72C106.557 131.59 107.507 131.4 108.407 131.3C109.297 131.17 110.127 131.07 110.807 131.1C111.427 131.12 111.467 131.28 110.687 131.56C110.107 131.77 109.447 131.99 108.767 132.16C107.677 132.38 106.587 132.67 105.517 132.84C103.287 133.25 101.067 133.64 98.7075 133.68C97.9775 133.72 97.1275 133.8 96.5175 133.68C96.4375 133.66 96.1375 133.66 95.9875 133.68C92.8675 133.97 89.6075 133.65 86.4475 133.29C83.7575 132.98 81.1275 132.65 78.4875 131.9C77.7375 131.78 76.9375 131.59 76.1375 131.37C75.3475 131.12 74.5775 130.82 73.8575 130.54C73.2275 130.3 72.6175 130 71.9975 129.73C71.3775 129.47 70.7575 129.19 70.1575 128.87L68.9775 128.29L68.1675 127.89L67.9675 127.79L68.1075 127.61L68.3875 127.26L69.9475 125.3C71.5775 123.23 73.2175 121.16 74.8475 119.1C74.9175 119.02 75.0175 118.91 75.0675 118.83L74.7075 118.89C73.3575 119.09 72.0175 119.28 70.6575 119.42C67.9575 119.72 65.2375 119.91 62.5175 119.97C61.5875 119.99 60.7975 120.11 59.7075 120.03C58.6875 119.95 57.3675 119.98 56.1875 119.94C55.0975 119.89 53.9575 119.87 52.9375 119.75L51.1675 119.54L50.3775 119.44L50.0975 119.4L50.1475 119.84L50.2975 120.98L50.6275 123.25C50.8475 124.77 51.0775 126.28 51.2975 127.8C51.8975 131.98 52.5075 136.18 53.1075 140.35L53.6875 144.16L53.9575 146.07L54.0575 146.87L54.0775 147.1C54.0775 147.19 54.0975 147.27 54.1175 147.33C54.1575 147.26 54.1875 147.2 54.2275 147.17C54.2475 147.15 54.2675 147.14 54.2975 147.12L54.3475 147.09C54.3475 147.09 54.3875 147.07 54.4675 146.98C54.6875 146.75 55.1475 145.82 55.5475 145.23C56.5375 143.77 57.5375 142.3 58.5275 140.84L59.5675 139.32L60.3875 138.12C60.3875 138.12 60.4275 138.05 60.4475 138.05L60.5375 138.1L60.7275 138.19L61.0975 138.38L61.7275 138.7C62.8075 139.25 63.9175 139.75 65.0375 140.2C66.4075 140.75 67.8075 141.15 69.2275 141.53C70.7075 141.92 72.2275 142.25 73.7475 142.51C75.6775 142.84 77.6175 143.1 79.5875 143.27C81.6475 143.46 83.7275 143.48 85.6675 143.45C89.2775 143.41 92.8475 142.62 96.1775 141.31C99.4975 140 102.557 138.05 105.057 135.5C106.497 134.06 107.877 132.75 109.487 131.46C110.237 130.83 111.587 130.55 111.327 130.89C111.277 130.95 111.167 131.06 111.047 131.15C109.497 132.34 108.407 133.75 106.807 135.35C104.497 137.77 101.737 139.96 98.6675 141.42L98.6575 141.37Z" fill="#052DAB"/>
<path d="M34.9275 108.63C38.5118 108.63 41.4175 105.724 41.4175 102.14C41.4175 98.5557 38.5118 95.65 34.9275 95.65C31.3432 95.65 28.4375 98.5557 28.4375 102.14C28.4375 105.724 31.3432 108.63 34.9275 108.63Z" fill="#90A6EE"/>
<path d="M39.9073 98.93C39.5773 98.43 39.1873 97.96 38.7073 97.58C38.5273 97.45 38.3873 97.24 38.1073 97.25C37.9673 97.26 37.8873 96.98 37.6973 96.89C37.1873 96.65 36.6573 96.44 36.1073 96.33C35.5673 96.26 35.0173 96.27 34.4773 96.33C33.9573 96.39 33.3773 96.41 32.9373 96.69C32.5573 96.91 32.1373 96.97 31.7873 97.22C31.4273 97.49 31.0873 97.81 30.7273 98.07C30.4673 98.27 30.2073 98.48 30.0473 98.77C29.9473 98.95 29.9373 99.17 29.8173 99.34C29.7273 99.52 29.5473 99.69 29.6473 99.93C29.6473 99.95 29.5973 100.02 29.5573 100.05C29.3673 100.21 29.2773 100.47 29.3273 100.67C29.3573 100.86 29.3073 101 29.2973 101.17C29.2273 101.61 29.2173 102.06 29.2273 102.5C29.2273 102.83 29.2073 103.18 29.2773 103.51C29.3373 103.86 29.5473 104.19 29.5973 104.52C29.6473 104.86 29.8173 105.14 29.9873 105.41C30.0973 105.56 30.1673 105.79 30.3973 105.79C30.4173 105.79 30.4673 105.84 30.4773 105.88C30.6373 106.45 31.2673 106.57 31.6473 106.91C32.0673 107.26 32.5973 107.48 33.1273 107.64C33.2673 107.69 33.4073 107.77 33.5673 107.67C33.6273 107.63 33.7673 107.67 33.8373 107.71C34.2073 107.97 34.6573 107.89 35.0673 107.91C35.5573 107.93 36.0073 107.78 36.5073 107.79C36.7273 107.81 37.0073 107.72 37.1773 107.48C37.2473 107.36 37.4873 107.33 37.6373 107.24C37.7573 107.16 37.8273 107.01 37.9473 106.94C38.0473 106.88 38.1873 106.87 38.3073 106.82C38.3373 106.81 38.3773 106.78 38.3973 106.75C38.8173 106.18 39.4773 105.86 39.8173 105.23C40.1473 104.61 40.4373 103.95 40.6073 103.26C40.6973 102.88 40.7873 102.49 41.1273 102.21C41.2873 102.08 41.4573 102.08 41.5473 102.27C41.6173 102.41 41.6673 102.58 41.6773 102.74C41.6773 103 41.6773 103.27 41.6573 103.53C41.5873 104.06 41.5873 104.65 41.2573 105.13C41.1573 105.27 41.1573 105.51 40.9373 105.56C40.9073 105.56 40.8573 105.62 40.8573 105.66C40.6773 106.43 40.0373 106.97 39.4673 107.47C38.9773 107.89 38.5473 108.43 37.8873 108.63C37.6273 108.96 37.1873 109.09 36.8073 109.13C35.4873 109.29 34.1573 109.4 32.8773 109C31.6073 108.59 30.4173 107.88 29.5473 106.86C29.3873 106.7 29.1973 106.6 29.0973 106.34C28.9973 106.1 28.7973 105.85 28.6373 105.6C28.5073 105.37 28.3573 105.13 28.2973 104.88C28.0873 103.85 27.7973 102.85 27.8673 101.81C27.9373 100.78 28.2273 99.78 28.6573 98.85C28.9373 98.29 29.1973 97.69 29.6773 97.26C29.8673 97.06 30.0273 96.81 30.3373 96.76C30.4173 96.74 30.5373 96.49 30.6773 96.38C31.0173 96.11 31.3973 95.88 31.7973 95.7C32.3373 95.42 32.9273 95.26 33.5173 95.12C33.8773 95.05 34.2373 94.92 34.6073 94.9C34.9973 94.85 35.3973 94.89 35.7873 94.95C36.2773 95.04 36.7473 95.21 37.2073 95.38C37.6773 95.56 38.2073 95.71 38.5773 96.04C39.2673 96.63 39.9673 97.17 40.5073 97.9C41.0273 98.62 41.4173 99.42 41.6873 100.26C41.8473 100.74 41.7673 101.22 41.7973 101.7C41.8073 101.93 41.3773 102.23 41.2273 102.14C41.1973 102.12 41.1673 102.09 41.1573 102.06C41.0073 101.63 40.7573 101.29 40.6673 100.84C40.5473 100.17 40.2573 99.53 39.8773 98.96L39.9073 98.93Z" fill="#052DAB"/>
<path d="M59.7275 68.41C59.7275 54.09 47.5775 42.61 33.0275 43.7C20.7975 44.62 10.9875 54.57 10.2175 66.81C9.68753 75.27 13.4075 82.88 19.4375 87.73C22.2475 89.99 23.9375 93.34 23.9375 96.94V102.16C23.9375 103.51 25.0275 104.6 26.3775 104.6H43.4975C44.8475 104.6 45.9375 103.51 45.9375 102.16V96.94C45.9375 93.43 47.4775 90.06 50.2375 87.89C56.0075 83.35 59.7075 76.32 59.7075 68.41H59.7275Z" fill="#F5F8FF"/>
<path d="M55.0275 83.85C54.1275 85.02 53.1275 86.13 52.0175 87.12C51.4875 87.63 50.8675 88.09 50.3475 88.55C49.8275 88.99 49.3375 89.48 48.9175 90.02C48.2875 90.82 47.6775 91.71 47.4275 92.75C47.3075 93.26 46.8075 94.14 46.6675 95.09C46.5675 95.73 46.5275 96.37 46.5275 97.02V99.05V101.08V102.09C46.5275 102.47 46.4675 102.91 46.3175 103.29C46.0175 104.05 45.4075 104.67 44.6475 104.98C44.2775 105.14 43.8475 105.21 43.4675 105.21L42.4875 105.23L38.5475 105.28C35.9475 105.3 33.2575 105.21 30.7475 105.31C29.6575 105.35 28.6275 105.34 27.6075 105.31L26.8475 105.29C26.5975 105.29 26.3475 105.29 25.9975 105.25C25.3575 105.16 24.7374 104.86 24.2574 104.41C23.7474 103.93 23.3875 103.27 23.2975 102.56C23.2575 102.17 23.2675 101.92 23.2675 101.64V100.8C23.2675 99.68 23.2675 98.57 23.3075 97.49C23.4075 95.95 23.2375 94.48 22.6775 93.09C22.3275 92.23 21.8375 91.5 21.2775 90.67C20.7575 89.9 20.0775 89.05 19.3375 88.66C19.2675 88.62 18.9975 88.34 18.8175 88.16C18.0475 87.36 17.0675 86.47 16.3875 85.84C15.7075 85.25 15.2175 84.62 14.6975 83.98C13.2975 82.17 12.1375 80.16 11.2875 78.04C10.6575 76.44 10.2375 74.79 9.93745 73.1C9.62745 71.35 9.41745 69.44 9.54745 67.8C9.59745 66.98 9.70745 66.18 9.80745 65.38C9.87745 64.58 10.0475 63.8 10.2075 63.02C10.3475 62.11 10.8075 61.13 10.8275 60.35C10.8275 60.28 10.9275 59.94 11.0075 59.81C12.1175 57.44 13.0975 55.04 14.7675 52.95C16.4775 50.82 18.5075 48.84 20.8075 47.28C21.4375 46.89 22.0975 46.47 22.6575 46.05C22.8475 45.89 23.5375 45.52 23.8875 45.38C25.8375 44.71 27.8175 43.81 29.9075 43.48C32.2575 43.06 34.6875 42.8 37.0875 43.18C37.5875 43.27 38.1975 43.29 38.8075 43.41C39.4275 43.52 40.0675 43.61 40.6975 43.64C41.2775 43.64 42.3675 44.12 43.2175 44.34C43.9175 44.53 44.5775 44.78 45.2475 45.04C45.5275 45.16 45.8075 45.28 46.0775 45.44L46.8575 45.94C47.0175 46.04 47.2075 46.14 47.3775 46.22C50.5575 47.77 53.0875 50.33 55.2475 53.09C57.4375 55.88 58.9875 59.23 59.7575 62.71C59.9775 63.67 60.0675 64.67 60.1675 65.57C60.1875 66.49 60.1075 67.33 59.9775 67.99C59.8575 68.58 59.6875 68.58 59.5475 67.77C59.4475 67.18 59.3375 66.51 59.2875 65.84C59.1875 65.31 59.0875 64.78 58.9875 64.25C58.8875 63.73 58.7975 63.2 58.6275 62.71L58.1475 61.15C57.9875 60.63 57.7275 60.15 57.5375 59.64C57.1575 58.62 56.5975 57.67 56.1375 56.65C55.8375 56.02 55.2775 55.4 55.1075 54.83C55.0775 54.75 54.9375 54.5 54.8575 54.39C52.9375 52.1 50.8075 49.81 48.2475 48.15C46.0575 46.78 43.7175 45.83 41.2275 45.13C39.8075 44.96 38.1775 44.61 36.7475 44.49C31.6775 43.84 26.4675 45.33 22.1775 48.01C17.7775 50.72 14.3175 54.94 12.4775 59.77C12.1075 60.58 12.0675 61.35 11.6675 62.31C11.4975 62.76 11.4075 63.32 11.2875 63.88C11.1575 64.44 11.0975 65.03 11.0475 65.6C10.9075 66.63 10.8975 67.71 10.8575 68.69C10.6975 72.75 11.9075 76.84 13.9175 80.38C14.9075 82.15 16.1275 83.8 17.5375 85.26C18.2475 85.99 18.9975 86.67 19.7875 87.31C20.6275 87.99 21.3975 88.76 22.0575 89.62C23.6675 91.7 24.6775 94.33 24.6275 97.03C24.6075 98.12 24.7075 99.26 24.5375 100.33C24.4875 100.61 24.6175 101.7 24.6375 102.3C24.6875 102.93 25.0975 103.53 25.6775 103.78C25.8175 103.85 25.9675 103.9 26.1275 103.92C26.2775 103.95 26.4275 103.94 26.6675 103.95H27.9675C30.3775 103.95 32.7975 103.95 35.2075 103.95C36.6775 103.92 38.1375 103.88 39.6075 103.85C40.3775 103.85 41.1475 103.85 41.9275 103.84H43.0875C43.5275 103.84 43.7675 103.86 44.0175 103.78C44.6675 103.61 45.1875 103.01 45.2575 102.32C45.2975 101.46 45.3075 100.41 45.3175 99.46C45.3375 98.43 45.2975 97.45 45.3175 96.36C45.3575 95.28 45.5575 94.22 45.8975 93.25C46.5275 91.46 47.5275 89.81 48.8475 88.46C49.1775 88.12 49.5275 87.81 49.8975 87.51L50.9075 86.66C51.5675 86.07 52.1875 85.46 52.7975 84.82C55.1775 82.27 56.9975 79.17 58.0275 75.84C58.6075 73.95 59.0975 72.2 59.2475 70.25C59.3175 69.36 59.7675 68.12 59.9175 68.5C59.9475 68.57 59.9675 68.73 59.9775 68.88C60.0775 70.83 60.0775 72.69 59.4875 74.89C58.6275 78.13 57.1175 81.21 55.0675 83.87L55.0275 83.85Z" fill="#052DAB"/>
<path d="M22.9976 92.39C23.6076 93.81 23.9375 95.35 23.9375 96.94V102.16C23.9375 103.51 25.0275 104.6 26.3775 104.6H43.4976C44.8476 104.6 45.9375 103.51 45.9375 102.16V96.94C45.9375 95.36 46.2475 93.82 46.8475 92.39H22.9875H22.9976Z" fill="#90A6EE"/>
<path d="M29.2274 91.83H32.5574C32.9674 91.82 33.3874 91.9 33.8174 91.73C34.0274 91.65 34.4274 91.84 34.8174 91.83H37.9274L40.9474 91.72C41.9474 91.7 42.9774 91.79 43.9374 91.69C44.3574 91.65 44.7474 91.66 45.1374 91.69L45.7274 91.72C46.0874 91.72 46.4374 91.73 46.8074 91.72C47.1574 91.72 47.5174 91.71 47.8774 91.7C47.6674 92.26 47.3974 92.91 47.2174 93.45C47.1074 93.78 46.9974 94.11 46.8974 94.43C46.7174 94.97 46.5674 95.53 46.5574 96.1C46.5574 96.46 46.6374 96.78 46.6374 97.19C46.6374 97.57 46.5474 98 46.7374 98.33C46.7574 98.36 46.7174 98.53 46.6974 98.61C46.5774 99.02 46.5874 99.52 46.6674 99.86C46.7474 100.19 46.7374 100.49 46.7374 100.8V102.08C46.7674 102.6 46.6174 103.2 46.3474 103.68C45.9274 104.42 45.1974 104.92 44.4174 105.14C44.0274 105.26 43.5074 105.29 43.2174 105.29C42.8774 105.29 42.5474 105.29 42.2474 105.25C41.6274 105.16 41.0474 105.16 40.4374 105.16C40.0974 105.16 39.6974 105.07 39.4174 105.26C39.3874 105.28 39.2674 105.28 39.2074 105.26C38.2274 105.01 37.2674 105.34 36.2774 105.28C35.2574 105.22 34.2074 105.26 33.1674 105.27C32.8874 105.27 32.5974 105.22 32.3374 105.35C32.2474 105.4 31.9574 105.4 31.8174 105.37C31.0574 105.18 30.2474 105.3 29.4574 105.26C28.5674 105.22 27.6674 105.31 26.7674 105.17C26.4274 105.12 25.7574 105.08 25.1674 105C24.8774 104.97 24.4274 104.61 24.1374 104.31C23.8874 104.08 23.6274 103.84 23.4674 103.52C23.3374 103.25 23.3074 102.94 23.2974 102.64C23.2974 102.55 23.2774 102.45 23.2674 102.36C23.0474 100.96 23.3274 99.72 23.2674 98.39C23.2174 97.03 23.2674 95.79 22.9974 94.56C22.8574 93.88 22.6874 93.2 22.8174 92.62C22.8774 92.36 23.0274 92.29 23.2374 92.54C23.3874 92.73 23.5474 92.96 23.6474 93.21C23.8074 93.61 23.9674 94.02 24.0774 94.42C24.3174 95.26 24.5674 96.14 24.4774 97.06C24.4474 97.33 24.5374 97.65 24.3874 97.88C24.3674 97.91 24.3574 98.02 24.3674 98.08C24.6074 99.25 24.4474 100.46 24.4674 101.65C24.4674 102.21 24.5274 102.54 24.7174 102.87C24.9074 103.19 25.1574 103.45 25.4574 103.67C25.6674 103.7 25.8774 103.73 26.0874 103.76L26.4074 103.79C26.5574 103.8 26.7074 103.81 26.8474 103.83C28.8474 104.03 30.8674 103.9 32.8674 103.92H38.9774C39.3274 103.93 39.6274 103.83 40.0274 103.91C40.4074 103.99 40.8974 103.93 41.3474 103.93C41.7574 103.93 42.1774 103.89 42.5674 103.93L43.1674 103.99C43.3774 104.01 43.5674 104.02 43.7074 104.01C44.0174 103.99 44.3174 103.89 44.5774 103.71C45.0974 103.35 45.3874 102.74 45.3874 102.11C45.4074 100.52 45.4274 98.92 45.3874 97.34C45.3374 96.37 45.3074 95.31 45.5674 94.31C45.6174 94.1 45.6674 93.88 45.7074 93.66C45.7374 93.55 45.7674 93.44 45.8174 93.34C45.8674 93.22 45.8874 93.26 45.9474 93.2C46.0174 93.14 45.8974 93.07 45.9074 93.06V93.04H44.9874H42.2074C41.6474 93.06 41.0874 93.13 40.5174 93.15C39.9274 93.17 39.3274 93.17 38.7374 93.15L36.4974 93.05C35.7174 93.03 34.9174 93.11 34.1774 93.03C32.7974 92.88 31.4174 92.95 30.0474 92.94C28.6774 92.92 27.3074 92.91 25.9374 92.94C25.1574 92.96 24.4574 92.81 23.6974 92.81C23.3474 92.81 22.8674 92.37 23.0074 92.22C23.0374 92.19 23.0974 92.16 23.1474 92.15C23.8874 92.01 24.5774 91.79 25.4274 91.81C26.6874 91.83 27.9474 91.81 29.1974 91.81L29.2274 91.83Z" fill="#052DAB"/>
<path d="M131.827 126.45C147.479 126.45 160.167 113.762 160.167 98.11C160.167 82.4583 147.479 69.77 131.827 69.77C116.176 69.77 103.487 82.4583 103.487 98.11C103.487 113.762 116.176 126.45 131.827 126.45Z" fill="#052DAB"/>
<path d="M155.177 83.1C153.627 80.74 151.757 78.57 149.577 76.76C148.737 76.13 147.937 75.39 146.927 74.93C146.417 74.73 145.667 74 144.797 73.55C142.457 72.33 139.937 71.46 137.357 70.89C136.087 70.74 134.827 70.45 133.537 70.47C132.897 70.46 132.257 70.41 131.617 70.42L129.707 70.54C129.067 70.54 128.447 70.66 127.807 70.75C127.177 70.86 126.537 70.9 125.917 71.06C124.677 71.37 123.437 71.65 122.327 72.16C121.837 72.37 121.347 72.53 120.887 72.73C120.427 72.94 119.977 73.15 119.527 73.36C118.597 73.73 117.777 74.27 116.917 74.8C116.447 75.07 116.027 75.4 115.597 75.74L114.297 76.72C113.497 77.46 112.657 78.13 111.917 78.88C111.387 79.43 110.837 79.97 110.327 80.54C109.857 81.14 109.397 81.75 108.947 82.37C108.427 83.17 108.077 84 107.527 84.87C107.107 85.73 106.537 86.68 106.377 87.52C106.377 87.59 106.187 87.98 106.087 88.18C105.857 88.64 105.627 89.18 105.427 89.7C105.247 90.23 105.167 90.76 105.087 91.19C105.017 91.61 104.937 92 104.847 92.38C104.757 92.76 104.727 93.14 104.667 93.53L104.427 95.13C104.367 95.66 104.367 96.21 104.337 96.74C104.317 97.28 104.257 97.82 104.277 98.35L104.347 99.96C104.347 100.77 104.457 101.56 104.567 102.36L104.717 103.56C104.787 103.96 104.897 104.35 104.987 104.74C105.187 105.56 105.387 106.41 105.727 107.2C106.047 107.99 106.267 108.81 106.607 109.51C106.917 110.23 107.187 110.95 107.567 111.61C107.957 112.26 108.357 112.91 108.747 113.57C109.257 114.27 109.817 115.14 110.387 115.6C110.437 115.65 110.657 115.89 110.747 116.01C111.117 116.51 111.517 116.99 111.927 117.45C112.327 117.92 112.837 118.29 113.297 118.7C114.207 119.54 115.287 120.17 116.267 120.96C118.407 122.43 120.817 123.62 123.317 124.42C123.977 124.65 124.707 124.85 125.357 124.89C125.587 124.89 126.297 125.1 126.647 125.16C128.527 125.68 130.597 125.77 132.577 125.73L134.277 125.65C134.847 125.64 135.407 125.49 135.967 125.42C136.527 125.32 137.097 125.28 137.657 125.15C138.217 125.02 138.777 124.9 139.337 124.79C139.577 124.74 139.837 124.7 140.107 124.63C140.367 124.54 140.647 124.44 140.927 124.34C141.487 124.13 142.067 123.88 142.577 123.6C143.027 123.29 144.057 122.88 144.807 122.51C145.407 122.17 145.917 121.74 146.497 121.39C146.737 121.24 146.997 121.11 147.257 120.97L147.997 120.5C148.137 120.4 148.317 120.28 148.447 120.16C150.957 118.01 153.417 115.75 155.177 112.88C156.937 110.02 158.247 106.83 158.937 103.52C159.077 102.6 159.257 101.67 159.427 100.81C159.527 99.94 159.667 99.15 159.877 98.51C160.057 97.93 160.227 97.92 160.287 98.74C160.327 99.34 160.357 100.03 160.347 100.72C160.267 101.82 160.107 102.91 159.967 103.98C159.507 106.16 159.027 108.38 157.907 110.44C157.557 111.07 157.307 111.91 156.837 112.33C156.777 112.39 156.607 112.64 156.547 112.76C155.177 115.55 152.977 118.01 150.567 120.03C148.517 121.73 146.457 123.42 143.907 124.43C143.287 124.87 142.527 125.17 141.757 125.46C141.367 125.6 140.987 125.74 140.607 125.87C140.227 125.99 139.827 126.06 139.457 126.14C136.857 126.82 134.177 127.01 131.517 127.06C130.187 126.98 128.847 127 127.527 126.74C126.867 126.62 126.197 126.58 125.557 126.4L123.617 125.9C118.437 124.33 113.667 121.36 110.107 117.26C109.467 116.6 108.927 116.01 108.337 115.09C107.747 114.26 107.077 113.13 106.447 112.13C105.937 111.18 105.417 110.16 105.037 109.21C103.607 105.23 102.757 100.98 102.977 96.74C103.187 92.53 104.327 88.36 106.237 84.62C107.457 82.38 108.787 80.14 110.637 78.3C111.357 77.46 112.217 76.66 113.127 76.04C113.367 75.84 114.127 75.15 114.687 74.71C115.047 74.45 115.387 74.16 115.757 73.92L116.897 73.23L118.037 72.55L119.237 71.97C121.437 70.85 123.827 70.16 126.217 69.62C126.957 69.49 127.697 69.36 128.427 69.23C129.167 69.09 129.917 69.09 130.667 69.02L131.847 68.95L133.037 69.01C133.827 69.07 134.627 69.04 135.397 69.21C137.377 69.49 139.307 69.98 141.187 70.65C142.147 71.02 143.167 71.33 144.087 71.81C144.557 72.04 145.027 72.26 145.487 72.48C145.937 72.72 146.357 73.01 146.767 73.28C149.817 75.3 152.617 77.72 154.817 80.65C156.997 83.55 158.627 86.86 159.627 90.34C159.887 91.34 160.147 92.29 160.217 93.27C160.327 94.24 160.477 95.2 160.487 96.2C160.537 97.14 160.157 98.39 159.987 98.01C159.957 97.94 159.917 97.79 159.897 97.64C159.757 96.69 159.687 95.77 159.487 94.84C159.377 94.38 159.277 93.9 159.187 93.42C159.097 92.93 159.017 92.42 158.867 91.9C158.207 88.76 156.917 85.76 155.157 83.08L155.177 83.1Z" fill="#052DAB"/>
<path d="M131.827 122.5C147.479 122.5 160.167 109.812 160.167 94.16C160.167 78.5083 147.479 65.82 131.827 65.82C116.176 65.82 103.487 78.5083 103.487 94.16C103.487 109.812 116.176 122.5 131.827 122.5Z" fill="#F5F8FF"/>
<path d="M155.177 79.16C153.627 76.8 151.757 74.63 149.577 72.82C148.737 72.19 147.937 71.45 146.927 70.99C146.417 70.79 145.667 70.06 144.797 69.61C142.457 68.39 139.937 67.52 137.357 66.95C136.087 66.8 134.827 66.51 133.537 66.53C132.897 66.52 132.257 66.47 131.617 66.48L129.707 66.6C129.067 66.6 128.447 66.72 127.807 66.81C127.177 66.92 126.537 66.96 125.917 67.12C124.677 67.43 123.437 67.71 122.327 68.22C121.837 68.43 121.347 68.59 120.887 68.79C120.427 69 119.977 69.21 119.527 69.42C118.597 69.79 117.777 70.33 116.917 70.86C116.447 71.13 116.027 71.46 115.597 71.8L114.297 72.78C113.497 73.52 112.657 74.19 111.917 74.94C111.387 75.49 110.837 76.03 110.327 76.6C109.857 77.2 109.397 77.81 108.947 78.43C108.427 79.23 108.077 80.06 107.527 80.93C107.107 81.79 106.537 82.74 106.377 83.58C106.377 83.65 106.187 84.04 106.087 84.24C105.857 84.7 105.627 85.24 105.427 85.76C105.247 86.29 105.167 86.82 105.087 87.25C105.017 87.67 104.937 88.06 104.847 88.44C104.757 88.82 104.727 89.2 104.667 89.59L104.427 91.19C104.367 91.72 104.367 92.27 104.337 92.8C104.317 93.34 104.257 93.88 104.277 94.41L104.347 96.02C104.347 96.83 104.457 97.62 104.567 98.42L104.717 99.62C104.787 100.02 104.897 100.41 104.987 100.8C105.187 101.62 105.387 102.47 105.727 103.26C106.047 104.05 106.267 104.87 106.607 105.57C106.917 106.29 107.187 107.01 107.567 107.67C107.957 108.32 108.357 108.97 108.747 109.63C109.257 110.33 109.817 111.2 110.387 111.66C110.437 111.71 110.657 111.95 110.747 112.07C111.117 112.57 111.517 113.05 111.927 113.51C112.327 113.98 112.837 114.35 113.297 114.76C114.207 115.6 115.287 116.23 116.267 117.02C118.407 118.49 120.817 119.68 123.317 120.48C123.977 120.71 124.707 120.91 125.357 120.95C125.587 120.95 126.297 121.16 126.647 121.22C128.527 121.74 130.597 121.83 132.577 121.79L134.277 121.71C134.847 121.7 135.407 121.55 135.967 121.48C136.527 121.38 137.097 121.34 137.657 121.21C138.217 121.08 138.777 120.96 139.337 120.85C139.577 120.8 139.837 120.76 140.107 120.69C140.367 120.6 140.647 120.5 140.927 120.4C141.487 120.19 142.067 119.94 142.577 119.66C143.027 119.35 144.057 118.94 144.807 118.57C145.407 118.23 145.917 117.8 146.497 117.45C146.737 117.3 146.997 117.17 147.257 117.03L147.997 116.56C148.137 116.46 148.317 116.34 148.447 116.22C150.957 114.07 153.417 111.81 155.177 108.94C156.937 106.08 158.247 102.89 158.937 99.58C159.077 98.66 159.257 97.73 159.427 96.87C159.527 96 159.667 95.21 159.877 94.57C160.057 93.99 160.227 93.98 160.287 94.8C160.327 95.4 160.357 96.09 160.347 96.78C160.267 97.88 160.107 98.97 159.967 100.04C159.507 102.22 159.027 104.44 157.907 106.5C157.557 107.13 157.307 107.97 156.837 108.39C156.777 108.45 156.607 108.7 156.547 108.82C155.177 111.61 152.977 114.07 150.567 116.09C148.517 117.79 146.457 119.48 143.907 120.49C143.287 120.93 142.527 121.23 141.757 121.52C141.367 121.66 140.987 121.8 140.607 121.93C140.227 122.05 139.827 122.12 139.457 122.2C136.857 122.88 134.177 123.07 131.517 123.12C130.187 123.04 128.847 123.06 127.527 122.8C126.867 122.68 126.197 122.64 125.557 122.46L123.617 121.96C118.437 120.39 113.667 117.42 110.107 113.32C109.467 112.66 108.927 112.07 108.337 111.15C107.747 110.32 107.077 109.19 106.447 108.19C105.937 107.24 105.417 106.22 105.037 105.27C103.607 101.29 102.757 97.04 102.977 92.8C103.187 88.59 104.327 84.42 106.237 80.68C107.457 78.44 108.787 76.2 110.637 74.36C111.357 73.52 112.217 72.72 113.127 72.1C113.367 71.9 114.127 71.21 114.687 70.77C115.047 70.51 115.387 70.22 115.757 69.98L116.897 69.29L118.037 68.61L119.237 68.03C121.437 66.91 123.827 66.22 126.217 65.68C126.957 65.55 127.697 65.42 128.427 65.29C129.167 65.15 129.917 65.15 130.667 65.08L131.847 65.02L133.037 65.08C133.827 65.14 134.627 65.11 135.397 65.28C137.377 65.56 139.307 66.05 141.187 66.72C142.147 67.09 143.167 67.4 144.087 67.88C144.557 68.11 145.027 68.33 145.487 68.55C145.937 68.79 146.357 69.08 146.767 69.35C149.817 71.37 152.617 73.79 154.817 76.72C156.997 79.62 158.627 82.93 159.627 86.41C159.887 87.41 160.147 88.36 160.217 89.34C160.327 90.31 160.477 91.27 160.487 92.27C160.537 93.21 160.157 94.46 159.987 94.08C159.957 94.01 159.917 93.86 159.897 93.71C159.757 92.76 159.687 91.84 159.487 90.91C159.377 90.45 159.277 89.97 159.187 89.49C159.097 89 159.017 88.49 158.867 87.97C158.207 84.83 156.917 81.83 155.157 79.15L155.177 79.16Z" fill="#052DAB"/>
<path d="M37.3475 82.6C37.3175 81.11 37.2975 79.63 37.2975 78.13C37.2975 77.57 37.3975 77 37.2775 76.41C37.2175 76.11 37.4575 75.58 37.5275 75.06C37.7075 73.64 38.1275 72.23 38.8475 70.93C39.5375 69.69 40.5675 68.48 42.0875 67.96C43.5575 67.47 45.3675 67.83 46.4775 69.05C46.9575 69.56 47.1975 70.21 47.2775 70.82C47.3675 71.44 47.3075 72.04 47.1975 72.64C46.9675 73.95 46.0975 75.09 45.1275 75.78C44.4175 76.3 43.6675 76.67 42.9375 77.07C42.4775 77.3 42.0775 77.61 41.5375 77.79C41.0475 77.99 40.4475 78.06 40.0575 78.38C40.0275 78.41 39.7875 78.44 39.6575 78.43C39.0775 78.45 38.3975 78.58 37.9375 78.72C37.4875 78.88 37.0775 78.88 36.6475 78.92C35.4575 78.99 34.2675 78.95 33.0875 78.77C32.2075 78.61 31.3575 78.37 30.5175 78.08C29.6375 77.81 28.6875 77.5 27.9675 77.04C27.2375 76.58 26.5475 76.15 25.8675 75.68C25.4775 75.4 25.1075 74.99 24.6775 74.86C24.6375 74.85 24.5075 74.72 24.4575 74.65C24.0375 74.07 23.5875 73.54 23.1975 72.93C22.8075 72.32 22.5175 71.58 22.4975 70.81C22.4875 70.02 22.6375 69.18 23.0775 68.45C23.5175 67.71 24.2475 67.16 25.0275 66.89C25.4475 66.75 25.9075 66.73 26.2975 66.58C26.4375 66.52 26.8975 66.53 27.1075 66.6C27.6875 66.76 28.2575 66.95 28.7975 67.21C29.3475 67.47 29.8675 67.84 30.2575 68.26C31.1775 69.22 31.8575 70.38 32.1375 71.61C32.2575 72.13 32.4275 72.82 32.7375 73.39C32.8875 73.65 32.9275 74.25 33.0375 74.69C33.1175 75.05 33.2575 75.38 33.3275 75.74C33.3775 76.05 33.3475 76.36 33.3675 76.68C33.3675 76.77 33.3875 76.89 33.4075 76.98C33.8275 78.73 33.6575 80.53 33.6575 82.31C33.6575 84.11 33.4375 85.94 33.0375 87.71C32.8275 88.69 32.4975 89.67 31.9775 90.22C31.7475 90.47 31.5875 90.41 31.6075 89.99C31.6175 89.68 31.6575 89.33 31.7175 88.99C31.8275 88.45 31.9075 87.9 31.9875 87.37C32.1475 86.26 32.1475 85.15 32.3275 84.02C32.3775 83.66 32.3275 83.24 32.4875 82.95C32.5075 82.91 32.5275 82.76 32.5175 82.69C32.3475 81.15 32.4575 79.56 32.2775 78C32.1275 76.68 31.7375 75.44 31.5175 74.12C31.1775 73.44 30.9975 72.63 30.7975 71.94C30.4675 70.73 29.8475 69.61 28.9275 68.86C28.0475 68.15 26.7875 67.86 25.7175 68.09C24.6075 68.3 23.8475 69.22 23.8075 70.37C23.7375 71.52 24.2975 72.63 25.1675 73.52C25.4675 73.83 25.8075 73.99 26.1575 74.37C26.4875 74.73 27.0575 75.03 27.5375 75.33C27.9975 75.57 28.4775 75.83 28.9075 76.06C30.6775 77.1 32.7875 77.5 34.8375 77.6C36.8775 77.73 38.9775 77.44 40.8775 76.7C42.0375 76.25 43.1175 75.61 44.0775 74.91C44.4975 74.6 44.7875 74.18 45.2275 73.9C45.3575 73.82 45.5075 73.36 45.6175 73.09C45.9175 72.41 46.0275 71.62 45.8675 70.91C45.6675 69.92 44.8675 69.22 43.8475 69.11C43.2275 69.04 42.6075 69.22 42.0775 69.49C41.4975 69.78 40.9775 70.23 40.5275 70.76C39.9575 71.43 39.4875 72.24 39.1875 73.12C38.8575 74.04 38.7675 75.07 38.5875 76.01C38.2675 77.77 38.3975 79.62 38.3975 81.45C38.4075 83.27 38.4675 85.09 38.5975 86.9C38.6775 87.93 38.5875 88.87 38.6575 89.88C38.6875 90.35 38.3075 91.02 38.1375 90.84C38.1075 90.81 38.0675 90.73 38.0575 90.65C37.8375 89.67 37.5575 88.78 37.5075 87.64C37.4275 85.96 37.3475 84.28 37.3075 82.59L37.3475 82.6Z" fill="#90A6EE"/>
<path d="M127.747 105.76C128.887 105.74 130.037 105.7 131.177 105.59C131.597 105.55 132.037 105.59 132.467 105.38C132.677 105.28 133.107 105.42 133.497 105.36C134.547 105.21 135.617 105.07 136.657 104.85C137.667 104.64 138.627 104.33 139.487 103.91C140.347 103.51 141.177 102.98 141.577 102.19C141.917 101.54 142.277 100.95 142.247 100.27C142.207 99.57 141.877 98.92 141.417 98.36C141.087 97.94 140.637 97.57 140.117 97.37C139.787 97.25 139.447 97.24 139.077 97.14C138.737 97.05 138.327 96.91 137.987 97.06C137.957 97.07 137.797 97.02 137.717 96.99C137.327 96.83 136.817 96.82 136.467 96.9C136.127 96.97 135.817 96.96 135.497 96.96C134.617 96.96 133.727 96.96 132.847 96.94C132.187 96.92 131.527 96.85 130.867 96.83C130.177 96.81 129.437 96.89 128.797 96.79C128.157 96.69 127.537 96.71 126.897 96.68C126.527 96.67 126.107 96.54 125.777 96.69C125.747 96.7 125.607 96.69 125.537 96.66C124.527 96.27 123.347 96.23 122.407 95.45C121.477 94.7 120.667 93.51 120.637 92.18C120.617 91.83 120.717 91.49 120.637 91.15C120.607 91.03 120.697 90.68 120.787 90.53C121.267 89.72 121.687 88.88 122.397 88.26C123.177 87.58 124.047 87 125.017 86.76C125.427 86.66 125.957 86.5 126.377 86.19C126.567 86.05 127.047 85.99 127.377 85.89C127.647 85.8 127.897 85.65 128.167 85.58C128.397 85.52 128.647 85.53 128.897 85.51C128.967 85.51 129.057 85.49 129.127 85.46C130.447 84.96 131.867 85 133.247 84.82C134.647 84.64 136.097 84.66 137.517 84.82C138.297 84.91 139.107 85.1 139.547 85.54C139.747 85.74 139.707 85.9 139.377 85.93C139.127 85.96 138.857 85.97 138.587 85.95C138.157 85.91 137.727 85.9 137.317 85.89C136.447 85.87 135.597 86.01 134.697 85.96C134.417 85.94 134.097 86.05 133.857 85.91C133.827 85.89 133.707 85.89 133.657 85.91C132.487 86.23 131.247 86.26 130.047 86.52C129.027 86.74 128.097 87.17 127.077 87.37C126.577 87.71 125.957 87.88 125.427 88.04C124.497 88.32 123.637 88.82 123.027 89.5C122.417 90.18 122.027 91.06 121.967 91.91C121.897 92.78 122.277 93.59 122.967 94.19C123.657 94.79 124.547 95.15 125.507 95.31C125.837 95.37 126.137 95.3 126.527 95.41C126.897 95.52 127.397 95.47 127.857 95.47C128.277 95.47 128.727 95.43 129.127 95.48C130.787 95.69 132.457 95.58 134.127 95.61C135.777 95.66 137.447 95.58 139.187 95.89C140.237 96.08 141.367 96.45 142.197 97.28C142.537 97.62 142.967 98 143.047 98.54C143.067 98.68 143.387 99.06 143.467 99.4C143.687 100.22 143.567 101.08 143.287 101.83C142.887 102.87 142.177 103.74 141.307 104.39C140.787 104.78 140.247 105.14 139.667 105.4C139.057 105.67 138.417 105.85 137.787 105.98C136.987 106.14 136.207 106.21 135.427 106.32C134.617 106.43 133.787 106.63 132.997 106.63C131.537 106.64 130.097 106.82 128.647 106.85C127.207 106.88 125.767 106.85 124.327 106.82C123.507 106.8 122.777 106.6 121.987 106.53C121.617 106.49 121.167 106.01 121.337 105.87C121.367 105.84 121.427 105.82 121.497 105.81C122.277 105.75 122.997 105.59 123.867 105.66C125.157 105.76 126.457 105.77 127.757 105.75L127.747 105.76Z" fill="#90A6EE"/>
<path d="M128.558 106.98C128.508 106.53 128.478 106.08 128.408 105.63C128.388 105.46 128.448 105.28 128.268 105.13C128.178 105.05 128.348 104.87 128.328 104.72C128.258 104.3 128.248 103.88 128.178 103.46L127.948 102.25C127.888 101.85 127.928 101.42 127.798 101.04C127.678 100.71 127.798 100.39 127.728 100.07C127.658 99.73 127.588 99.38 127.628 99.04C127.658 98.79 127.688 98.54 127.628 98.3C127.588 98.15 127.478 98.02 127.468 97.85C127.468 97.7 127.518 97.51 127.318 97.4C127.298 97.4 127.318 97.32 127.348 97.28C127.448 97.1 127.418 96.9 127.328 96.77C127.228 96.64 127.228 96.52 127.218 96.4C127.168 96.06 127.128 95.71 127.108 95.37C127.098 95.11 127.138 94.85 127.128 94.59C127.118 94.32 126.998 94.04 127.068 93.78C127.128 93.52 127.098 93.28 127.068 93.04C127.058 92.9 127.118 92.73 126.918 92.64C126.898 92.64 126.898 92.58 126.918 92.55C127.118 92.13 126.758 91.77 126.778 91.36C126.798 90.94 126.708 90.52 126.668 90.1C126.658 89.99 126.698 89.86 126.558 89.77C126.508 89.74 126.488 89.62 126.518 89.56C126.678 89.23 126.538 88.91 126.538 88.59C126.538 88.22 126.428 87.86 126.548 87.48C126.598 87.32 126.618 87.1 126.428 86.93C126.338 86.85 126.408 86.66 126.388 86.53C126.368 86.42 126.278 86.32 126.278 86.21C126.278 86.12 126.338 86.02 126.368 85.92C126.368 85.89 126.368 85.86 126.368 85.83C126.148 85.3 126.398 84.75 126.338 84.21C126.278 83.66 126.308 83.11 126.348 82.56C126.368 82.26 126.448 81.94 126.798 81.76C126.958 81.68 127.118 81.69 127.218 81.82C127.288 81.92 127.348 82.03 127.358 82.13C127.388 82.3 127.408 82.47 127.438 82.63C127.488 82.97 127.638 83.31 127.548 83.66C127.518 83.77 127.608 83.9 127.458 83.99C127.438 84 127.428 84.05 127.438 84.07C127.678 84.54 127.528 85.03 127.568 85.51C127.598 85.92 127.808 86.3 127.748 86.72C127.948 86.93 127.928 87.2 127.888 87.43C127.738 88.25 127.948 89.05 127.998 89.86C128.048 90.68 128.158 91.5 128.238 92.33C128.248 92.47 128.368 92.58 128.308 92.75C128.248 92.91 128.328 93.11 128.348 93.29C128.368 93.45 128.428 93.62 128.398 93.78C128.268 94.44 128.458 95.08 128.508 95.73C128.558 96.38 128.608 97.02 128.718 97.66C128.788 98.05 128.938 98.43 128.938 98.83C128.938 99 129.058 99.17 128.898 99.35C128.848 99.4 129.008 99.55 129.018 99.65C129.058 99.92 129.078 100.19 129.108 100.46C129.148 100.83 129.178 101.21 129.228 101.58C129.268 101.81 129.358 102.03 129.398 102.25C129.438 102.49 129.468 102.73 129.478 102.97C129.478 103.28 129.458 103.58 129.478 103.89C129.488 104.21 129.608 104.52 129.558 104.83C129.468 105.4 129.598 105.95 129.648 106.51C129.688 107.07 129.738 107.62 129.828 108.17C129.878 108.48 129.768 108.78 129.798 109.09C129.818 109.23 129.398 109.47 129.238 109.43C129.208 109.43 129.178 109.4 129.158 109.38C128.988 109.09 128.738 108.84 128.718 108.49C128.688 107.98 128.618 107.47 128.558 106.96V106.98Z" fill="#90A6EE"/>
<path d="M134.777 106.98C134.727 106.53 134.697 106.08 134.627 105.63C134.607 105.46 134.667 105.28 134.487 105.13C134.397 105.05 134.567 104.87 134.547 104.72C134.477 104.3 134.467 103.88 134.397 103.46L134.167 102.25C134.107 101.85 134.147 101.42 134.007 101.04C133.887 100.71 134.007 100.39 133.937 100.07C133.867 99.73 133.797 99.38 133.837 99.04C133.867 98.79 133.907 98.54 133.837 98.3C133.797 98.15 133.687 98.02 133.677 97.85C133.677 97.7 133.727 97.51 133.527 97.4C133.507 97.4 133.527 97.32 133.557 97.28C133.657 97.1 133.627 96.9 133.537 96.77C133.437 96.64 133.437 96.52 133.427 96.4C133.377 96.06 133.337 95.71 133.317 95.37C133.307 95.11 133.347 94.85 133.337 94.59C133.327 94.32 133.207 94.04 133.277 93.78C133.337 93.52 133.307 93.28 133.277 93.04C133.267 92.9 133.327 92.73 133.127 92.64C133.107 92.64 133.107 92.58 133.127 92.55C133.327 92.13 132.967 91.77 132.987 91.36C133.007 90.94 132.917 90.52 132.877 90.1C132.867 89.99 132.907 89.86 132.767 89.77C132.717 89.74 132.697 89.62 132.727 89.56C132.887 89.23 132.747 88.91 132.747 88.59C132.747 88.22 132.637 87.86 132.757 87.48C132.807 87.32 132.827 87.1 132.637 86.93C132.547 86.85 132.617 86.66 132.597 86.53C132.577 86.42 132.487 86.32 132.487 86.21C132.487 86.12 132.547 86.02 132.577 85.92C132.577 85.89 132.577 85.86 132.577 85.83C132.357 85.3 132.607 84.75 132.547 84.21C132.487 83.66 132.517 83.11 132.557 82.56C132.577 82.26 132.657 81.94 133.007 81.76C133.167 81.68 133.327 81.69 133.427 81.82C133.497 81.92 133.557 82.03 133.567 82.13C133.597 82.3 133.617 82.47 133.647 82.63C133.697 82.97 133.847 83.31 133.757 83.66C133.727 83.77 133.817 83.9 133.667 83.99C133.647 84 133.637 84.05 133.647 84.07C133.887 84.54 133.737 85.03 133.777 85.51C133.807 85.92 134.017 86.3 133.957 86.72C134.157 86.93 134.137 87.2 134.097 87.43C133.947 88.25 134.157 89.05 134.207 89.86C134.257 90.68 134.367 91.5 134.447 92.33C134.457 92.47 134.577 92.58 134.517 92.75C134.457 92.91 134.537 93.11 134.557 93.29C134.577 93.45 134.637 93.62 134.607 93.78C134.477 94.44 134.667 95.08 134.717 95.73C134.767 96.38 134.817 97.02 134.927 97.66C134.997 98.05 135.147 98.43 135.147 98.83C135.147 99 135.267 99.17 135.107 99.35C135.067 99.4 135.217 99.55 135.227 99.65C135.267 99.92 135.287 100.19 135.317 100.46C135.357 100.83 135.387 101.21 135.437 101.58C135.477 101.81 135.567 102.03 135.607 102.25C135.647 102.49 135.677 102.73 135.687 102.97C135.697 103.28 135.667 103.58 135.687 103.89C135.697 104.21 135.817 104.52 135.767 104.83C135.677 105.4 135.807 105.95 135.857 106.51C135.897 107.07 135.947 107.62 136.037 108.17C136.087 108.48 135.967 108.78 136.007 109.09C136.027 109.23 135.607 109.47 135.447 109.43C135.417 109.43 135.387 109.4 135.367 109.38C135.197 109.09 134.947 108.84 134.927 108.49C134.897 107.98 134.827 107.47 134.767 106.96L134.777 106.98Z" fill="#90A6EE"/>
</svg>
