<svg width="139" height="32" viewBox="0 0 139 32" fill="none" xmlns="http://www.w3.org/2000/svg">
<g clip-path="url(#clip0_316_928)">
<path d="M0 31.318H10.4557V10.4863H31.3024V-0.00195312H0V31.318Z" fill="#A857F1"/>
<path d="M22.2856 31.9441C27.4949 31.9441 31.7178 27.6906 31.7178 22.4437C31.7178 17.1968 27.4949 12.9434 22.2856 12.9434C17.0764 12.9434 12.8535 17.1968 12.8535 22.4437C12.8535 27.6906 17.0764 31.9441 22.2856 31.9441Z" fill="#A857F1"/>
<path d="M126.913 30.881C124.987 30.881 123.506 30.3694 122.469 29.3461C121.453 28.3229 120.945 26.8307 120.945 24.8694V15.5962H117.04V10.1921H120.945V3.15723H127.453V10.1921H133.009V15.5962H127.453V23.4944C127.453 24.1553 127.622 24.6562 127.961 24.9973C128.3 25.3384 128.797 25.509 129.453 25.509H133.009V30.881H126.913Z" fill="black"/>
<path d="M95.4824 10.1916H101.387V11.9184C102.064 11.1722 102.89 10.5967 103.863 10.1916C104.858 9.76525 105.959 9.54139 107.165 9.52008C108.35 9.49876 109.461 9.7013 110.498 10.1276C111.536 10.554 112.435 11.1509 113.197 11.9184C113.959 12.7071 114.541 13.6771 114.943 14.8282C115.367 15.9581 115.578 17.3437 115.578 18.9852V30.8805H109.038V19.6567C109.038 18.804 108.953 18.1431 108.784 17.6742C108.636 17.1838 108.393 16.7681 108.054 16.4271C107.44 15.8302 106.604 15.5317 105.546 15.5317C104.488 15.5317 103.652 15.8302 103.038 16.4271C102.678 16.7681 102.414 17.1838 102.244 17.6742C102.096 18.1431 102.022 18.804 102.022 19.6567V30.8805H95.4824V10.1916Z" fill="black"/>
<path d="M81.7273 31.4246C79.5895 31.4246 77.6422 30.945 75.8855 29.9856C74.1504 29.0476 72.7745 27.7366 71.7583 26.0525C70.7637 24.3897 70.2666 22.5457 70.2666 20.5205C70.2666 18.4953 70.7637 16.6407 71.7583 14.9566C72.7745 13.2725 74.1504 11.9507 75.8855 10.9915C77.6422 10.0108 79.5895 9.52051 81.7273 9.52051C83.8647 9.52051 85.8013 10.0108 87.5369 10.9915C89.2935 11.9507 90.6694 13.2725 91.6641 14.9566C92.6587 16.6407 93.1563 18.4953 93.1563 20.5205C93.1563 22.5457 92.6587 24.3897 91.6641 26.0525C90.6694 27.7366 89.2935 29.0476 87.5369 29.9856C85.8013 30.945 83.8647 31.4246 81.7273 31.4246ZM81.7273 25.6048C82.6159 25.6048 83.4097 25.381 84.1081 24.9333C84.8276 24.4856 85.3887 23.8781 85.791 23.1106C86.1928 22.3432 86.3941 21.4798 86.3941 20.5205C86.3941 19.5612 86.1928 18.6979 85.791 17.9304C85.3887 17.1629 84.8276 16.5661 84.1081 16.1397C83.4097 15.692 82.6159 15.4682 81.7273 15.4682C80.8172 15.4682 80.0025 15.692 79.2825 16.1397C78.584 16.5661 78.0337 17.1629 77.6319 17.9304C77.2297 18.6979 77.0288 19.5612 77.0288 20.5205C77.0288 21.4798 77.2297 22.3432 77.6319 23.1106C78.0337 23.8781 78.5948 24.4856 79.3143 24.9333C80.0342 25.381 80.8383 25.6048 81.7273 25.6048Z" fill="black"/>
<path d="M55.7832 10.1923H61.6563V12.6546C62.3547 11.7805 63.191 11.109 64.1642 10.64C65.1593 10.171 66.2278 9.93652 67.371 9.93652C68.1115 9.93652 68.831 10.0005 69.5294 10.1284V16.3318C69.0216 16.14 68.3231 16.044 67.4346 16.044C65.868 16.044 64.63 16.5237 63.7199 17.483C63.2331 17.9733 62.8626 18.5702 62.6089 19.2737C62.3758 19.9772 62.2594 20.8832 62.2594 21.9918V30.8813H55.7832V10.1923Z" fill="black"/>
<path d="M37.0566 -0.328125H53.6923V5.90731H43.7553V12.0149H53.5017V18.0265H43.7553V30.8811H37.0566V-0.328125Z" fill="black"/>
</g>
<defs>
<clipPath id="clip0_316_928">
<rect width="138.323" height="32" fill="white"/>
</clipPath>
</defs>
</svg>
