<svg width="1600" height="800" viewBox="0 0 1600 800" fill="none" xmlns="http://www.w3.org/2000/svg">
<g opacity="0.6">
<mask id="mask0_373_925" style="mask-type:alpha" maskUnits="userSpaceOnUse" x="0" y="0" width="1600" height="800">
<rect width="1600" height="800" fill="url(#paint0_radial_373_925)"/>
</mask>
<g mask="url(#mask0_373_925)">
<mask id="path-2-inside-1_373_925" fill="white">
<path d="M0 0H80V80H0V0Z"/>
</mask>
<path d="M0 0H80V80H0V0Z" fill="#F8F9FC"/>
<path d="M0 0V-1H-1V0H0ZM0 0V1H80V0V-1H0V0ZM0 80H1V0H0H-1V80H0Z" fill="#ADB2CE" mask="url(#path-2-inside-1_373_925)"/>
<mask id="path-4-inside-2_373_925" fill="white">
<path d="M80 0H160V80H80V0Z"/>
</mask>
<path d="M80 0H160V80H80V0Z" fill="#F8F9FC"/>
<path d="M80 0V-1H79V0H80ZM80 0V1H160V0V-1H80V0ZM80 80H81V0H80H79V80H80Z" fill="#ADB2CE" mask="url(#path-4-inside-2_373_925)"/>
<mask id="path-6-inside-3_373_925" fill="white">
<path d="M160 0H240V80H160V0Z"/>
</mask>
<path d="M160 0H240V80H160V0Z" fill="#F8F9FC"/>
<path d="M160 0V-1H159V0H160ZM160 0V1H240V0V-1H160V0ZM160 80H161V0H160H159V80H160Z" fill="#ADB2CE" mask="url(#path-6-inside-3_373_925)"/>
<mask id="path-8-inside-4_373_925" fill="white">
<path d="M240 0H320V80H240V0Z"/>
</mask>
<path d="M240 0H320V80H240V0Z" fill="#F8F9FC"/>
<path d="M240 0V-1H239V0H240ZM240 0V1H320V0V-1H240V0ZM240 80H241V0H240H239V80H240Z" fill="#ADB2CE" mask="url(#path-8-inside-4_373_925)"/>
<mask id="path-10-inside-5_373_925" fill="white">
<path d="M320 0H400V80H320V0Z"/>
</mask>
<path d="M320 0H400V80H320V0Z" fill="#F8F9FC"/>
<path d="M320 0V-1H319V0H320ZM320 0V1H400V0V-1H320V0ZM320 80H321V0H320H319V80H320Z" fill="#ADB2CE" mask="url(#path-10-inside-5_373_925)"/>
<mask id="path-12-inside-6_373_925" fill="white">
<path d="M400 0H480V80H400V0Z"/>
</mask>
<path d="M400 0H480V80H400V0Z" fill="#F8F9FC"/>
<path d="M400 0V-1H399V0H400ZM400 0V1H480V0V-1H400V0ZM400 80H401V0H400H399V80H400Z" fill="#ADB2CE" mask="url(#path-12-inside-6_373_925)"/>
<mask id="path-14-inside-7_373_925" fill="white">
<path d="M480 0H560V80H480V0Z"/>
</mask>
<path d="M480 0H560V80H480V0Z" fill="#F8F9FC"/>
<path d="M480 0V-1H479V0H480ZM480 0V1H560V0V-1H480V0ZM480 80H481V0H480H479V80H480Z" fill="#ADB2CE" mask="url(#path-14-inside-7_373_925)"/>
<mask id="path-16-inside-8_373_925" fill="white">
<path d="M560 0H640V80H560V0Z"/>
</mask>
<path d="M560 0H640V80H560V0Z" fill="#F8F9FC"/>
<path d="M560 0V-1H559V0H560ZM560 0V1H640V0V-1H560V0ZM560 80H561V0H560H559V80H560Z" fill="#ADB2CE" mask="url(#path-16-inside-8_373_925)"/>
<mask id="path-18-inside-9_373_925" fill="white">
<path d="M640 0H720V80H640V0Z"/>
</mask>
<path d="M640 0H720V80H640V0Z" fill="#F8F9FC"/>
<path d="M640 0V-1H639V0H640ZM640 0V1H720V0V-1H640V0ZM640 80H641V0H640H639V80H640Z" fill="#ADB2CE" mask="url(#path-18-inside-9_373_925)"/>
<mask id="path-20-inside-10_373_925" fill="white">
<path d="M720 0H800V80H720V0Z"/>
</mask>
<path d="M720 0H800V80H720V0Z" fill="#F8F9FC"/>
<path d="M720 0V-1H719V0H720ZM720 0V1H800V0V-1H720V0ZM720 80H721V0H720H719V80H720Z" fill="#ADB2CE" mask="url(#path-20-inside-10_373_925)"/>
<mask id="path-22-inside-11_373_925" fill="white">
<path d="M800 0H880V80H800V0Z"/>
</mask>
<path d="M800 0H880V80H800V0Z" fill="#F8F9FC"/>
<path d="M800 0V-1H799V0H800ZM800 0V1H880V0V-1H800V0ZM800 80H801V0H800H799V80H800Z" fill="#ADB2CE" mask="url(#path-22-inside-11_373_925)"/>
<mask id="path-24-inside-12_373_925" fill="white">
<path d="M880 0H960V80H880V0Z"/>
</mask>
<path d="M880 0H960V80H880V0Z" fill="#F8F9FC"/>
<path d="M880 0V-1H879V0H880ZM880 0V1H960V0V-1H880V0ZM880 80H881V0H880H879V80H880Z" fill="#ADB2CE" mask="url(#path-24-inside-12_373_925)"/>
<mask id="path-26-inside-13_373_925" fill="white">
<path d="M960 0H1040V80H960V0Z"/>
</mask>
<path d="M960 0H1040V80H960V0Z" fill="#F8F9FC"/>
<path d="M960 0V-1H959V0H960ZM960 0V1H1040V0V-1H960V0ZM960 80H961V0H960H959V80H960Z" fill="#ADB2CE" mask="url(#path-26-inside-13_373_925)"/>
<mask id="path-28-inside-14_373_925" fill="white">
<path d="M1040 0H1120V80H1040V0Z"/>
</mask>
<path d="M1040 0H1120V80H1040V0Z" fill="#F8F9FC"/>
<path d="M1040 0V-1H1039V0H1040ZM1040 0V1H1120V0V-1H1040V0ZM1040 80H1041V0H1040H1039V80H1040Z" fill="#ADB2CE" mask="url(#path-28-inside-14_373_925)"/>
<mask id="path-30-inside-15_373_925" fill="white">
<path d="M1120 0H1200V80H1120V0Z"/>
</mask>
<path d="M1120 0H1200V80H1120V0Z" fill="#F8F9FC"/>
<path d="M1120 0V-1H1119V0H1120ZM1120 0V1H1200V0V-1H1120V0ZM1120 80H1121V0H1120H1119V80H1120Z" fill="#ADB2CE" mask="url(#path-30-inside-15_373_925)"/>
<mask id="path-32-inside-16_373_925" fill="white">
<path d="M1200 0H1280V80H1200V0Z"/>
</mask>
<path d="M1200 0H1280V80H1200V0Z" fill="#F8F9FC"/>
<path d="M1200 0V-1H1199V0H1200ZM1200 0V1H1280V0V-1H1200V0ZM1200 80H1201V0H1200H1199V80H1200Z" fill="#ADB2CE" mask="url(#path-32-inside-16_373_925)"/>
<mask id="path-34-inside-17_373_925" fill="white">
<path d="M1280 0H1360V80H1280V0Z"/>
</mask>
<path d="M1280 0H1360V80H1280V0Z" fill="#F8F9FC"/>
<path d="M1280 0V-1H1279V0H1280ZM1280 0V1H1360V0V-1H1280V0ZM1280 80H1281V0H1280H1279V80H1280Z" fill="#ADB2CE" mask="url(#path-34-inside-17_373_925)"/>
<mask id="path-36-inside-18_373_925" fill="white">
<path d="M1360 0H1440V80H1360V0Z"/>
</mask>
<path d="M1360 0H1440V80H1360V0Z" fill="#F8F9FC"/>
<path d="M1360 0V-1H1359V0H1360ZM1360 0V1H1440V0V-1H1360V0ZM1360 80H1361V0H1360H1359V80H1360Z" fill="#ADB2CE" mask="url(#path-36-inside-18_373_925)"/>
<mask id="path-38-inside-19_373_925" fill="white">
<path d="M1440 0H1520V80H1440V0Z"/>
</mask>
<path d="M1440 0H1520V80H1440V0Z" fill="#F8F9FC"/>
<path d="M1440 0V-1H1439V0H1440ZM1440 0V1H1520V0V-1H1440V0ZM1440 80H1441V0H1440H1439V80H1440Z" fill="#ADB2CE" mask="url(#path-38-inside-19_373_925)"/>
<mask id="path-40-inside-20_373_925" fill="white">
<path d="M1520 0H1600V80H1520V0Z"/>
</mask>
<path d="M1520 0H1600V80H1520V0Z" fill="#F8F9FC"/>
<path d="M1520 0V-1H1519V0H1520ZM1520 0V1H1600V0V-1H1520V0ZM1520 80H1521V0H1520H1519V80H1520Z" fill="#ADB2CE" mask="url(#path-40-inside-20_373_925)"/>
<mask id="path-42-inside-21_373_925" fill="white">
<path d="M0 80H80V160H0V80Z"/>
</mask>
<path d="M0 80H80V160H0V80Z" fill="#F8F9FC"/>
<path d="M0 80V79H-1V80H0ZM0 80V81H80V80V79H0V80ZM0 160H1V80H0H-1V160H0Z" fill="#ADB2CE" mask="url(#path-42-inside-21_373_925)"/>
<mask id="path-44-inside-22_373_925" fill="white">
<path d="M80 80H160V160H80V80Z"/>
</mask>
<path d="M80 80H160V160H80V80Z" fill="#F8F9FC"/>
<path d="M80 80V79H79V80H80ZM80 80V81H160V80V79H80V80ZM80 160H81V80H80H79V160H80Z" fill="#ADB2CE" mask="url(#path-44-inside-22_373_925)"/>
<mask id="path-46-inside-23_373_925" fill="white">
<path d="M160 80H240V160H160V80Z"/>
</mask>
<path d="M160 80H240V160H160V80Z" fill="#F8F9FC"/>
<path d="M160 80V79H159V80H160ZM160 80V81H240V80V79H160V80ZM160 160H161V80H160H159V160H160Z" fill="#ADB2CE" mask="url(#path-46-inside-23_373_925)"/>
<mask id="path-48-inside-24_373_925" fill="white">
<path d="M240 80H320V160H240V80Z"/>
</mask>
<path d="M240 80H320V160H240V80Z" fill="#F8F9FC"/>
<path d="M240 80V79H239V80H240ZM240 80V81H320V80V79H240V80ZM240 160H241V80H240H239V160H240Z" fill="#ADB2CE" mask="url(#path-48-inside-24_373_925)"/>
<mask id="path-50-inside-25_373_925" fill="white">
<path d="M320 80H400V160H320V80Z"/>
</mask>
<path d="M320 80H400V160H320V80Z" fill="#F8F9FC"/>
<path d="M320 80V79H319V80H320ZM320 80V81H400V80V79H320V80ZM320 160H321V80H320H319V160H320Z" fill="#ADB2CE" mask="url(#path-50-inside-25_373_925)"/>
<mask id="path-52-inside-26_373_925" fill="white">
<path d="M400 80H480V160H400V80Z"/>
</mask>
<path d="M400 80H480V160H400V80Z" fill="#F8F9FC"/>
<path d="M400 80V79H399V80H400ZM400 80V81H480V80V79H400V80ZM400 160H401V80H400H399V160H400Z" fill="#ADB2CE" mask="url(#path-52-inside-26_373_925)"/>
<mask id="path-54-inside-27_373_925" fill="white">
<path d="M480 80H560V160H480V80Z"/>
</mask>
<path d="M480 80H560V160H480V80Z" fill="#F8F9FC"/>
<path d="M480 80V79H479V80H480ZM480 80V81H560V80V79H480V80ZM480 160H481V80H480H479V160H480Z" fill="#ADB2CE" mask="url(#path-54-inside-27_373_925)"/>
<mask id="path-56-inside-28_373_925" fill="white">
<path d="M560 80H640V160H560V80Z"/>
</mask>
<path d="M560 80H640V160H560V80Z" fill="#F8F9FC"/>
<path d="M560 80V79H559V80H560ZM560 80V81H640V80V79H560V80ZM560 160H561V80H560H559V160H560Z" fill="#ADB2CE" mask="url(#path-56-inside-28_373_925)"/>
<mask id="path-58-inside-29_373_925" fill="white">
<path d="M640 80H720V160H640V80Z"/>
</mask>
<path d="M640 80H720V160H640V80Z" fill="#3661ED"/>
<path d="M640 80V79H639V80H640ZM640 80V81H720V80V79H640V80ZM640 160H641V80H640H639V160H640Z" fill="#ADB2CE" mask="url(#path-58-inside-29_373_925)"/>
<mask id="path-60-inside-30_373_925" fill="white">
<path d="M720 80H800V160H720V80Z"/>
</mask>
<path d="M720 80H800V160H720V80Z" fill="#F8F9FC"/>
<path d="M720 80V79H719V80H720ZM720 80V81H800V80V79H720V80ZM720 160H721V80H720H719V160H720Z" fill="#ADB2CE" mask="url(#path-60-inside-30_373_925)"/>
<mask id="path-62-inside-31_373_925" fill="white">
<path d="M800 80H880V160H800V80Z"/>
</mask>
<path d="M800 80H880V160H800V80Z" fill="#F8F9FC"/>
<path d="M800 80V79H799V80H800ZM800 80V81H880V80V79H800V80ZM800 160H801V80H800H799V160H800Z" fill="#ADB2CE" mask="url(#path-62-inside-31_373_925)"/>
<mask id="path-64-inside-32_373_925" fill="white">
<path d="M880 80H960V160H880V80Z"/>
</mask>
<path d="M880 80H960V160H880V80Z" fill="#F8F9FC"/>
<path d="M880 80V79H879V80H880ZM880 80V81H960V80V79H880V80ZM880 160H881V80H880H879V160H880Z" fill="#ADB2CE" mask="url(#path-64-inside-32_373_925)"/>
<mask id="path-66-inside-33_373_925" fill="white">
<path d="M960 80H1040V160H960V80Z"/>
</mask>
<path d="M960 80H1040V160H960V80Z" fill="#F8F9FC"/>
<path d="M960 80V79H959V80H960ZM960 80V81H1040V80V79H960V80ZM960 160H961V80H960H959V160H960Z" fill="#ADB2CE" mask="url(#path-66-inside-33_373_925)"/>
<mask id="path-68-inside-34_373_925" fill="white">
<path d="M1040 80H1120V160H1040V80Z"/>
</mask>
<path d="M1040 80H1120V160H1040V80Z" fill="#F8F9FC"/>
<path d="M1040 80V79H1039V80H1040ZM1040 80V81H1120V80V79H1040V80ZM1040 160H1041V80H1040H1039V160H1040Z" fill="#ADB2CE" mask="url(#path-68-inside-34_373_925)"/>
<mask id="path-70-inside-35_373_925" fill="white">
<path d="M1120 80H1200V160H1120V80Z"/>
</mask>
<path d="M1120 80H1200V160H1120V80Z" fill="#F8F9FC"/>
<path d="M1120 80V79H1119V80H1120ZM1120 80V81H1200V80V79H1120V80ZM1120 160H1121V80H1120H1119V160H1120Z" fill="#ADB2CE" mask="url(#path-70-inside-35_373_925)"/>
<mask id="path-72-inside-36_373_925" fill="white">
<path d="M1200 80H1280V160H1200V80Z"/>
</mask>
<path d="M1200 80H1280V160H1200V80Z" fill="#F8F9FC"/>
<path d="M1200 80V79H1199V80H1200ZM1200 80V81H1280V80V79H1200V80ZM1200 160H1201V80H1200H1199V160H1200Z" fill="#ADB2CE" mask="url(#path-72-inside-36_373_925)"/>
<mask id="path-74-inside-37_373_925" fill="white">
<path d="M1280 80H1360V160H1280V80Z"/>
</mask>
<path d="M1280 80H1360V160H1280V80Z" fill="#F8F9FC"/>
<path d="M1280 80V79H1279V80H1280ZM1280 80V81H1360V80V79H1280V80ZM1280 160H1281V80H1280H1279V160H1280Z" fill="#ADB2CE" mask="url(#path-74-inside-37_373_925)"/>
<mask id="path-76-inside-38_373_925" fill="white">
<path d="M1360 80H1440V160H1360V80Z"/>
</mask>
<path d="M1360 80H1440V160H1360V80Z" fill="#F8F9FC"/>
<path d="M1360 80V79H1359V80H1360ZM1360 80V81H1440V80V79H1360V80ZM1360 160H1361V80H1360H1359V160H1360Z" fill="#ADB2CE" mask="url(#path-76-inside-38_373_925)"/>
<mask id="path-78-inside-39_373_925" fill="white">
<path d="M1440 80H1520V160H1440V80Z"/>
</mask>
<path d="M1440 80H1520V160H1440V80Z" fill="#F8F9FC"/>
<path d="M1440 80V79H1439V80H1440ZM1440 80V81H1520V80V79H1440V80ZM1440 160H1441V80H1440H1439V160H1440Z" fill="#ADB2CE" mask="url(#path-78-inside-39_373_925)"/>
<mask id="path-80-inside-40_373_925" fill="white">
<path d="M1520 80H1600V160H1520V80Z"/>
</mask>
<path d="M1520 80H1600V160H1520V80Z" fill="#F8F9FC"/>
<path d="M1520 80V79H1519V80H1520ZM1520 80V81H1600V80V79H1520V80ZM1520 160H1521V80H1520H1519V160H1520Z" fill="#ADB2CE" mask="url(#path-80-inside-40_373_925)"/>
<mask id="path-82-inside-41_373_925" fill="white">
<path d="M0 160H80V240H0V160Z"/>
</mask>
<path d="M0 160H80V240H0V160Z" fill="#F8F9FC"/>
<path d="M0 160V159H-1V160H0ZM0 160V161H80V160V159H0V160ZM0 240H1V160H0H-1V240H0Z" fill="#ADB2CE" mask="url(#path-82-inside-41_373_925)"/>
<mask id="path-84-inside-42_373_925" fill="white">
<path d="M80 160H160V240H80V160Z"/>
</mask>
<path d="M80 160H160V240H80V160Z" fill="#F8F9FC"/>
<path d="M80 160V159H79V160H80ZM80 160V161H160V160V159H80V160ZM80 240H81V160H80H79V240H80Z" fill="#ADB2CE" mask="url(#path-84-inside-42_373_925)"/>
<mask id="path-86-inside-43_373_925" fill="white">
<path d="M160 160H240V240H160V160Z"/>
</mask>
<path d="M160 160H240V240H160V160Z" fill="#F8F9FC"/>
<path d="M160 160V159H159V160H160ZM160 160V161H240V160V159H160V160ZM160 240H161V160H160H159V240H160Z" fill="#ADB2CE" mask="url(#path-86-inside-43_373_925)"/>
<mask id="path-88-inside-44_373_925" fill="white">
<path d="M240 160H320V240H240V160Z"/>
</mask>
<path d="M240 160H320V240H240V160Z" fill="#F8F9FC"/>
<path d="M240 160V159H239V160H240ZM240 160V161H320V160V159H240V160ZM240 240H241V160H240H239V240H240Z" fill="#ADB2CE" mask="url(#path-88-inside-44_373_925)"/>
<mask id="path-90-inside-45_373_925" fill="white">
<path d="M320 160H400V240H320V160Z"/>
</mask>
<path d="M320 160H400V240H320V160Z" fill="#F8F9FC"/>
<path d="M320 160V159H319V160H320ZM320 160V161H400V160V159H320V160ZM320 240H321V160H320H319V240H320Z" fill="#ADB2CE" mask="url(#path-90-inside-45_373_925)"/>
<mask id="path-92-inside-46_373_925" fill="white">
<path d="M400 160H480V240H400V160Z"/>
</mask>
<path d="M400 160H480V240H400V160Z" fill="#F8F9FC"/>
<path d="M400 160V159H399V160H400ZM400 160V161H480V160V159H400V160ZM400 240H401V160H400H399V240H400Z" fill="#ADB2CE" mask="url(#path-92-inside-46_373_925)"/>
<mask id="path-94-inside-47_373_925" fill="white">
<path d="M480 160H560V240H480V160Z"/>
</mask>
<path d="M480 160H560V240H480V160Z" fill="#F8F9FC"/>
<path d="M480 160V159H479V160H480ZM480 160V161H560V160V159H480V160ZM480 240H481V160H480H479V240H480Z" fill="#ADB2CE" mask="url(#path-94-inside-47_373_925)"/>
<mask id="path-96-inside-48_373_925" fill="white">
<path d="M560 160H640V240H560V160Z"/>
</mask>
<path d="M560 160H640V240H560V160Z" fill="#F8F9FC"/>
<path d="M560 160V159H559V160H560ZM560 160V161H640V160V159H560V160ZM560 240H561V160H560H559V240H560Z" fill="#ADB2CE" mask="url(#path-96-inside-48_373_925)"/>
<mask id="path-98-inside-49_373_925" fill="white">
<path d="M640 160H720V240H640V160Z"/>
</mask>
<path d="M640 160H720V240H640V160Z" fill="#F8F9FC"/>
<path d="M640 160V159H639V160H640ZM640 160V161H720V160V159H640V160ZM640 240H641V160H640H639V240H640Z" fill="#ADB2CE" mask="url(#path-98-inside-49_373_925)"/>
<mask id="path-100-inside-50_373_925" fill="white">
<path d="M720 160H800V240H720V160Z"/>
</mask>
<path d="M720 160H800V240H720V160Z" fill="#F8F9FC"/>
<path d="M720 160V159H719V160H720ZM720 160V161H800V160V159H720V160ZM720 240H721V160H720H719V240H720Z" fill="#ADB2CE" mask="url(#path-100-inside-50_373_925)"/>
<mask id="path-102-inside-51_373_925" fill="white">
<path d="M800 160H880V240H800V160Z"/>
</mask>
<path d="M800 160H880V240H800V160Z" fill="#F8F9FC"/>
<path d="M800 160V159H799V160H800ZM800 160V161H880V160V159H800V160ZM800 240H801V160H800H799V240H800Z" fill="#ADB2CE" mask="url(#path-102-inside-51_373_925)"/>
<mask id="path-104-inside-52_373_925" fill="white">
<path d="M880 160H960V240H880V160Z"/>
</mask>
<path d="M880 160H960V240H880V160Z" fill="#F8F9FC"/>
<path d="M880 160V159H879V160H880ZM880 160V161H960V160V159H880V160ZM880 240H881V160H880H879V240H880Z" fill="#ADB2CE" mask="url(#path-104-inside-52_373_925)"/>
<mask id="path-106-inside-53_373_925" fill="white">
<path d="M960 160H1040V240H960V160Z"/>
</mask>
<path d="M960 160H1040V240H960V160Z" fill="#F8F9FC"/>
<path d="M960 160V159H959V160H960ZM960 160V161H1040V160V159H960V160ZM960 240H961V160H960H959V240H960Z" fill="#ADB2CE" mask="url(#path-106-inside-53_373_925)"/>
<mask id="path-108-inside-54_373_925" fill="white">
<path d="M1040 160H1120V240H1040V160Z"/>
</mask>
<path d="M1040 160H1120V240H1040V160Z" fill="#F8F9FC"/>
<path d="M1040 160V159H1039V160H1040ZM1040 160V161H1120V160V159H1040V160ZM1040 240H1041V160H1040H1039V240H1040Z" fill="#ADB2CE" mask="url(#path-108-inside-54_373_925)"/>
<mask id="path-110-inside-55_373_925" fill="white">
<path d="M1120 160H1200V240H1120V160Z"/>
</mask>
<path d="M1120 160H1200V240H1120V160Z" fill="#F8F9FC"/>
<path d="M1120 160V159H1119V160H1120ZM1120 160V161H1200V160V159H1120V160ZM1120 240H1121V160H1120H1119V240H1120Z" fill="#ADB2CE" mask="url(#path-110-inside-55_373_925)"/>
<mask id="path-112-inside-56_373_925" fill="white">
<path d="M1200 160H1280V240H1200V160Z"/>
</mask>
<path d="M1200 160H1280V240H1200V160Z" fill="#F8F9FC"/>
<path d="M1200 160V159H1199V160H1200ZM1200 160V161H1280V160V159H1200V160ZM1200 240H1201V160H1200H1199V240H1200Z" fill="#ADB2CE" mask="url(#path-112-inside-56_373_925)"/>
<mask id="path-114-inside-57_373_925" fill="white">
<path d="M1280 160H1360V240H1280V160Z"/>
</mask>
<path d="M1280 160H1360V240H1280V160Z" fill="#F8F9FC"/>
<path d="M1280 160V159H1279V160H1280ZM1280 160V161H1360V160V159H1280V160ZM1280 240H1281V160H1280H1279V240H1280Z" fill="#ADB2CE" mask="url(#path-114-inside-57_373_925)"/>
<mask id="path-116-inside-58_373_925" fill="white">
<path d="M1360 160H1440V240H1360V160Z"/>
</mask>
<path d="M1360 160H1440V240H1360V160Z" fill="#F8F9FC"/>
<path d="M1360 160V159H1359V160H1360ZM1360 160V161H1440V160V159H1360V160ZM1360 240H1361V160H1360H1359V240H1360Z" fill="#ADB2CE" mask="url(#path-116-inside-58_373_925)"/>
<mask id="path-118-inside-59_373_925" fill="white">
<path d="M1440 160H1520V240H1440V160Z"/>
</mask>
<path d="M1440 160H1520V240H1440V160Z" fill="#F8F9FC"/>
<path d="M1440 160V159H1439V160H1440ZM1440 160V161H1520V160V159H1440V160ZM1440 240H1441V160H1440H1439V240H1440Z" fill="#ADB2CE" mask="url(#path-118-inside-59_373_925)"/>
<mask id="path-120-inside-60_373_925" fill="white">
<path d="M1520 160H1600V240H1520V160Z"/>
</mask>
<path d="M1520 160H1600V240H1520V160Z" fill="#F8F9FC"/>
<path d="M1520 160V159H1519V160H1520ZM1520 160V161H1600V160V159H1520V160ZM1520 240H1521V160H1520H1519V240H1520Z" fill="#ADB2CE" mask="url(#path-120-inside-60_373_925)"/>
<mask id="path-122-inside-61_373_925" fill="white">
<path d="M0 240H80V320H0V240Z"/>
</mask>
<path d="M0 240H80V320H0V240Z" fill="#F8F9FC"/>
<path d="M0 240V239H-1V240H0ZM0 240V241H80V240V239H0V240ZM0 320H1V240H0H-1V320H0Z" fill="#ADB2CE" mask="url(#path-122-inside-61_373_925)"/>
<mask id="path-124-inside-62_373_925" fill="white">
<path d="M80 240H160V320H80V240Z"/>
</mask>
<path d="M80 240H160V320H80V240Z" fill="#F8F9FC"/>
<path d="M80 240V239H79V240H80ZM80 240V241H160V240V239H80V240ZM80 320H81V240H80H79V320H80Z" fill="#ADB2CE" mask="url(#path-124-inside-62_373_925)"/>
<mask id="path-126-inside-63_373_925" fill="white">
<path d="M160 240H240V320H160V240Z"/>
</mask>
<path d="M160 240H240V320H160V240Z" fill="#F8F9FC"/>
<path d="M160 240V239H159V240H160ZM160 240V241H240V240V239H160V240ZM160 320H161V240H160H159V320H160Z" fill="#ADB2CE" mask="url(#path-126-inside-63_373_925)"/>
<mask id="path-128-inside-64_373_925" fill="white">
<path d="M240 240H320V320H240V240Z"/>
</mask>
<path d="M240 240H320V320H240V240Z" fill="#F8F9FC"/>
<path d="M240 240V239H239V240H240ZM240 240V241H320V240V239H240V240ZM240 320H241V240H240H239V320H240Z" fill="#ADB2CE" mask="url(#path-128-inside-64_373_925)"/>
<mask id="path-130-inside-65_373_925" fill="white">
<path d="M320 240H400V320H320V240Z"/>
</mask>
<path d="M320 240H400V320H320V240Z" fill="#F8F9FC"/>
<path d="M320 240V239H319V240H320ZM320 240V241H400V240V239H320V240ZM320 320H321V240H320H319V320H320Z" fill="#ADB2CE" mask="url(#path-130-inside-65_373_925)"/>
<mask id="path-132-inside-66_373_925" fill="white">
<path d="M400 240H480V320H400V240Z"/>
</mask>
<path d="M400 240H480V320H400V240Z" fill="#F8F9FC"/>
<path d="M400 240V239H399V240H400ZM400 240V241H480V240V239H400V240ZM400 320H401V240H400H399V320H400Z" fill="#ADB2CE" mask="url(#path-132-inside-66_373_925)"/>
<mask id="path-134-inside-67_373_925" fill="white">
<path d="M480 240H560V320H480V240Z"/>
</mask>
<path d="M480 240H560V320H480V240Z" fill="#F8F9FC"/>
<path d="M480 240V239H479V240H480ZM480 240V241H560V240V239H480V240ZM480 320H481V240H480H479V320H480Z" fill="#ADB2CE" mask="url(#path-134-inside-67_373_925)"/>
<mask id="path-136-inside-68_373_925" fill="white">
<path d="M560 240H640V320H560V240Z"/>
</mask>
<path d="M560 240H640V320H560V240Z" fill="#F8F9FC"/>
<path d="M560 240V239H559V240H560ZM560 240V241H640V240V239H560V240ZM560 320H561V240H560H559V320H560Z" fill="#ADB2CE" mask="url(#path-136-inside-68_373_925)"/>
<mask id="path-138-inside-69_373_925" fill="white">
<path d="M640 240H720V320H640V240Z"/>
</mask>
<path d="M640 240H720V320H640V240Z" fill="#F8F9FC"/>
<path d="M640 240V239H639V240H640ZM640 240V241H720V240V239H640V240ZM640 320H641V240H640H639V320H640Z" fill="#ADB2CE" mask="url(#path-138-inside-69_373_925)"/>
<mask id="path-140-inside-70_373_925" fill="white">
<path d="M720 240H800V320H720V240Z"/>
</mask>
<path d="M720 240H800V320H720V240Z" fill="#F8F9FC"/>
<path d="M720 240V239H719V240H720ZM720 240V241H800V240V239H720V240ZM720 320H721V240H720H719V320H720Z" fill="#ADB2CE" mask="url(#path-140-inside-70_373_925)"/>
<mask id="path-142-inside-71_373_925" fill="white">
<path d="M800 240H880V320H800V240Z"/>
</mask>
<path d="M800 240H880V320H800V240Z" fill="#F8F9FC"/>
<path d="M800 240V239H799V240H800ZM800 240V241H880V240V239H800V240ZM800 320H801V240H800H799V320H800Z" fill="#ADB2CE" mask="url(#path-142-inside-71_373_925)"/>
<mask id="path-144-inside-72_373_925" fill="white">
<path d="M880 240H960V320H880V240Z"/>
</mask>
<path d="M880 240H960V320H880V240Z" fill="#F8F9FC"/>
<path d="M880 240V239H879V240H880ZM880 240V241H960V240V239H880V240ZM880 320H881V240H880H879V320H880Z" fill="#ADB2CE" mask="url(#path-144-inside-72_373_925)"/>
<mask id="path-146-inside-73_373_925" fill="white">
<path d="M960 240H1040V320H960V240Z"/>
</mask>
<path d="M960 240H1040V320H960V240Z" fill="#F8F9FC"/>
<path d="M960 240V239H959V240H960ZM960 240V241H1040V240V239H960V240ZM960 320H961V240H960H959V320H960Z" fill="#ADB2CE" mask="url(#path-146-inside-73_373_925)"/>
<mask id="path-148-inside-74_373_925" fill="white">
<path d="M1040 240H1120V320H1040V240Z"/>
</mask>
<path d="M1040 240H1120V320H1040V240Z" fill="#F8F9FC"/>
<path d="M1040 240V239H1039V240H1040ZM1040 240V241H1120V240V239H1040V240ZM1040 320H1041V240H1040H1039V320H1040Z" fill="#ADB2CE" mask="url(#path-148-inside-74_373_925)"/>
<mask id="path-150-inside-75_373_925" fill="white">
<path d="M1120 240H1200V320H1120V240Z"/>
</mask>
<path d="M1120 240H1200V320H1120V240Z" fill="#F8F9FC"/>
<path d="M1120 240V239H1119V240H1120ZM1120 240V241H1200V240V239H1120V240ZM1120 320H1121V240H1120H1119V320H1120Z" fill="#ADB2CE" mask="url(#path-150-inside-75_373_925)"/>
<mask id="path-152-inside-76_373_925" fill="white">
<path d="M1200 240H1280V320H1200V240Z"/>
</mask>
<path d="M1200 240H1280V320H1200V240Z" fill="#3661ED"/>
<path d="M1200 240V239H1199V240H1200ZM1200 240V241H1280V240V239H1200V240ZM1200 320H1201V240H1200H1199V320H1200Z" fill="#ADB2CE" mask="url(#path-152-inside-76_373_925)"/>
<mask id="path-154-inside-77_373_925" fill="white">
<path d="M1280 240H1360V320H1280V240Z"/>
</mask>
<path d="M1280 240H1360V320H1280V240Z" fill="#F8F9FC"/>
<path d="M1280 240V239H1279V240H1280ZM1280 240V241H1360V240V239H1280V240ZM1280 320H1281V240H1280H1279V320H1280Z" fill="#ADB2CE" mask="url(#path-154-inside-77_373_925)"/>
<mask id="path-156-inside-78_373_925" fill="white">
<path d="M1360 240H1440V320H1360V240Z"/>
</mask>
<path d="M1360 240H1440V320H1360V240Z" fill="#F8F9FC"/>
<path d="M1360 240V239H1359V240H1360ZM1360 240V241H1440V240V239H1360V240ZM1360 320H1361V240H1360H1359V320H1360Z" fill="#ADB2CE" mask="url(#path-156-inside-78_373_925)"/>
<mask id="path-158-inside-79_373_925" fill="white">
<path d="M1440 240H1520V320H1440V240Z"/>
</mask>
<path d="M1440 240H1520V320H1440V240Z" fill="#F8F9FC"/>
<path d="M1440 240V239H1439V240H1440ZM1440 240V241H1520V240V239H1440V240ZM1440 320H1441V240H1440H1439V320H1440Z" fill="#ADB2CE" mask="url(#path-158-inside-79_373_925)"/>
<mask id="path-160-inside-80_373_925" fill="white">
<path d="M1520 240H1600V320H1520V240Z"/>
</mask>
<path d="M1520 240H1600V320H1520V240Z" fill="#F8F9FC"/>
<path d="M1520 240V239H1519V240H1520ZM1520 240V241H1600V240V239H1520V240ZM1520 320H1521V240H1520H1519V320H1520Z" fill="#ADB2CE" mask="url(#path-160-inside-80_373_925)"/>
<mask id="path-162-inside-81_373_925" fill="white">
<path d="M0 320H80V400H0V320Z"/>
</mask>
<path d="M0 320H80V400H0V320Z" fill="#F8F9FC"/>
<path d="M0 320V319H-1V320H0ZM0 320V321H80V320V319H0V320ZM0 400H1V320H0H-1V400H0Z" fill="#ADB2CE" mask="url(#path-162-inside-81_373_925)"/>
<mask id="path-164-inside-82_373_925" fill="white">
<path d="M80 320H160V400H80V320Z"/>
</mask>
<path d="M80 320H160V400H80V320Z" fill="#F8F9FC"/>
<path d="M80 320V319H79V320H80ZM80 320V321H160V320V319H80V320ZM80 400H81V320H80H79V400H80Z" fill="#ADB2CE" mask="url(#path-164-inside-82_373_925)"/>
<mask id="path-166-inside-83_373_925" fill="white">
<path d="M160 320H240V400H160V320Z"/>
</mask>
<path d="M160 320H240V400H160V320Z" fill="#F8F9FC"/>
<path d="M160 320V319H159V320H160ZM160 320V321H240V320V319H160V320ZM160 400H161V320H160H159V400H160Z" fill="#ADB2CE" mask="url(#path-166-inside-83_373_925)"/>
<mask id="path-168-inside-84_373_925" fill="white">
<path d="M240 320H320V400H240V320Z"/>
</mask>
<path d="M240 320H320V400H240V320Z" fill="#F8F9FC"/>
<path d="M240 320V319H239V320H240ZM240 320V321H320V320V319H240V320ZM240 400H241V320H240H239V400H240Z" fill="#ADB2CE" mask="url(#path-168-inside-84_373_925)"/>
<mask id="path-170-inside-85_373_925" fill="white">
<path d="M320 320H400V400H320V320Z"/>
</mask>
<path d="M320 320H400V400H320V320Z" fill="#F8F9FC"/>
<path d="M320 320V319H319V320H320ZM320 320V321H400V320V319H320V320ZM320 400H321V320H320H319V400H320Z" fill="#ADB2CE" mask="url(#path-170-inside-85_373_925)"/>
<mask id="path-172-inside-86_373_925" fill="white">
<path d="M400 320H480V400H400V320Z"/>
</mask>
<path d="M400 320H480V400H400V320Z" fill="#90A6EE"/>
<path d="M400 320V319H399V320H400ZM400 320V321H480V320V319H400V320ZM400 400H401V320H400H399V400H400Z" fill="#ADB2CE" mask="url(#path-172-inside-86_373_925)"/>
<mask id="path-174-inside-87_373_925" fill="white">
<path d="M480 320H560V400H480V320Z"/>
</mask>
<path d="M480 320H560V400H480V320Z" fill="#F8F9FC"/>
<path d="M480 320V319H479V320H480ZM480 320V321H560V320V319H480V320ZM480 400H481V320H480H479V400H480Z" fill="#ADB2CE" mask="url(#path-174-inside-87_373_925)"/>
<mask id="path-176-inside-88_373_925" fill="white">
<path d="M560 320H640V400H560V320Z"/>
</mask>
<path d="M560 320H640V400H560V320Z" fill="#F8F9FC"/>
<path d="M560 320V319H559V320H560ZM560 320V321H640V320V319H560V320ZM560 400H561V320H560H559V400H560Z" fill="#ADB2CE" mask="url(#path-176-inside-88_373_925)"/>
<mask id="path-178-inside-89_373_925" fill="white">
<path d="M640 320H720V400H640V320Z"/>
</mask>
<path d="M640 320H720V400H640V320Z" fill="#F8F9FC"/>
<path d="M640 320V319H639V320H640ZM640 320V321H720V320V319H640V320ZM640 400H641V320H640H639V400H640Z" fill="#ADB2CE" mask="url(#path-178-inside-89_373_925)"/>
<mask id="path-180-inside-90_373_925" fill="white">
<path d="M720 320H800V400H720V320Z"/>
</mask>
<path d="M720 320H800V400H720V320Z" fill="#F8F9FC"/>
<path d="M720 320V319H719V320H720ZM720 320V321H800V320V319H720V320ZM720 400H721V320H720H719V400H720Z" fill="#ADB2CE" mask="url(#path-180-inside-90_373_925)"/>
<mask id="path-182-inside-91_373_925" fill="white">
<path d="M800 320H880V400H800V320Z"/>
</mask>
<path d="M800 320H880V400H800V320Z" fill="#F8F9FC"/>
<path d="M800 320V319H799V320H800ZM800 320V321H880V320V319H800V320ZM800 400H801V320H800H799V400H800Z" fill="#ADB2CE" mask="url(#path-182-inside-91_373_925)"/>
<mask id="path-184-inside-92_373_925" fill="white">
<path d="M880 320H960V400H880V320Z"/>
</mask>
<path d="M880 320H960V400H880V320Z" fill="#F8F9FC"/>
<path d="M880 320V319H879V320H880ZM880 320V321H960V320V319H880V320ZM880 400H881V320H880H879V400H880Z" fill="#ADB2CE" mask="url(#path-184-inside-92_373_925)"/>
<mask id="path-186-inside-93_373_925" fill="white">
<path d="M960 320H1040V400H960V320Z"/>
</mask>
<path d="M960 320H1040V400H960V320Z" fill="#F8F9FC"/>
<path d="M960 320V319H959V320H960ZM960 320V321H1040V320V319H960V320ZM960 400H961V320H960H959V400H960Z" fill="#ADB2CE" mask="url(#path-186-inside-93_373_925)"/>
<mask id="path-188-inside-94_373_925" fill="white">
<path d="M1040 320H1120V400H1040V320Z"/>
</mask>
<path d="M1040 320H1120V400H1040V320Z" fill="#F8F9FC"/>
<path d="M1040 320V319H1039V320H1040ZM1040 320V321H1120V320V319H1040V320ZM1040 400H1041V320H1040H1039V400H1040Z" fill="#ADB2CE" mask="url(#path-188-inside-94_373_925)"/>
<mask id="path-190-inside-95_373_925" fill="white">
<path d="M1120 320H1200V400H1120V320Z"/>
</mask>
<path d="M1120 320H1200V400H1120V320Z" fill="#F8F9FC"/>
<path d="M1120 320V319H1119V320H1120ZM1120 320V321H1200V320V319H1120V320ZM1120 400H1121V320H1120H1119V400H1120Z" fill="#ADB2CE" mask="url(#path-190-inside-95_373_925)"/>
<mask id="path-192-inside-96_373_925" fill="white">
<path d="M1200 320H1280V400H1200V320Z"/>
</mask>
<path d="M1200 320H1280V400H1200V320Z" fill="#F8F9FC"/>
<path d="M1200 320V319H1199V320H1200ZM1200 320V321H1280V320V319H1200V320ZM1200 400H1201V320H1200H1199V400H1200Z" fill="#ADB2CE" mask="url(#path-192-inside-96_373_925)"/>
<mask id="path-194-inside-97_373_925" fill="white">
<path d="M1280 320H1360V400H1280V320Z"/>
</mask>
<path d="M1280 320H1360V400H1280V320Z" fill="#F8F9FC"/>
<path d="M1280 320V319H1279V320H1280ZM1280 320V321H1360V320V319H1280V320ZM1280 400H1281V320H1280H1279V400H1280Z" fill="#ADB2CE" mask="url(#path-194-inside-97_373_925)"/>
<mask id="path-196-inside-98_373_925" fill="white">
<path d="M1360 320H1440V400H1360V320Z"/>
</mask>
<path d="M1360 320H1440V400H1360V320Z" fill="#F8F9FC"/>
<path d="M1360 320V319H1359V320H1360ZM1360 320V321H1440V320V319H1360V320ZM1360 400H1361V320H1360H1359V400H1360Z" fill="#ADB2CE" mask="url(#path-196-inside-98_373_925)"/>
<mask id="path-198-inside-99_373_925" fill="white">
<path d="M1440 320H1520V400H1440V320Z"/>
</mask>
<path d="M1440 320H1520V400H1440V320Z" fill="#F8F9FC"/>
<path d="M1440 320V319H1439V320H1440ZM1440 320V321H1520V320V319H1440V320ZM1440 400H1441V320H1440H1439V400H1440Z" fill="#ADB2CE" mask="url(#path-198-inside-99_373_925)"/>
<mask id="path-200-inside-100_373_925" fill="white">
<path d="M1520 320H1600V400H1520V320Z"/>
</mask>
<path d="M1520 320H1600V400H1520V320Z" fill="#F8F9FC"/>
<path d="M1520 320V319H1519V320H1520ZM1520 320V321H1600V320V319H1520V320ZM1520 400H1521V320H1520H1519V400H1520Z" fill="#ADB2CE" mask="url(#path-200-inside-100_373_925)"/>
<mask id="path-202-inside-101_373_925" fill="white">
<path d="M0 400H80V480H0V400Z"/>
</mask>
<path d="M0 400H80V480H0V400Z" fill="#F8F9FC"/>
<path d="M0 400V399H-1V400H0ZM0 400V401H80V400V399H0V400ZM0 480H1V400H0H-1V480H0Z" fill="#ADB2CE" mask="url(#path-202-inside-101_373_925)"/>
<mask id="path-204-inside-102_373_925" fill="white">
<path d="M80 400H160V480H80V400Z"/>
</mask>
<path d="M80 400H160V480H80V400Z" fill="#F8F9FC"/>
<path d="M80 400V399H79V400H80ZM80 400V401H160V400V399H80V400ZM80 480H81V400H80H79V480H80Z" fill="#ADB2CE" mask="url(#path-204-inside-102_373_925)"/>
<mask id="path-206-inside-103_373_925" fill="white">
<path d="M160 400H240V480H160V400Z"/>
</mask>
<path d="M160 400H240V480H160V400Z" fill="#F8F9FC"/>
<path d="M160 400V399H159V400H160ZM160 400V401H240V400V399H160V400ZM160 480H161V400H160H159V480H160Z" fill="#ADB2CE" mask="url(#path-206-inside-103_373_925)"/>
<mask id="path-208-inside-104_373_925" fill="white">
<path d="M240 400H320V480H240V400Z"/>
</mask>
<path d="M240 400H320V480H240V400Z" fill="#F8F9FC"/>
<path d="M240 400V399H239V400H240ZM240 400V401H320V400V399H240V400ZM240 480H241V400H240H239V480H240Z" fill="#ADB2CE" mask="url(#path-208-inside-104_373_925)"/>
<mask id="path-210-inside-105_373_925" fill="white">
<path d="M320 400H400V480H320V400Z"/>
</mask>
<path d="M320 400H400V480H320V400Z" fill="#F8F9FC"/>
<path d="M320 400V399H319V400H320ZM320 400V401H400V400V399H320V400ZM320 480H321V400H320H319V480H320Z" fill="#ADB2CE" mask="url(#path-210-inside-105_373_925)"/>
<mask id="path-212-inside-106_373_925" fill="white">
<path d="M400 400H480V480H400V400Z"/>
</mask>
<path d="M400 400H480V480H400V400Z" fill="#F8F9FC"/>
<path d="M400 400V399H399V400H400ZM400 400V401H480V400V399H400V400ZM400 480H401V400H400H399V480H400Z" fill="#ADB2CE" mask="url(#path-212-inside-106_373_925)"/>
<mask id="path-214-inside-107_373_925" fill="white">
<path d="M480 400H560V480H480V400Z"/>
</mask>
<path d="M480 400H560V480H480V400Z" fill="#F8F9FC"/>
<path d="M480 400V399H479V400H480ZM480 400V401H560V400V399H480V400ZM480 480H481V400H480H479V480H480Z" fill="#ADB2CE" mask="url(#path-214-inside-107_373_925)"/>
<mask id="path-216-inside-108_373_925" fill="white">
<path d="M560 400H640V480H560V400Z"/>
</mask>
<path d="M560 400H640V480H560V400Z" fill="#F8F9FC"/>
<path d="M560 400V399H559V400H560ZM560 400V401H640V400V399H560V400ZM560 480H561V400H560H559V480H560Z" fill="#ADB2CE" mask="url(#path-216-inside-108_373_925)"/>
<mask id="path-218-inside-109_373_925" fill="white">
<path d="M640 400H720V480H640V400Z"/>
</mask>
<path d="M640 400H720V480H640V400Z" fill="#F8F9FC"/>
<path d="M640 400V399H639V400H640ZM640 400V401H720V400V399H640V400ZM640 480H641V400H640H639V480H640Z" fill="#ADB2CE" mask="url(#path-218-inside-109_373_925)"/>
<mask id="path-220-inside-110_373_925" fill="white">
<path d="M720 400H800V480H720V400Z"/>
</mask>
<path d="M720 400H800V480H720V400Z" fill="#F8F9FC"/>
<path d="M720 400V399H719V400H720ZM720 400V401H800V400V399H720V400ZM720 480H721V400H720H719V480H720Z" fill="#ADB2CE" mask="url(#path-220-inside-110_373_925)"/>
<mask id="path-222-inside-111_373_925" fill="white">
<path d="M800 400H880V480H800V400Z"/>
</mask>
<path d="M800 400H880V480H800V400Z" fill="#F8F9FC"/>
<path d="M800 400V399H799V400H800ZM800 400V401H880V400V399H800V400ZM800 480H801V400H800H799V480H800Z" fill="#ADB2CE" mask="url(#path-222-inside-111_373_925)"/>
<mask id="path-224-inside-112_373_925" fill="white">
<path d="M880 400H960V480H880V400Z"/>
</mask>
<path d="M880 400H960V480H880V400Z" fill="#F8F9FC"/>
<path d="M880 400V399H879V400H880ZM880 400V401H960V400V399H880V400ZM880 480H881V400H880H879V480H880Z" fill="#ADB2CE" mask="url(#path-224-inside-112_373_925)"/>
<mask id="path-226-inside-113_373_925" fill="white">
<path d="M960 400H1040V480H960V400Z"/>
</mask>
<path d="M960 400H1040V480H960V400Z" fill="#90A6EE"/>
<path d="M960 400V399H959V400H960ZM960 400V401H1040V400V399H960V400ZM960 480H961V400H960H959V480H960Z" fill="#ADB2CE" mask="url(#path-226-inside-113_373_925)"/>
<mask id="path-228-inside-114_373_925" fill="white">
<path d="M1040 400H1120V480H1040V400Z"/>
</mask>
<path d="M1040 400H1120V480H1040V400Z" fill="#F8F9FC"/>
<path d="M1040 400V399H1039V400H1040ZM1040 400V401H1120V400V399H1040V400ZM1040 480H1041V400H1040H1039V480H1040Z" fill="#ADB2CE" mask="url(#path-228-inside-114_373_925)"/>
<mask id="path-230-inside-115_373_925" fill="white">
<path d="M1120 400H1200V480H1120V400Z"/>
</mask>
<path d="M1120 400H1200V480H1120V400Z" fill="#F8F9FC"/>
<path d="M1120 400V399H1119V400H1120ZM1120 400V401H1200V400V399H1120V400ZM1120 480H1121V400H1120H1119V480H1120Z" fill="#ADB2CE" mask="url(#path-230-inside-115_373_925)"/>
<mask id="path-232-inside-116_373_925" fill="white">
<path d="M1200 400H1280V480H1200V400Z"/>
</mask>
<path d="M1200 400H1280V480H1200V400Z" fill="#F8F9FC"/>
<path d="M1200 400V399H1199V400H1200ZM1200 400V401H1280V400V399H1200V400ZM1200 480H1201V400H1200H1199V480H1200Z" fill="#ADB2CE" mask="url(#path-232-inside-116_373_925)"/>
<mask id="path-234-inside-117_373_925" fill="white">
<path d="M1280 400H1360V480H1280V400Z"/>
</mask>
<path d="M1280 400H1360V480H1280V400Z" fill="#F8F9FC"/>
<path d="M1280 400V399H1279V400H1280ZM1280 400V401H1360V400V399H1280V400ZM1280 480H1281V400H1280H1279V480H1280Z" fill="#ADB2CE" mask="url(#path-234-inside-117_373_925)"/>
<mask id="path-236-inside-118_373_925" fill="white">
<path d="M1360 400H1440V480H1360V400Z"/>
</mask>
<path d="M1360 400H1440V480H1360V400Z" fill="#F8F9FC"/>
<path d="M1360 400V399H1359V400H1360ZM1360 400V401H1440V400V399H1360V400ZM1360 480H1361V400H1360H1359V480H1360Z" fill="#ADB2CE" mask="url(#path-236-inside-118_373_925)"/>
<mask id="path-238-inside-119_373_925" fill="white">
<path d="M1440 400H1520V480H1440V400Z"/>
</mask>
<path d="M1440 400H1520V480H1440V400Z" fill="#F8F9FC"/>
<path d="M1440 400V399H1439V400H1440ZM1440 400V401H1520V400V399H1440V400ZM1440 480H1441V400H1440H1439V480H1440Z" fill="#ADB2CE" mask="url(#path-238-inside-119_373_925)"/>
<mask id="path-240-inside-120_373_925" fill="white">
<path d="M1520 400H1600V480H1520V400Z"/>
</mask>
<path d="M1520 400H1600V480H1520V400Z" fill="#F8F9FC"/>
<path d="M1520 400V399H1519V400H1520ZM1520 400V401H1600V400V399H1520V400ZM1520 480H1521V400H1520H1519V480H1520Z" fill="#ADB2CE" mask="url(#path-240-inside-120_373_925)"/>
<mask id="path-242-inside-121_373_925" fill="white">
<path d="M0 480H80V560H0V480Z"/>
</mask>
<path d="M0 480H80V560H0V480Z" fill="#F8F9FC"/>
<path d="M0 480V479H-1V480H0ZM0 480V481H80V480V479H0V480ZM0 560H1V480H0H-1V560H0Z" fill="#ADB2CE" mask="url(#path-242-inside-121_373_925)"/>
<mask id="path-244-inside-122_373_925" fill="white">
<path d="M80 480H160V560H80V480Z"/>
</mask>
<path d="M80 480H160V560H80V480Z" fill="#F8F9FC"/>
<path d="M80 480V479H79V480H80ZM80 480V481H160V480V479H80V480ZM80 560H81V480H80H79V560H80Z" fill="#ADB2CE" mask="url(#path-244-inside-122_373_925)"/>
<mask id="path-246-inside-123_373_925" fill="white">
<path d="M160 480H240V560H160V480Z"/>
</mask>
<path d="M160 480H240V560H160V480Z" fill="#F8F9FC"/>
<path d="M160 480V479H159V480H160ZM160 480V481H240V480V479H160V480ZM160 560H161V480H160H159V560H160Z" fill="#ADB2CE" mask="url(#path-246-inside-123_373_925)"/>
<mask id="path-248-inside-124_373_925" fill="white">
<path d="M240 480H320V560H240V480Z"/>
</mask>
<path d="M240 480H320V560H240V480Z" fill="#F8F9FC"/>
<path d="M240 480V479H239V480H240ZM240 480V481H320V480V479H240V480ZM240 560H241V480H240H239V560H240Z" fill="#ADB2CE" mask="url(#path-248-inside-124_373_925)"/>
<mask id="path-250-inside-125_373_925" fill="white">
<path d="M320 480H400V560H320V480Z"/>
</mask>
<path d="M320 480H400V560H320V480Z" fill="#F8F9FC"/>
<path d="M320 480V479H319V480H320ZM320 480V481H400V480V479H320V480ZM320 560H321V480H320H319V560H320Z" fill="#ADB2CE" mask="url(#path-250-inside-125_373_925)"/>
<mask id="path-252-inside-126_373_925" fill="white">
<path d="M400 480H480V560H400V480Z"/>
</mask>
<path d="M400 480H480V560H400V480Z" fill="#F8F9FC"/>
<path d="M400 480V479H399V480H400ZM400 480V481H480V480V479H400V480ZM400 560H401V480H400H399V560H400Z" fill="#ADB2CE" mask="url(#path-252-inside-126_373_925)"/>
<mask id="path-254-inside-127_373_925" fill="white">
<path d="M480 480H560V560H480V480Z"/>
</mask>
<path d="M480 480H560V560H480V480Z" fill="#F8F9FC"/>
<path d="M480 480V479H479V480H480ZM480 480V481H560V480V479H480V480ZM480 560H481V480H480H479V560H480Z" fill="#ADB2CE" mask="url(#path-254-inside-127_373_925)"/>
<mask id="path-256-inside-128_373_925" fill="white">
<path d="M560 480H640V560H560V480Z"/>
</mask>
<path d="M560 480H640V560H560V480Z" fill="#F8F9FC"/>
<path d="M560 480V479H559V480H560ZM560 480V481H640V480V479H560V480ZM560 560H561V480H560H559V560H560Z" fill="#ADB2CE" mask="url(#path-256-inside-128_373_925)"/>
<mask id="path-258-inside-129_373_925" fill="white">
<path d="M640 480H720V560H640V480Z"/>
</mask>
<path d="M640 480H720V560H640V480Z" fill="#F8F9FC"/>
<path d="M640 480V479H639V480H640ZM640 480V481H720V480V479H640V480ZM640 560H641V480H640H639V560H640Z" fill="#ADB2CE" mask="url(#path-258-inside-129_373_925)"/>
<mask id="path-260-inside-130_373_925" fill="white">
<path d="M720 480H800V560H720V480Z"/>
</mask>
<path d="M720 480H800V560H720V480Z" fill="#F8F9FC"/>
<path d="M720 480V479H719V480H720ZM720 480V481H800V480V479H720V480ZM720 560H721V480H720H719V560H720Z" fill="#ADB2CE" mask="url(#path-260-inside-130_373_925)"/>
<mask id="path-262-inside-131_373_925" fill="white">
<path d="M800 480H880V560H800V480Z"/>
</mask>
<path d="M800 480H880V560H800V480Z" fill="#F8F9FC"/>
<path d="M800 480V479H799V480H800ZM800 480V481H880V480V479H800V480ZM800 560H801V480H800H799V560H800Z" fill="#ADB2CE" mask="url(#path-262-inside-131_373_925)"/>
<mask id="path-264-inside-132_373_925" fill="white">
<path d="M880 480H960V560H880V480Z"/>
</mask>
<path d="M880 480H960V560H880V480Z" fill="#F8F9FC"/>
<path d="M880 480V479H879V480H880ZM880 480V481H960V480V479H880V480ZM880 560H881V480H880H879V560H880Z" fill="#ADB2CE" mask="url(#path-264-inside-132_373_925)"/>
<mask id="path-266-inside-133_373_925" fill="white">
<path d="M960 480H1040V560H960V480Z"/>
</mask>
<path d="M960 480H1040V560H960V480Z" fill="#F8F9FC"/>
<path d="M960 480V479H959V480H960ZM960 480V481H1040V480V479H960V480ZM960 560H961V480H960H959V560H960Z" fill="#ADB2CE" mask="url(#path-266-inside-133_373_925)"/>
<mask id="path-268-inside-134_373_925" fill="white">
<path d="M1040 480H1120V560H1040V480Z"/>
</mask>
<path d="M1040 480H1120V560H1040V480Z" fill="#F8F9FC"/>
<path d="M1040 480V479H1039V480H1040ZM1040 480V481H1120V480V479H1040V480ZM1040 560H1041V480H1040H1039V560H1040Z" fill="#ADB2CE" mask="url(#path-268-inside-134_373_925)"/>
<mask id="path-270-inside-135_373_925" fill="white">
<path d="M1120 480H1200V560H1120V480Z"/>
</mask>
<path d="M1120 480H1200V560H1120V480Z" fill="#F8F9FC"/>
<path d="M1120 480V479H1119V480H1120ZM1120 480V481H1200V480V479H1120V480ZM1120 560H1121V480H1120H1119V560H1120Z" fill="#ADB2CE" mask="url(#path-270-inside-135_373_925)"/>
<mask id="path-272-inside-136_373_925" fill="white">
<path d="M1200 480H1280V560H1200V480Z"/>
</mask>
<path d="M1200 480H1280V560H1200V480Z" fill="#F8F9FC"/>
<path d="M1200 480V479H1199V480H1200ZM1200 480V481H1280V480V479H1200V480ZM1200 560H1201V480H1200H1199V560H1200Z" fill="#ADB2CE" mask="url(#path-272-inside-136_373_925)"/>
<mask id="path-274-inside-137_373_925" fill="white">
<path d="M1280 480H1360V560H1280V480Z"/>
</mask>
<path d="M1280 480H1360V560H1280V480Z" fill="#F8F9FC"/>
<path d="M1280 480V479H1279V480H1280ZM1280 480V481H1360V480V479H1280V480ZM1280 560H1281V480H1280H1279V560H1280Z" fill="#ADB2CE" mask="url(#path-274-inside-137_373_925)"/>
<mask id="path-276-inside-138_373_925" fill="white">
<path d="M1360 480H1440V560H1360V480Z"/>
</mask>
<path d="M1360 480H1440V560H1360V480Z" fill="#F8F9FC"/>
<path d="M1360 480V479H1359V480H1360ZM1360 480V481H1440V480V479H1360V480ZM1360 560H1361V480H1360H1359V560H1360Z" fill="#ADB2CE" mask="url(#path-276-inside-138_373_925)"/>
<mask id="path-278-inside-139_373_925" fill="white">
<path d="M1440 480H1520V560H1440V480Z"/>
</mask>
<path d="M1440 480H1520V560H1440V480Z" fill="#F8F9FC"/>
<path d="M1440 480V479H1439V480H1440ZM1440 480V481H1520V480V479H1440V480ZM1440 560H1441V480H1440H1439V560H1440Z" fill="#ADB2CE" mask="url(#path-278-inside-139_373_925)"/>
<mask id="path-280-inside-140_373_925" fill="white">
<path d="M1520 480H1600V560H1520V480Z"/>
</mask>
<path d="M1520 480H1600V560H1520V480Z" fill="#F8F9FC"/>
<path d="M1520 480V479H1519V480H1520ZM1520 480V481H1600V480V479H1520V480ZM1520 560H1521V480H1520H1519V560H1520Z" fill="#ADB2CE" mask="url(#path-280-inside-140_373_925)"/>
<mask id="path-282-inside-141_373_925" fill="white">
<path d="M0 560H80V640H0V560Z"/>
</mask>
<path d="M0 560H80V640H0V560Z" fill="#F8F9FC"/>
<path d="M0 560V559H-1V560H0ZM0 560V561H80V560V559H0V560ZM0 640H1V560H0H-1V640H0Z" fill="#ADB2CE" mask="url(#path-282-inside-141_373_925)"/>
<mask id="path-284-inside-142_373_925" fill="white">
<path d="M80 560H160V640H80V560Z"/>
</mask>
<path d="M80 560H160V640H80V560Z" fill="#F8F9FC"/>
<path d="M80 560V559H79V560H80ZM80 560V561H160V560V559H80V560ZM80 640H81V560H80H79V640H80Z" fill="#ADB2CE" mask="url(#path-284-inside-142_373_925)"/>
<mask id="path-286-inside-143_373_925" fill="white">
<path d="M160 560H240V640H160V560Z"/>
</mask>
<path d="M160 560H240V640H160V560Z" fill="#F8F9FC"/>
<path d="M160 560V559H159V560H160ZM160 560V561H240V560V559H160V560ZM160 640H161V560H160H159V640H160Z" fill="#ADB2CE" mask="url(#path-286-inside-143_373_925)"/>
<mask id="path-288-inside-144_373_925" fill="white">
<path d="M240 560H320V640H240V560Z"/>
</mask>
<path d="M240 560H320V640H240V560Z" fill="#F8F9FC"/>
<path d="M240 560V559H239V560H240ZM240 560V561H320V560V559H240V560ZM240 640H241V560H240H239V640H240Z" fill="#ADB2CE" mask="url(#path-288-inside-144_373_925)"/>
<mask id="path-290-inside-145_373_925" fill="white">
<path d="M320 560H400V640H320V560Z"/>
</mask>
<path d="M320 560H400V640H320V560Z" fill="#F8F9FC"/>
<path d="M320 560V559H319V560H320ZM320 560V561H400V560V559H320V560ZM320 640H321V560H320H319V640H320Z" fill="#ADB2CE" mask="url(#path-290-inside-145_373_925)"/>
<mask id="path-292-inside-146_373_925" fill="white">
<path d="M400 560H480V640H400V560Z"/>
</mask>
<path d="M400 560H480V640H400V560Z" fill="#F8F9FC"/>
<path d="M400 560V559H399V560H400ZM400 560V561H480V560V559H400V560ZM400 640H401V560H400H399V640H400Z" fill="#ADB2CE" mask="url(#path-292-inside-146_373_925)"/>
<mask id="path-294-inside-147_373_925" fill="white">
<path d="M480 560H560V640H480V560Z"/>
</mask>
<path d="M480 560H560V640H480V560Z" fill="#F8F9FC"/>
<path d="M480 560V559H479V560H480ZM480 560V561H560V560V559H480V560ZM480 640H481V560H480H479V640H480Z" fill="#ADB2CE" mask="url(#path-294-inside-147_373_925)"/>
<mask id="path-296-inside-148_373_925" fill="white">
<path d="M560 560H640V640H560V560Z"/>
</mask>
<path d="M560 560H640V640H560V560Z" fill="#F8F9FC"/>
<path d="M560 560V559H559V560H560ZM560 560V561H640V560V559H560V560ZM560 640H561V560H560H559V640H560Z" fill="#ADB2CE" mask="url(#path-296-inside-148_373_925)"/>
<mask id="path-298-inside-149_373_925" fill="white">
<path d="M640 560H720V640H640V560Z"/>
</mask>
<path d="M640 560H720V640H640V560Z" fill="#90A6EE"/>
<path d="M640 560V559H639V560H640ZM640 560V561H720V560V559H640V560ZM640 640H641V560H640H639V640H640Z" fill="#ADB2CE" mask="url(#path-298-inside-149_373_925)"/>
<mask id="path-300-inside-150_373_925" fill="white">
<path d="M720 560H800V640H720V560Z"/>
</mask>
<path d="M720 560H800V640H720V560Z" fill="#F8F9FC"/>
<path d="M720 560V559H719V560H720ZM720 560V561H800V560V559H720V560ZM720 640H721V560H720H719V640H720Z" fill="#ADB2CE" mask="url(#path-300-inside-150_373_925)"/>
<mask id="path-302-inside-151_373_925" fill="white">
<path d="M800 560H880V640H800V560Z"/>
</mask>
<path d="M800 560H880V640H800V560Z" fill="#F8F9FC"/>
<path d="M800 560V559H799V560H800ZM800 560V561H880V560V559H800V560ZM800 640H801V560H800H799V640H800Z" fill="#ADB2CE" mask="url(#path-302-inside-151_373_925)"/>
<mask id="path-304-inside-152_373_925" fill="white">
<path d="M880 560H960V640H880V560Z"/>
</mask>
<path d="M880 560H960V640H880V560Z" fill="#F8F9FC"/>
<path d="M880 560V559H879V560H880ZM880 560V561H960V560V559H880V560ZM880 640H881V560H880H879V640H880Z" fill="#ADB2CE" mask="url(#path-304-inside-152_373_925)"/>
<mask id="path-306-inside-153_373_925" fill="white">
<path d="M960 560H1040V640H960V560Z"/>
</mask>
<path d="M960 560H1040V640H960V560Z" fill="#F8F9FC"/>
<path d="M960 560V559H959V560H960ZM960 560V561H1040V560V559H960V560ZM960 640H961V560H960H959V640H960Z" fill="#ADB2CE" mask="url(#path-306-inside-153_373_925)"/>
<mask id="path-308-inside-154_373_925" fill="white">
<path d="M1040 560H1120V640H1040V560Z"/>
</mask>
<path d="M1040 560H1120V640H1040V560Z" fill="#F8F9FC"/>
<path d="M1040 560V559H1039V560H1040ZM1040 560V561H1120V560V559H1040V560ZM1040 640H1041V560H1040H1039V640H1040Z" fill="#ADB2CE" mask="url(#path-308-inside-154_373_925)"/>
<mask id="path-310-inside-155_373_925" fill="white">
<path d="M1120 560H1200V640H1120V560Z"/>
</mask>
<path d="M1120 560H1200V640H1120V560Z" fill="#F8F9FC"/>
<path d="M1120 560V559H1119V560H1120ZM1120 560V561H1200V560V559H1120V560ZM1120 640H1121V560H1120H1119V640H1120Z" fill="#ADB2CE" mask="url(#path-310-inside-155_373_925)"/>
<mask id="path-312-inside-156_373_925" fill="white">
<path d="M1200 560H1280V640H1200V560Z"/>
</mask>
<path d="M1200 560H1280V640H1200V560Z" fill="#F8F9FC"/>
<path d="M1200 560V559H1199V560H1200ZM1200 560V561H1280V560V559H1200V560ZM1200 640H1201V560H1200H1199V640H1200Z" fill="#ADB2CE" mask="url(#path-312-inside-156_373_925)"/>
<mask id="path-314-inside-157_373_925" fill="white">
<path d="M1280 560H1360V640H1280V560Z"/>
</mask>
<path d="M1280 560H1360V640H1280V560Z" fill="#F8F9FC"/>
<path d="M1280 560V559H1279V560H1280ZM1280 560V561H1360V560V559H1280V560ZM1280 640H1281V560H1280H1279V640H1280Z" fill="#ADB2CE" mask="url(#path-314-inside-157_373_925)"/>
<mask id="path-316-inside-158_373_925" fill="white">
<path d="M1360 560H1440V640H1360V560Z"/>
</mask>
<path d="M1360 560H1440V640H1360V560Z" fill="#F8F9FC"/>
<path d="M1360 560V559H1359V560H1360ZM1360 560V561H1440V560V559H1360V560ZM1360 640H1361V560H1360H1359V640H1360Z" fill="#ADB2CE" mask="url(#path-316-inside-158_373_925)"/>
<mask id="path-318-inside-159_373_925" fill="white">
<path d="M1440 560H1520V640H1440V560Z"/>
</mask>
<path d="M1440 560H1520V640H1440V560Z" fill="#F8F9FC"/>
<path d="M1440 560V559H1439V560H1440ZM1440 560V561H1520V560V559H1440V560ZM1440 640H1441V560H1440H1439V640H1440Z" fill="#ADB2CE" mask="url(#path-318-inside-159_373_925)"/>
<mask id="path-320-inside-160_373_925" fill="white">
<path d="M1520 560H1600V640H1520V560Z"/>
</mask>
<path d="M1520 560H1600V640H1520V560Z" fill="#F8F9FC"/>
<path d="M1520 560V559H1519V560H1520ZM1520 560V561H1600V560V559H1520V560ZM1520 640H1521V560H1520H1519V640H1520Z" fill="#ADB2CE" mask="url(#path-320-inside-160_373_925)"/>
<mask id="path-322-inside-161_373_925" fill="white">
<path d="M0 640H80V720H0V640Z"/>
</mask>
<path d="M0 640H80V720H0V640Z" fill="#F8F9FC"/>
<path d="M0 640V639H-1V640H0ZM0 640V641H80V640V639H0V640ZM0 720H1V640H0H-1V720H0Z" fill="#ADB2CE" mask="url(#path-322-inside-161_373_925)"/>
<mask id="path-324-inside-162_373_925" fill="white">
<path d="M80 640H160V720H80V640Z"/>
</mask>
<path d="M80 640H160V720H80V640Z" fill="#F8F9FC"/>
<path d="M80 640V639H79V640H80ZM80 640V641H160V640V639H80V640ZM80 720H81V640H80H79V720H80Z" fill="#ADB2CE" mask="url(#path-324-inside-162_373_925)"/>
<mask id="path-326-inside-163_373_925" fill="white">
<path d="M160 640H240V720H160V640Z"/>
</mask>
<path d="M160 640H240V720H160V640Z" fill="#F8F9FC"/>
<path d="M160 640V639H159V640H160ZM160 640V641H240V640V639H160V640ZM160 720H161V640H160H159V720H160Z" fill="#ADB2CE" mask="url(#path-326-inside-163_373_925)"/>
<mask id="path-328-inside-164_373_925" fill="white">
<path d="M240 640H320V720H240V640Z"/>
</mask>
<path d="M240 640H320V720H240V640Z" fill="#F8F9FC"/>
<path d="M240 640V639H239V640H240ZM240 640V641H320V640V639H240V640ZM240 720H241V640H240H239V720H240Z" fill="#ADB2CE" mask="url(#path-328-inside-164_373_925)"/>
<mask id="path-330-inside-165_373_925" fill="white">
<path d="M320 640H400V720H320V640Z"/>
</mask>
<path d="M320 640H400V720H320V640Z" fill="#F8F9FC"/>
<path d="M320 640V639H319V640H320ZM320 640V641H400V640V639H320V640ZM320 720H321V640H320H319V720H320Z" fill="#ADB2CE" mask="url(#path-330-inside-165_373_925)"/>
<mask id="path-332-inside-166_373_925" fill="white">
<path d="M400 640H480V720H400V640Z"/>
</mask>
<path d="M400 640H480V720H400V640Z" fill="#F8F9FC"/>
<path d="M400 640V639H399V640H400ZM400 640V641H480V640V639H400V640ZM400 720H401V640H400H399V720H400Z" fill="#ADB2CE" mask="url(#path-332-inside-166_373_925)"/>
<mask id="path-334-inside-167_373_925" fill="white">
<path d="M480 640H560V720H480V640Z"/>
</mask>
<path d="M480 640H560V720H480V640Z" fill="#F8F9FC"/>
<path d="M480 640V639H479V640H480ZM480 640V641H560V640V639H480V640ZM480 720H481V640H480H479V720H480Z" fill="#ADB2CE" mask="url(#path-334-inside-167_373_925)"/>
<mask id="path-336-inside-168_373_925" fill="white">
<path d="M560 640H640V720H560V640Z"/>
</mask>
<path d="M560 640H640V720H560V640Z" fill="#F8F9FC"/>
<path d="M560 640V639H559V640H560ZM560 640V641H640V640V639H560V640ZM560 720H561V640H560H559V720H560Z" fill="#ADB2CE" mask="url(#path-336-inside-168_373_925)"/>
<mask id="path-338-inside-169_373_925" fill="white">
<path d="M640 640H720V720H640V640Z"/>
</mask>
<path d="M640 640H720V720H640V640Z" fill="#F8F9FC"/>
<path d="M640 640V639H639V640H640ZM640 640V641H720V640V639H640V640ZM640 720H641V640H640H639V720H640Z" fill="#ADB2CE" mask="url(#path-338-inside-169_373_925)"/>
<mask id="path-340-inside-170_373_925" fill="white">
<path d="M720 640H800V720H720V640Z"/>
</mask>
<path d="M720 640H800V720H720V640Z" fill="#F8F9FC"/>
<path d="M720 640V639H719V640H720ZM720 640V641H800V640V639H720V640ZM720 720H721V640H720H719V720H720Z" fill="#ADB2CE" mask="url(#path-340-inside-170_373_925)"/>
<mask id="path-342-inside-171_373_925" fill="white">
<path d="M800 640H880V720H800V640Z"/>
</mask>
<path d="M800 640H880V720H800V640Z" fill="#F8F9FC"/>
<path d="M800 640V639H799V640H800ZM800 640V641H880V640V639H800V640ZM800 720H801V640H800H799V720H800Z" fill="#ADB2CE" mask="url(#path-342-inside-171_373_925)"/>
<mask id="path-344-inside-172_373_925" fill="white">
<path d="M880 640H960V720H880V640Z"/>
</mask>
<path d="M880 640H960V720H880V640Z" fill="#F8F9FC"/>
<path d="M880 640V639H879V640H880ZM880 640V641H960V640V639H880V640ZM880 720H881V640H880H879V720H880Z" fill="#ADB2CE" mask="url(#path-344-inside-172_373_925)"/>
<mask id="path-346-inside-173_373_925" fill="white">
<path d="M960 640H1040V720H960V640Z"/>
</mask>
<path d="M960 640H1040V720H960V640Z" fill="#F8F9FC"/>
<path d="M960 640V639H959V640H960ZM960 640V641H1040V640V639H960V640ZM960 720H961V640H960H959V720H960Z" fill="#ADB2CE" mask="url(#path-346-inside-173_373_925)"/>
<mask id="path-348-inside-174_373_925" fill="white">
<path d="M1040 640H1120V720H1040V640Z"/>
</mask>
<path d="M1040 640H1120V720H1040V640Z" fill="#F8F9FC"/>
<path d="M1040 640V639H1039V640H1040ZM1040 640V641H1120V640V639H1040V640ZM1040 720H1041V640H1040H1039V720H1040Z" fill="#ADB2CE" mask="url(#path-348-inside-174_373_925)"/>
<mask id="path-350-inside-175_373_925" fill="white">
<path d="M1120 640H1200V720H1120V640Z"/>
</mask>
<path d="M1120 640H1200V720H1120V640Z" fill="#F8F9FC"/>
<path d="M1120 640V639H1119V640H1120ZM1120 640V641H1200V640V639H1120V640ZM1120 720H1121V640H1120H1119V720H1120Z" fill="#ADB2CE" mask="url(#path-350-inside-175_373_925)"/>
<mask id="path-352-inside-176_373_925" fill="white">
<path d="M1200 640H1280V720H1200V640Z"/>
</mask>
<path d="M1200 640H1280V720H1200V640Z" fill="#F8F9FC"/>
<path d="M1200 640V639H1199V640H1200ZM1200 640V641H1280V640V639H1200V640ZM1200 720H1201V640H1200H1199V720H1200Z" fill="#ADB2CE" mask="url(#path-352-inside-176_373_925)"/>
<mask id="path-354-inside-177_373_925" fill="white">
<path d="M1280 640H1360V720H1280V640Z"/>
</mask>
<path d="M1280 640H1360V720H1280V640Z" fill="#F8F9FC"/>
<path d="M1280 640V639H1279V640H1280ZM1280 640V641H1360V640V639H1280V640ZM1280 720H1281V640H1280H1279V720H1280Z" fill="#ADB2CE" mask="url(#path-354-inside-177_373_925)"/>
<mask id="path-356-inside-178_373_925" fill="white">
<path d="M1360 640H1440V720H1360V640Z"/>
</mask>
<path d="M1360 640H1440V720H1360V640Z" fill="#F8F9FC"/>
<path d="M1360 640V639H1359V640H1360ZM1360 640V641H1440V640V639H1360V640ZM1360 720H1361V640H1360H1359V720H1360Z" fill="#ADB2CE" mask="url(#path-356-inside-178_373_925)"/>
<mask id="path-358-inside-179_373_925" fill="white">
<path d="M1440 640H1520V720H1440V640Z"/>
</mask>
<path d="M1440 640H1520V720H1440V640Z" fill="#F8F9FC"/>
<path d="M1440 640V639H1439V640H1440ZM1440 640V641H1520V640V639H1440V640ZM1440 720H1441V640H1440H1439V720H1440Z" fill="#ADB2CE" mask="url(#path-358-inside-179_373_925)"/>
<mask id="path-360-inside-180_373_925" fill="white">
<path d="M1520 640H1600V720H1520V640Z"/>
</mask>
<path d="M1520 640H1600V720H1520V640Z" fill="#F8F9FC"/>
<path d="M1520 640V639H1519V640H1520ZM1520 640V641H1600V640V639H1520V640ZM1520 720H1521V640H1520H1519V720H1520Z" fill="#ADB2CE" mask="url(#path-360-inside-180_373_925)"/>
<mask id="path-362-inside-181_373_925" fill="white">
<path d="M0 720H80V800H0V720Z"/>
</mask>
<path d="M0 720H80V800H0V720Z" fill="#F8F9FC"/>
<path d="M0 720V719H-1V720H0ZM0 720V721H80V720V719H0V720ZM0 800H1V720H0H-1V800H0Z" fill="#ADB2CE" mask="url(#path-362-inside-181_373_925)"/>
<mask id="path-364-inside-182_373_925" fill="white">
<path d="M80 720H160V800H80V720Z"/>
</mask>
<path d="M80 720H160V800H80V720Z" fill="#F8F9FC"/>
<path d="M80 720V719H79V720H80ZM80 720V721H160V720V719H80V720ZM80 800H81V720H80H79V800H80Z" fill="#ADB2CE" mask="url(#path-364-inside-182_373_925)"/>
<mask id="path-366-inside-183_373_925" fill="white">
<path d="M160 720H240V800H160V720Z"/>
</mask>
<path d="M160 720H240V800H160V720Z" fill="#F8F9FC"/>
<path d="M160 720V719H159V720H160ZM160 720V721H240V720V719H160V720ZM160 800H161V720H160H159V800H160Z" fill="#ADB2CE" mask="url(#path-366-inside-183_373_925)"/>
<mask id="path-368-inside-184_373_925" fill="white">
<path d="M240 720H320V800H240V720Z"/>
</mask>
<path d="M240 720H320V800H240V720Z" fill="#F8F9FC"/>
<path d="M240 720V719H239V720H240ZM240 720V721H320V720V719H240V720ZM240 800H241V720H240H239V800H240Z" fill="#ADB2CE" mask="url(#path-368-inside-184_373_925)"/>
<mask id="path-370-inside-185_373_925" fill="white">
<path d="M320 720H400V800H320V720Z"/>
</mask>
<path d="M320 720H400V800H320V720Z" fill="#F8F9FC"/>
<path d="M320 720V719H319V720H320ZM320 720V721H400V720V719H320V720ZM320 800H321V720H320H319V800H320Z" fill="#ADB2CE" mask="url(#path-370-inside-185_373_925)"/>
<mask id="path-372-inside-186_373_925" fill="white">
<path d="M400 720H480V800H400V720Z"/>
</mask>
<path d="M400 720H480V800H400V720Z" fill="#F8F9FC"/>
<path d="M400 720V719H399V720H400ZM400 720V721H480V720V719H400V720ZM400 800H401V720H400H399V800H400Z" fill="#ADB2CE" mask="url(#path-372-inside-186_373_925)"/>
<mask id="path-374-inside-187_373_925" fill="white">
<path d="M480 720H560V800H480V720Z"/>
</mask>
<path d="M480 720H560V800H480V720Z" fill="#F8F9FC"/>
<path d="M480 720V719H479V720H480ZM480 720V721H560V720V719H480V720ZM480 800H481V720H480H479V800H480Z" fill="#ADB2CE" mask="url(#path-374-inside-187_373_925)"/>
<mask id="path-376-inside-188_373_925" fill="white">
<path d="M560 720H640V800H560V720Z"/>
</mask>
<path d="M560 720H640V800H560V720Z" fill="#F8F9FC"/>
<path d="M560 720V719H559V720H560ZM560 720V721H640V720V719H560V720ZM560 800H561V720H560H559V800H560Z" fill="#ADB2CE" mask="url(#path-376-inside-188_373_925)"/>
<mask id="path-378-inside-189_373_925" fill="white">
<path d="M640 720H720V800H640V720Z"/>
</mask>
<path d="M640 720H720V800H640V720Z" fill="#F8F9FC"/>
<path d="M640 720V719H639V720H640ZM640 720V721H720V720V719H640V720ZM640 800H641V720H640H639V800H640Z" fill="#ADB2CE" mask="url(#path-378-inside-189_373_925)"/>
<mask id="path-380-inside-190_373_925" fill="white">
<path d="M720 720H800V800H720V720Z"/>
</mask>
<path d="M720 720H800V800H720V720Z" fill="#F8F9FC"/>
<path d="M720 720V719H719V720H720ZM720 720V721H800V720V719H720V720ZM720 800H721V720H720H719V800H720Z" fill="#ADB2CE" mask="url(#path-380-inside-190_373_925)"/>
<mask id="path-382-inside-191_373_925" fill="white">
<path d="M800 720H880V800H800V720Z"/>
</mask>
<path d="M800 720H880V800H800V720Z" fill="#F8F9FC"/>
<path d="M800 720V719H799V720H800ZM800 720V721H880V720V719H800V720ZM800 800H801V720H800H799V800H800Z" fill="#ADB2CE" mask="url(#path-382-inside-191_373_925)"/>
<mask id="path-384-inside-192_373_925" fill="white">
<path d="M880 720H960V800H880V720Z"/>
</mask>
<path d="M880 720H960V800H880V720Z" fill="#F8F9FC"/>
<path d="M880 720V719H879V720H880ZM880 720V721H960V720V719H880V720ZM880 800H881V720H880H879V800H880Z" fill="#ADB2CE" mask="url(#path-384-inside-192_373_925)"/>
<mask id="path-386-inside-193_373_925" fill="white">
<path d="M960 720H1040V800H960V720Z"/>
</mask>
<path d="M960 720H1040V800H960V720Z" fill="#F8F9FC"/>
<path d="M960 720V719H959V720H960ZM960 720V721H1040V720V719H960V720ZM960 800H961V720H960H959V800H960Z" fill="#ADB2CE" mask="url(#path-386-inside-193_373_925)"/>
<mask id="path-388-inside-194_373_925" fill="white">
<path d="M1040 720H1120V800H1040V720Z"/>
</mask>
<path d="M1040 720H1120V800H1040V720Z" fill="#F8F9FC"/>
<path d="M1040 720V719H1039V720H1040ZM1040 720V721H1120V720V719H1040V720ZM1040 800H1041V720H1040H1039V800H1040Z" fill="#ADB2CE" mask="url(#path-388-inside-194_373_925)"/>
<mask id="path-390-inside-195_373_925" fill="white">
<path d="M1120 720H1200V800H1120V720Z"/>
</mask>
<path d="M1120 720H1200V800H1120V720Z" fill="#F8F9FC"/>
<path d="M1120 720V719H1119V720H1120ZM1120 720V721H1200V720V719H1120V720ZM1120 800H1121V720H1120H1119V800H1120Z" fill="#ADB2CE" mask="url(#path-390-inside-195_373_925)"/>
<mask id="path-392-inside-196_373_925" fill="white">
<path d="M1200 720H1280V800H1200V720Z"/>
</mask>
<path d="M1200 720H1280V800H1200V720Z" fill="#F8F9FC"/>
<path d="M1200 720V719H1199V720H1200ZM1200 720V721H1280V720V719H1200V720ZM1200 800H1201V720H1200H1199V800H1200Z" fill="#ADB2CE" mask="url(#path-392-inside-196_373_925)"/>
<mask id="path-394-inside-197_373_925" fill="white">
<path d="M1280 720H1360V800H1280V720Z"/>
</mask>
<path d="M1280 720H1360V800H1280V720Z" fill="#F8F9FC"/>
<path d="M1280 720V719H1279V720H1280ZM1280 720V721H1360V720V719H1280V720ZM1280 800H1281V720H1280H1279V800H1280Z" fill="#ADB2CE" mask="url(#path-394-inside-197_373_925)"/>
<mask id="path-396-inside-198_373_925" fill="white">
<path d="M1360 720H1440V800H1360V720Z"/>
</mask>
<path d="M1360 720H1440V800H1360V720Z" fill="#F8F9FC"/>
<path d="M1360 720V719H1359V720H1360ZM1360 720V721H1440V720V719H1360V720ZM1360 800H1361V720H1360H1359V800H1360Z" fill="#ADB2CE" mask="url(#path-396-inside-198_373_925)"/>
<mask id="path-398-inside-199_373_925" fill="white">
<path d="M1440 720H1520V800H1440V720Z"/>
</mask>
<path d="M1440 720H1520V800H1440V720Z" fill="#F8F9FC"/>
<path d="M1440 720V719H1439V720H1440ZM1440 720V721H1520V720V719H1440V720ZM1440 800H1441V720H1440H1439V800H1440Z" fill="#ADB2CE" mask="url(#path-398-inside-199_373_925)"/>
<mask id="path-400-inside-200_373_925" fill="white">
<path d="M1520 720H1600V800H1520V720Z"/>
</mask>
<path d="M1520 720H1600V800H1520V720Z" fill="#F8F9FC"/>
<path d="M1520 720V719H1519V720H1520ZM1520 720V721H1600V720V719H1520V720ZM1520 800H1521V720H1520H1519V800H1520Z" fill="#ADB2CE" mask="url(#path-400-inside-200_373_925)"/>
</g>
</g>
<defs>
<radialGradient id="paint0_radial_373_925" cx="0" cy="0" r="1" gradientUnits="userSpaceOnUse" gradientTransform="translate(800 400) scale(1131.37 565.685)">
<stop offset="0.4"/>
<stop offset="0.7" stop-opacity="0"/>
</radialGradient>
</defs>
</svg>
