<svg width="222" height="56" viewBox="0 0 222 56" fill="none" xmlns="http://www.w3.org/2000/svg">
<g clip-path="url(#clip0_323_961)">
<path d="M16.5084 5.76146C14.342 3.18304 12.4765 0.564335 12.1155 0.0204502C12.0753 -0.0198376 12.0152 -0.0198376 11.975 0.0204502C11.5939 0.564335 9.72841 3.18304 7.56202 5.76146C-11.0128 29.5514 10.4907 45.6061 10.4907 45.6061L10.6712 45.7269C10.8317 48.2046 11.2329 51.7701 11.2329 51.7701H12.0352H12.8376C12.8376 51.7701 13.2388 48.2248 13.3993 45.7269L13.5798 45.5859C13.5798 45.6061 35.0833 29.5514 16.5084 5.76146ZM12.0352 45.2435C12.0352 45.2435 11.0724 44.4176 10.8116 43.9945V43.9543L11.975 18.0492C11.975 17.9687 12.0954 17.9687 12.0954 18.0492L13.2388 43.9543V43.9945C12.978 44.4176 12.0352 45.2435 12.0352 45.2435Z" fill="white"/>
<path d="M52.2541 39.9661L43.2876 17.9891L43.2676 17.9287H36.307V19.3992H37.4304C37.7714 19.3992 38.0923 19.5402 38.333 19.7819C38.5737 20.0237 38.6941 20.346 38.6941 20.6884L38.4935 42.8064C38.4935 43.4913 37.9318 44.0553 37.2498 44.0755L36.1064 44.1158V45.5661H42.8865V44.1158L42.1844 44.0956C41.5024 44.0755 40.9407 43.5114 40.9407 42.8266V21.9776L50.7096 45.5661C50.85 45.9086 51.1709 46.1301 51.532 46.1301C51.8931 46.1301 52.214 45.9086 52.3544 45.5661L61.9026 22.5014L62.043 42.8064C62.043 43.5114 61.4814 44.0755 60.7793 44.0956H60.0572V45.546H68.0006V44.1158H66.9174C66.2354 44.1158 65.6737 43.5316 65.6537 42.8467L65.5935 20.7287C65.5935 20.0237 66.1552 19.4596 66.8372 19.4395L68.0006 19.4194V17.9287H61.2206L52.2541 39.9661Z" fill="white"/>
<path d="M114.718 43.7128C114.498 43.4912 114.377 43.189 114.377 42.8264V31.9689C114.377 29.8941 113.775 28.2826 112.572 27.1344C111.388 25.9862 109.723 25.3818 107.677 25.3818C104.789 25.3818 102.522 26.5502 100.938 28.8667C100.917 28.907 100.857 28.9272 100.797 28.9272C100.737 28.9272 100.697 28.8869 100.697 28.8264L99.9546 25.9257H98.6909L95.4814 27.779V28.7862H96.3039C96.685 28.7862 97.0059 28.8869 97.2266 29.0883C97.4473 29.2897 97.5676 29.5919 97.5676 30.0149V42.8063C97.5676 43.1689 97.4473 43.471 97.2266 43.6926C97.0059 43.9142 96.7051 44.0351 96.344 44.0351H95.5416V45.5056H102.903V44.0351H102.101C101.74 44.0351 101.439 43.9142 101.218 43.6926C100.998 43.471 100.877 43.1689 100.877 42.8063V34.3257C100.877 33.2581 101.118 32.1703 101.559 31.1228C102.021 30.0955 102.703 29.2092 103.605 28.5444C104.508 27.8797 105.591 27.5574 106.855 27.5574C108.259 27.5574 109.322 28.0005 110.004 28.8869C110.666 29.7732 111.007 30.9415 111.007 32.3113V42.766C111.007 43.1286 110.887 43.4308 110.666 43.6523C110.446 43.8739 110.145 43.9948 109.784 43.9948H108.981V45.4653H116.343V43.9948H115.541C115.24 44.0754 114.959 43.9545 114.718 43.7128Z" fill="white"/>
<path d="M182.037 19.5805C180.011 18.4927 177.724 17.9287 175.277 17.9287H165.688V19.3992H166.631C166.992 19.3992 167.313 19.5402 167.634 19.8625C167.935 20.1647 168.096 20.5071 168.096 20.8697V42.5848C168.096 42.9474 167.935 43.2899 167.634 43.592C167.333 43.8942 166.992 44.0553 166.631 44.0553H165.688V45.5258H175.277C177.724 45.5258 180.011 44.9618 182.057 43.874C184.103 42.7863 185.748 41.1748 186.951 39.1201C188.155 37.0654 188.777 34.5877 188.777 31.7474C188.777 28.9273 188.155 26.4697 186.951 24.3748C185.728 22.2798 184.083 20.6884 182.037 19.5805ZM184.905 31.7071C184.905 34.2855 184.444 36.4611 183.541 38.2136C182.639 39.9661 181.435 41.2755 179.971 42.1215C178.486 42.9676 176.861 43.3906 175.096 43.3906H173.151C172.789 43.3906 172.468 43.2496 172.148 42.9273C171.847 42.6251 171.686 42.2827 171.686 41.9201V21.4539C171.686 21.0913 171.827 20.769 172.148 20.4467C172.448 20.1445 172.789 19.9834 173.151 19.9834H175.096C176.861 19.9834 178.486 20.4064 179.971 21.2525C181.455 22.0985 182.639 23.4078 183.541 25.1604C184.444 26.9532 184.905 29.1489 184.905 31.7071Z" fill="white"/>
<path d="M211.423 33.177C210.541 32.1497 208.836 31.2835 206.81 30.8202C209.578 29.4303 211.022 27.4763 211.022 24.9583C211.022 23.5885 210.661 22.3598 209.939 21.3123C209.217 20.2648 208.194 19.4187 206.89 18.8346C205.586 18.2504 204.042 17.9482 202.317 17.9482H191.465V19.4187H192.327C192.688 19.4187 193.009 19.5598 193.33 19.8821C193.631 20.1842 193.791 20.5267 193.791 20.8892V42.6044C193.791 42.9669 193.631 43.3094 193.33 43.6115C193.029 43.9137 192.688 44.0749 192.327 44.0749H191.364V45.5454H203.139C204.924 45.5454 206.609 45.2432 208.114 44.6389C209.618 44.0346 210.842 43.1482 211.704 41.9799C212.587 40.8115 213.028 39.3813 213.028 37.7295C213.008 35.9166 212.487 34.4058 211.423 33.177ZM197.904 42.9669C197.603 42.6648 197.442 42.3223 197.442 41.9598V32.2101H203.039C205.005 32.2101 206.529 32.7137 207.572 33.7209C208.615 34.7281 209.137 36.0374 209.137 37.649C209.137 38.6159 208.896 39.5626 208.455 40.4288C207.993 41.3151 207.311 42.0202 206.389 42.5641C205.486 43.108 204.363 43.39 203.039 43.39H198.907C198.545 43.4101 198.225 43.2691 197.904 42.9669ZM197.462 30.1353V21.4734C197.462 21.1108 197.603 20.7885 197.924 20.4662C198.225 20.1641 198.566 20.0029 198.927 20.0029H201.574C203.48 20.0029 204.904 20.4864 205.787 21.413C206.669 22.3598 207.111 23.5684 207.111 25.059C207.111 26.59 206.69 27.8187 205.867 28.7454C205.045 29.6518 203.801 30.1151 202.136 30.1151H197.462V30.1353Z" fill="white"/>
<path d="M86.6552 26.671C85.1106 25.825 83.4056 25.3818 81.5401 25.3818C79.6746 25.3818 77.9495 25.8049 76.425 26.671C74.8804 27.5171 73.6768 28.7459 72.7742 30.2969C71.8715 31.8279 71.4102 33.6408 71.4102 35.6552C71.4102 37.6696 71.8715 39.4826 72.7742 41.0135C73.6768 42.5646 74.9005 43.7933 76.425 44.6394C77.9695 45.4854 79.6746 45.9286 81.5401 45.9286C83.4056 45.9286 85.1307 45.5056 86.6552 44.6394C88.1997 43.7933 89.4033 42.5646 90.3059 41.0135C91.2086 39.4624 91.67 37.6495 91.67 35.6552C91.67 33.661 91.2086 31.8279 90.3059 30.2969C89.4033 28.7459 88.1997 27.5171 86.6552 26.671ZM88.1395 35.6552C88.1395 38.1329 87.5378 40.1473 86.3342 41.5775C85.1507 43.0279 83.546 43.7732 81.5401 43.7732C79.5341 43.7732 77.9294 43.0279 76.7459 41.5775C75.5424 40.1272 74.9406 38.1128 74.9406 35.6552C74.9406 33.1977 75.5424 31.1631 76.7459 29.7329C77.9294 28.2826 79.5341 27.5372 81.5401 27.5372C83.546 27.5372 85.1507 28.2826 86.3342 29.7329C87.5378 31.1631 88.1395 33.1775 88.1395 35.6552Z" fill="white"/>
<path d="M157.465 26.671C155.92 25.825 154.215 25.3818 152.35 25.3818C150.484 25.3818 148.759 25.8049 147.235 26.671C145.69 27.5171 144.486 28.7459 143.584 30.2969C142.681 31.848 142.22 33.6408 142.22 35.6552C142.22 37.6696 142.681 39.4826 143.584 41.0135C144.486 42.5444 145.71 43.7933 147.235 44.6394C148.779 45.4854 150.484 45.9286 152.35 45.9286C154.215 45.9286 155.94 45.5056 157.465 44.6394C159.009 43.7933 160.213 42.5646 161.116 41.0135C162.018 39.4624 162.48 37.6696 162.48 35.6552C162.48 33.6408 162.018 31.8279 161.116 30.2969C160.213 28.766 158.989 27.5171 157.465 26.671ZM158.949 35.6552C158.949 38.1329 158.347 40.1473 157.144 41.5775C155.96 43.0279 154.356 43.7732 152.35 43.7732C150.344 43.7732 148.739 43.0279 147.555 41.5775C146.352 40.1272 145.75 38.1128 145.75 35.6552C145.75 33.1574 146.352 31.1631 147.555 29.7329C148.739 28.2826 150.344 27.5372 152.35 27.5372C154.356 27.5372 155.96 28.2826 157.144 29.7329C158.327 31.1631 158.949 33.1775 158.949 35.6552Z" fill="white"/>
<path d="M128.901 25.3818C127.296 25.3818 125.831 25.7243 124.487 26.4092C123.164 27.0941 122.12 28.0207 121.378 29.2092C120.636 30.3775 120.255 31.6869 120.255 33.0969C120.255 34.3459 120.536 35.4941 121.118 36.5214C121.679 37.5085 122.441 38.3344 123.404 39.0192L120.536 42.9473C120.175 43.4308 120.135 44.0754 120.395 44.5991C120.676 45.143 121.198 45.4653 121.8 45.4653H122.622C121.82 46.0092 121.178 46.6538 120.736 47.4192C120.215 48.2854 119.954 49.1919 119.954 50.1185C119.954 51.8509 120.716 53.2811 122.221 54.3689C123.705 55.4365 125.811 55.9804 128.439 55.9804C130.265 55.9804 132.03 55.6782 133.614 55.0941C135.219 54.5099 136.523 53.6437 137.506 52.5157C138.489 51.3876 138.99 50.0178 138.99 48.4264C138.99 46.7746 138.389 45.6063 136.984 44.4581C135.781 43.5113 133.895 43.0077 131.528 43.0077H123.485C123.464 43.0077 123.444 42.9876 123.444 42.9876C123.444 42.9876 123.424 42.9473 123.444 42.9272L125.531 40.107C126.092 40.3689 126.614 40.53 127.075 40.6308C127.557 40.7315 128.098 40.7718 128.7 40.7718C130.385 40.7718 131.929 40.4293 133.253 39.7444C134.577 39.0595 135.64 38.1329 136.423 36.9444C137.185 35.7761 137.566 34.4667 137.566 33.0768C137.566 31.5862 136.844 28.8466 134.878 27.4567C134.878 27.4365 134.898 27.4365 134.898 27.4365L139.231 27.92V25.9257H132.311C131.207 25.5833 130.084 25.3818 128.901 25.3818ZM131.328 38.0322C130.565 38.4351 129.743 38.6567 128.921 38.6567C127.577 38.6567 126.393 38.1732 125.37 37.2264C124.367 36.2797 123.866 34.8897 123.866 33.0969C123.866 31.3041 124.367 29.9344 125.37 28.9674C126.373 28.0207 127.557 27.5372 128.921 27.5372C129.763 27.5372 130.565 27.7387 131.328 28.1617C132.09 28.5646 132.712 29.189 133.213 30.0149C133.695 30.8408 133.955 31.8682 133.955 33.0768C133.955 34.3056 133.715 35.3329 133.213 36.1387C132.732 37.0049 132.09 37.6293 131.328 38.0322ZM125.872 45.4653H131.328C132.832 45.4653 133.795 45.7674 134.437 46.4121C135.079 47.0567 135.4 47.9228 135.4 48.93C135.4 50.4005 134.818 51.6092 133.655 52.5157C132.491 53.4221 130.926 53.8854 128.981 53.8854C127.296 53.8854 125.892 53.5027 124.849 52.7775C123.826 52.0523 123.304 50.9444 123.304 49.5344C123.304 48.648 123.545 47.8221 124.026 47.0969C124.528 46.3718 125.109 45.848 125.872 45.4653Z" fill="white"/>
<path d="M217.1 45.1828C216.699 44.9612 216.398 44.6389 216.157 44.2763C215.937 43.8734 215.816 43.4706 215.816 43.0072C215.816 42.5439 215.937 42.1209 216.157 41.7382C216.378 41.3353 216.699 41.0533 217.1 40.8317C217.501 40.6101 217.943 40.4893 218.444 40.4893C218.946 40.4893 219.387 40.6101 219.788 40.8317C220.189 41.0533 220.49 41.3756 220.731 41.7382C220.952 42.1411 221.072 42.5439 221.072 43.0072C221.072 43.4706 220.952 43.8936 220.731 44.2763C220.51 44.6792 220.189 44.9612 219.788 45.1828C219.387 45.4044 218.946 45.5252 218.444 45.5252C217.963 45.5252 217.501 45.4245 217.1 45.1828ZM219.567 44.9008C219.908 44.7195 220.149 44.4375 220.35 44.1353C220.53 43.7929 220.631 43.4303 220.631 43.0072C220.631 42.5842 220.53 42.2216 220.35 41.8792C220.169 41.5367 219.908 41.2749 219.567 41.1137C219.226 40.9324 218.865 40.8317 218.444 40.8317C218.023 40.8317 217.662 40.9324 217.321 41.1137C216.98 41.295 216.739 41.577 216.539 41.8792C216.358 42.2216 216.258 42.5842 216.258 43.0072C216.258 43.4303 216.358 43.7929 216.539 44.1353C216.719 44.4777 216.98 44.7396 217.321 44.9008C217.662 45.0821 218.023 45.1828 218.444 45.1828C218.865 45.1828 219.247 45.0821 219.567 44.9008ZM217.361 44.2159V44.0346L217.401 44.0144H217.521C217.562 44.0144 217.602 43.9943 217.622 43.9742C217.662 43.9339 217.662 43.9137 217.662 43.8734V42.0202C217.662 41.9799 217.642 41.9396 217.622 41.9195C217.582 41.8792 217.562 41.8792 217.521 41.8792H217.401L217.361 41.859V41.6979L217.401 41.6777H218.444C218.745 41.6777 218.966 41.7382 219.146 41.8792C219.327 42.0202 219.407 42.2015 219.407 42.4432C219.407 42.6245 219.347 42.8058 219.206 42.9267C219.066 43.0677 218.906 43.1483 218.705 43.1684L218.946 43.249L219.407 43.9742C219.447 44.0346 219.487 44.0547 219.547 44.0547H219.668L219.688 44.0749V44.2562L219.668 44.2763H219.046L219.006 44.2562L218.364 43.1885H218.203V43.8936C218.203 43.9339 218.224 43.9741 218.244 43.9943C218.284 44.0346 218.304 44.0346 218.344 44.0346H218.464L218.504 44.0547V44.236L218.464 44.2562H217.401L217.361 44.2159ZM218.384 42.9065C218.544 42.9065 218.685 42.8662 218.765 42.7655C218.845 42.6849 218.906 42.5439 218.906 42.3828C218.906 42.2216 218.865 42.1008 218.785 42C218.705 41.8993 218.585 41.859 218.444 41.859H218.364C218.324 41.859 218.284 41.8792 218.264 41.8993C218.224 41.9396 218.224 41.9598 218.224 42V42.8864H218.384V42.9065Z" fill="white"/>
</g>
<defs>
<clipPath id="clip0_323_961">
<rect width="221.053" height="56" fill="white"/>
</clipPath>
</defs>
</svg>
