<svg width="14" height="14" viewBox="0 0 14 14" fill="none" xmlns="http://www.w3.org/2000/svg">
<g clip-path="url(#clip0_391_894)">
<path d="M2.94137 8.84703C2.94137 9.65648 2.28013 10.3177 1.47069 10.3177C0.661239 10.3177 0 9.65648 0 8.84703C0 8.03758 0.661239 7.37634 1.47069 7.37634H2.94137V8.84703Z" fill="#E01E5A"/>
<path d="M3.68359 8.84703C3.68359 8.03758 4.34483 7.37634 5.15428 7.37634C5.96373 7.37634 6.62497 8.03758 6.62497 8.84703V12.5294C6.62497 13.3389 5.96373 14.0001 5.15428 14.0001C4.34483 14.0001 3.68359 13.3389 3.68359 12.5294V8.84703Z" fill="#E01E5A"/>
<path d="M5.15428 2.94137C4.34483 2.94137 3.68359 2.28013 3.68359 1.47069C3.68359 0.661239 4.34483 0 5.15428 0C5.96373 0 6.62497 0.661239 6.62497 1.47069V2.94137H5.15428Z" fill="#36C5F0"/>
<path d="M5.1531 3.68237C5.96255 3.68237 6.62379 4.34361 6.62379 5.15306C6.62379 5.96251 5.96255 6.62375 5.1531 6.62375H1.47069C0.661239 6.62375 0 5.96251 0 5.15306C0 4.34361 0.661239 3.68237 1.47069 3.68237H5.1531Z" fill="#36C5F0"/>
<path d="M11.0605 5.15306C11.0605 4.34361 11.7218 3.68237 12.5312 3.68237C13.3407 3.68237 14.0019 4.34361 14.0019 5.15306C14.0019 5.96251 13.3407 6.62375 12.5312 6.62375H11.0605V5.15306Z" fill="#2EB67D"/>
<path d="M10.3183 5.1531C10.3183 5.96255 9.65709 6.62379 8.84764 6.62379C8.03819 6.62379 7.37695 5.96255 7.37695 5.1531V1.47069C7.37695 0.661239 8.03819 0 8.84764 0C9.65709 0 10.3183 0.661239 10.3183 1.47069V5.1531Z" fill="#2EB67D"/>
<path d="M8.84764 11.0587C9.65709 11.0587 10.3183 11.72 10.3183 12.5294C10.3183 13.3388 9.65709 14.0001 8.84764 14.0001C8.03819 14.0001 7.37695 13.3388 7.37695 12.5294V11.0587H8.84764Z" fill="#ECB22E"/>
<path d="M8.84764 10.3177C8.03819 10.3177 7.37695 9.65648 7.37695 8.84703C7.37695 8.03758 8.03819 7.37634 8.84764 7.37634H12.5301C13.3395 7.37634 14.0007 8.03758 14.0007 8.84703C14.0007 9.65648 13.3395 10.3177 12.5301 10.3177H8.84764Z" fill="#ECB22E"/>
</g>
<defs>
<clipPath id="clip0_391_894">
<rect width="14" height="14" fill="white"/>
</clipPath>
</defs>
</svg>
