<svg width="156" height="62" viewBox="0 0 156 62" fill="none" xmlns="http://www.w3.org/2000/svg">
<g clip-path="url(#clip0_323_972)">
<path d="M116.78 46.7633C116.121 45.9451 115.763 44.9234 115.763 43.8694V36.2582C115.763 30.8565 113.243 27.7637 108.785 27.7637C102.85 27.7637 101.701 31.0299 100.121 33.8082C100.044 33.9428 99.8753 33.9901 99.7401 33.9172L99.4099 33.7386C99.2689 33.6624 99.2175 33.4831 99.2975 33.3426L99.7479 32.5467C100.033 32.0529 100.185 31.4922 100.185 30.9202V29.7717C100.185 29.0304 99.5906 28.4302 98.8574 28.4302H92.3945C91.4208 28.4302 90.8969 29.5846 91.5313 30.3299L92.4731 31.4363C93.4221 32.552 93.9447 33.9743 93.9447 35.4452V43.3461C93.9447 44.2227 93.7595 45.0888 93.4007 45.8873L92.6519 47.5539C92.31 48.3156 92.8612 49.1791 93.6886 49.1791H101.762C102.724 49.1791 103.252 48.0497 102.642 47.2991L101.989 46.4947C101.322 45.6739 100.958 44.6449 100.958 43.5838V39.2243C100.958 37.7021 101.318 36.1925 102.074 34.8752C102.99 33.2769 104.187 32.4601 105.686 32.4601C107.702 32.4601 108.786 33.9113 108.786 36.532V43.6133C108.786 44.469 108.609 45.3147 108.267 46.0975L107.627 47.5644C107.294 48.3248 107.846 49.1791 108.668 49.1791H116.332C117.291 49.1791 117.82 48.055 117.215 47.3037L116.781 46.7646L116.78 46.7633Z" fill="white"/>
<path d="M131.173 46.1415C130.915 46.1934 130.663 46.2295 130.44 46.2348C128.357 46.2348 127.355 44.9103 127.355 42.1858V31.3596H131.148C131.587 31.3596 131.943 31.0004 131.943 30.5565V29.2451C131.943 28.8019 131.587 28.442 131.148 28.442H126.295C126.158 28.442 126.048 28.3304 126.048 28.1932V27.8261C126.048 27.6895 126.157 27.5779 126.293 27.5772H126.785C127.1 27.5779 127.355 27.3205 127.355 27.0027V24.1383C127.355 23.592 126.917 23.1494 126.376 23.1494H123.585C123.077 23.1494 122.627 23.4823 122.476 23.9729C122.154 25.0471 121.379 28.442 118.856 28.442H118.106C117.669 28.442 117.313 28.8012 117.313 29.2451V30.5565C117.313 31.0004 117.669 31.3596 118.106 31.3596H120.419V42.4597C120.419 46.9755 122.694 49.4675 126.816 49.4675C128.873 49.4675 130.739 48.7084 131.869 47.3399C132.308 46.8054 131.851 46.0076 131.173 46.1415Z" fill="white"/>
<path d="M90.6474 45.3262C89.4182 45.5501 88.5875 44.5776 88.5875 43.0515V35.7056C88.5875 30.4668 85.3005 27.6523 78.9162 27.6523C73.1988 27.6523 69.2936 29.8731 69.2832 33.2267C69.2806 33.8288 69.5042 34.4185 69.8337 34.9872C70.3635 35.8086 71.3209 36.3596 72.4175 36.3596C74.0867 36.3596 75.44 35.0876 75.44 33.5189C75.4348 31.9101 74.0899 31.0945 73.6824 30.9415C73.9723 30.692 75.2242 29.7175 77.0728 29.7175C80.0114 29.7175 81.5851 31.9672 81.5851 35.4711V36.8639C79.3796 36.8639 76.9051 37.0878 75.165 37.5159C70.9069 38.4556 68.6631 40.9036 68.6631 43.9531C68.6631 47.392 71.3723 49.5406 75.6662 49.5406C78.6464 49.5406 81.1229 48.4873 82.2832 46.7262C83.0164 48.2135 84.642 49.1506 86.7331 49.1506C89.4371 49.1506 90.8534 47.7256 91.3006 46.0314C91.4163 45.5495 91.0556 45.2467 90.6487 45.3269L90.6474 45.3262ZM81.5844 43.6787C81.3543 45.3183 80.2324 46.2967 78.6068 46.2967C76.8251 46.2967 75.6265 45.0859 75.6265 43.1697C75.6265 41.685 76.2837 40.3862 77.7176 39.7611C78.6835 39.3296 80.1915 39.0952 81.5844 39.0565V43.6787Z" fill="white"/>
<path d="M155.327 45.3262C154.098 45.5501 153.267 44.5776 153.267 43.0515V35.7056C153.267 30.4668 149.98 27.6523 143.596 27.6523C137.878 27.6523 133.973 29.8731 133.963 33.2267C133.96 33.8288 134.184 34.4185 134.513 34.9872C135.043 35.8086 136.001 36.3596 137.097 36.3596C138.766 36.3596 140.12 35.0876 140.12 33.5189C140.114 31.9101 138.77 31.0945 138.362 30.9415C138.652 30.692 139.904 29.7175 141.752 29.7175C144.691 29.7175 146.265 31.9672 146.265 35.4711V36.8639C144.059 36.8639 141.585 37.0878 139.845 37.5159C135.587 38.4556 133.343 40.9036 133.343 43.9531C133.343 47.392 136.052 49.5406 140.346 49.5406C143.326 49.5406 145.803 48.4873 146.963 46.7262C147.696 48.2135 149.322 49.1506 151.413 49.1506C154.117 49.1506 155.533 47.7256 155.98 46.0314C156.096 45.5495 155.735 45.2467 155.328 45.3269L155.327 45.3262ZM146.264 43.6787C146.034 45.3183 144.912 46.2967 143.286 46.2967C141.505 46.2967 140.306 45.0859 140.306 43.1697C140.306 41.685 140.963 40.3862 142.397 39.7611C143.363 39.3296 144.871 39.0952 146.264 39.0565V43.6787Z" fill="white"/>
<path d="M69.7613 21.5143H66.252C65.4967 21.5143 65.0443 22.3621 65.4596 22.9997L66.0609 23.9223C66.5744 24.7109 66.6751 25.7031 66.33 26.5804L60.0341 42.5772C59.7442 43.3474 59.451 43.8754 59.3171 44.0054C59.2456 44.0744 59.1267 44.0954 59.0337 44.0258L58.7016 43.7585C58.5963 43.6784 58.6021 43.5622 58.699 43.4532C58.8836 43.2056 58.998 42.9068 59.063 42.635C59.1403 42.3086 59.1143 41.9658 58.996 41.652L53.6647 27.4144C53.3124 26.4747 53.3267 25.4352 53.7031 24.5054L54.2725 23.0995C54.5793 22.343 54.0281 21.5137 53.2188 21.5137H44.6278C43.4701 21.5137 42.8669 22.9051 43.6508 23.7647L44.1975 24.3642C45.2017 25.4648 45.9954 26.7439 46.5394 28.1367L54.1945 48.3465C54.3947 48.8594 54.8848 49.1963 55.4301 49.1963H59.6688C60.2135 49.1963 60.7029 48.8607 60.9031 48.3492L70.8189 23.089C71.1153 22.3338 70.5647 21.515 69.7607 21.515L69.7613 21.5143Z" fill="white"/>
<path d="M34.7466 29.6552C34.5158 29.6552 34.2675 29.9802 34.2045 30.4878C34.0673 31.2023 34.1141 32.5235 33.483 32.5235C33.0468 32.5235 33.0072 31.6383 32.274 30.8221C31.5135 30.0301 30.4228 29.9494 29.7234 29.3801C29.3347 29.1075 29.1033 28.772 29.128 28.1968C29.128 28.1968 29.2105 27.2794 30.4364 27.4469C31.0188 27.5079 31.9639 27.6517 32.5483 27.7194C33.5928 27.8382 33.8476 27.0542 33.8782 26.7869C33.9445 26.1618 33.288 25.6444 32.8726 25.2806C32.3474 24.8189 31.7748 24.4039 31.182 24.0323C31.0741 23.9653 30.9649 23.8944 30.855 23.8241C29.3672 22.866 26.7217 21.2618 25.2384 23.0933C24.7067 23.8123 24.4759 24.641 24.3095 25.3278C24.0021 26.584 23.3553 27.0686 22.8958 27.835C22.1665 29.0511 21.6647 30.4327 21.627 31.8537C21.6205 33.9057 22.8769 35.9157 24.8815 37.1719C26.5455 38.0538 27.399 38.0538 28.0652 37.8732C28.1868 37.8319 28.4546 37.6434 28.2706 37.3321C28.2381 37.2658 28.1445 37.1207 28.0886 37.0268C27.8988 36.6735 28.1582 36.3511 28.5443 36.6525C28.7978 36.8528 29.0565 37.0537 29.3548 37.1759C29.6064 37.279 29.8917 37.319 30.1511 37.2501C30.4546 37.1496 30.6087 36.9487 30.6256 36.6919C30.6431 36.3853 30.506 36.1482 30.2778 36.0221C29.9314 35.852 29.165 35.4259 28.8413 35.1855C28.476 34.9275 28.086 34.5414 27.9502 34.3962C27.5082 33.9221 27.3821 33.4592 27.1071 33.4592C27.061 33.4618 27.0161 33.4874 26.9849 33.5229C26.8127 33.7087 26.8114 34.016 26.8029 34.1907C26.7971 34.3194 26.8172 34.5164 26.6385 34.5164C26.1952 34.5164 26.1965 33.582 26.1971 33.3285C26.1971 32.9818 26.3232 32.0802 26.8543 32.0802C27.0181 32.0802 27.2417 32.3022 27.3288 32.3889C28.4994 33.7008 29.8599 34.7213 31.5824 34.7213C32.9019 34.7213 34.0043 33.9681 34.6972 33.2635C35.2399 32.7132 35.5974 32.0244 35.6208 31.3126C35.6358 30.8615 35.4213 29.6565 34.7446 29.6565L34.7466 29.6552ZM27.1871 30.8759C27.0265 30.9652 26.8354 30.8543 26.6612 30.7965C26.3102 30.6802 25.9124 30.7978 25.6232 31.0296C25.4243 31.1891 25.2728 31.398 25.1493 31.6238C25.0154 31.8701 24.9894 32.1951 24.7015 32.1951C24.4642 32.1951 24.3446 31.8629 24.3193 31.7263C24.1802 30.983 24.5351 30.1556 25.1955 29.799C25.8559 29.4424 26.7724 29.6309 27.1994 30.2521C27.2657 30.3486 27.3216 30.457 27.3301 30.5745C27.3379 30.6921 27.2891 30.8188 27.1871 30.8753V30.8759Z" fill="white"/>
<path d="M18.4933 22.3676C17.8622 22.3768 17.2505 22.6506 16.8046 23.1129C16.5537 23.3729 15.9947 24.2141 16.0493 25.5097C16.0402 25.7008 15.7919 25.7684 15.6925 25.6062C15.2901 24.878 15.2661 24.1176 15.4227 23.5574C15.7692 22.4241 16.7487 21.4824 18.0734 21.4824C19.8109 21.4824 20.2457 22.6303 20.3328 22.9855C20.3744 23.1326 20.1944 23.2416 20.0832 23.1372C19.7953 22.8666 19.3513 22.3676 18.4933 22.3676Z" fill="white"/>
<path d="M18.6361 24.9336C18.2214 24.971 17.8938 24.7005 17.8567 24.2815C17.8203 23.8705 18.0946 23.531 18.5093 23.4935C18.924 23.4561 19.2607 23.7411 19.2965 24.1522C19.3335 24.5711 19.0501 24.8961 18.6354 24.9329L18.6361 24.9336Z" fill="white"/>
<path d="M5.03715 17.1004C4.4255 17.1004 2.41895 13.8125 2.41895 9.16996C2.41895 7.08639 2.9487 4.8623 3.91135 4.8623C4.50415 4.8623 4.63805 6.13687 4.66535 6.5151C4.9767 10.503 4.4684 13.211 5.21135 16.8233C5.26075 17.0347 5.134 17.101 5.03715 17.101V17.1004Z" fill="white"/>
<path d="M21.1908 55.1998C19.8622 54.9818 18.6194 54.3133 17.7127 53.3001C15.296 54.1084 12.7824 52.0544 13.5468 49.3424C13.669 48.9878 14.1929 49.1179 14.1409 49.4876C14.0655 49.9649 14.1526 50.4535 14.3554 50.8738C14.8956 52.1201 16.5056 52.455 17.4917 51.5869C17.857 51.2618 18.3848 51.3859 18.6324 51.7885C20.793 54.7493 25.2767 54.1938 26.7802 50.8698C27.0012 50.4056 27.1442 49.9137 27.228 49.4042C27.2865 49.0423 27.8241 49.0765 27.839 49.4422C27.9606 53.0197 24.6436 55.758 21.1908 55.1985V55.1998Z" fill="white"/>
<path d="M41.613 53.5041C41.4401 53.3019 41.1671 53.225 40.9169 53.3084C40.0439 53.6 39.2022 53.5284 38.547 53.1075C37.986 52.747 37.6058 52.1481 37.5291 51.5046C37.518 51.3858 37.3666 49.8203 36.9584 48.1524C36.4436 46.0485 35.75 44.7404 34.8946 44.2545C35.0623 43.475 35.1501 41.7704 33.9138 40.1655C34.2368 38.9986 34.0171 38.1391 33.6856 37.3944C33.9924 36.9656 34.2342 36.462 34.3766 35.9596C34.4396 35.6963 34.4689 35.5663 34.4728 35.3476C34.4747 35.2432 34.3779 35.1973 34.2693 35.2728C34.1419 35.3614 33.9671 35.4382 33.8488 35.4855C33.7727 35.5157 33.7526 35.5236 33.7227 35.5532C33.6928 35.5827 33.67 35.6622 33.6603 35.6989C33.6583 35.7068 33.6551 35.7213 33.6531 35.7272C33.5173 36.2177 33.267 36.7108 32.9492 37.1048L32.7958 37.2946L32.9017 37.5152C33.2261 38.1883 33.5114 38.9454 33.1299 40.1314L33.0649 40.3336L33.2001 40.4965C34.7412 42.3502 34.101 44.2893 34.0938 44.3057L33.8975 44.7135L34.3285 44.8409C35.6928 45.2454 36.5515 49.1899 36.7725 51.5814L36.7738 51.5906C36.8758 52.462 37.3854 53.271 38.1381 53.755C38.9253 54.2612 39.9003 54.3847 40.9078 54.1115C40.1557 55.4925 38.5158 57.3731 34.944 58.9051C31.3424 60.4502 26.715 61.2336 21.1907 61.2336C18.7655 61.2336 15.9146 61.1423 13.1599 60.464C9.9892 59.6832 7.6739 58.3069 6.08205 56.2568C5.7811 55.8694 5.55815 55.4636 5.41905 55.0505C5.03815 53.9191 5.05115 52.657 5.4652 50.6956C6.2426 47.3486 6.78275 44.6912 7.07395 41.7914L7.12595 41.2746C7.14415 41.0907 6.92445 40.9843 6.79445 41.1144L6.42915 41.4795C6.03915 41.8695 5.4639 42.0114 4.88995 41.8577C4.6293 41.7881 4.40635 41.6633 4.25685 41.5103C5.28905 41.0172 5.7928 40.0591 5.7928 38.5961V38.5449C5.7928 37.8232 5.79215 36.7332 6.42005 35.3667L6.49155 35.211L6.4246 35.0534C6.1529 34.4145 6.0151 33.3094 6.0567 32.6783C6.123 31.6835 6.40965 30.82 6.58255 30.5501L6.75285 30.2815L6.52405 30.0622C6.4662 30.0071 5.10835 28.676 5.57635 26.2891C6.12105 23.3722 5.6381 21.6899 2.99195 17.2942C2.92565 17.1721 2.8496 17.0381 2.7664 16.8917C2.01565 15.5646 0.7592 13.3438 0.75855 10.1459C0.82225 6.54413 1.48915 4.62342 2.4713 2.85111C2.8041 2.32316 3.79145 0.768856 5.25655 0.768856C5.26695 0.768856 5.27735 0.768856 5.28775 0.768856C5.3105 0.768856 5.3313 0.768856 5.3495 0.768856C5.91305 0.768856 6.43825 1.50234 6.6274 2.55233C6.6508 2.68235 6.6638 2.81696 6.67485 2.94435C6.8887 5.3569 7.3866 9.08604 8.1419 12.3188C9.2989 17.268 10.3025 17.8406 10.9564 17.8406C11.6714 17.8406 12.2187 17.2706 12.4579 16.2758L12.4612 16.2606C12.5886 15.6211 12.5021 15.0813 12.4449 14.7241C12.441 14.6998 12.4371 14.6742 12.4332 14.6486C12.753 14.8574 13.2717 15.4333 13.6786 16.5167L13.7267 16.6454C13.7976 16.8339 14.0329 16.8924 14.1824 16.759L14.2851 16.6678C15.6605 15.4411 16.0856 12.6904 16.497 10.0303L16.5659 9.58641C16.653 9.03154 16.7297 8.29018 16.8181 7.43193C17.032 5.35821 17.2985 2.77756 17.8516 1.65403L17.8555 1.64615C18.072 1.18124 18.3534 0.894934 18.6921 0.796436C18.7909 0.767543 18.9118 0.759663 19.0626 0.772796C21.179 0.954033 22.1429 3.71658 22.5544 4.89659L22.6064 5.04433C22.9996 6.44301 23.4403 8.62244 23.5021 10.5602C23.5671 12.6051 23.1933 13.9348 22.4497 14.3064C22.0922 14.4457 21.7932 14.573 21.5605 14.686C21.3454 14.7897 21.2375 15.0406 21.3187 15.2744C21.3824 15.4602 21.5599 15.5836 21.7542 15.5935C22.2723 15.6198 23.1966 15.7957 23.6535 16.6704L23.6568 16.677C23.9558 17.2253 24.4569 17.1425 24.7566 17.0926C24.8658 17.0749 24.9685 17.0578 25.0692 17.0578C26.3315 17.0578 27.2032 18.2818 27.2253 19.0915L27.2331 19.3844L27.5145 19.454C28.5877 19.7179 29.4717 20.699 29.822 22.0136L29.8838 22.2493C29.915 22.3695 29.9553 22.4207 30.0391 22.4746C30.1587 22.5521 30.2634 22.6118 30.4057 22.7018C30.4974 22.7596 30.4928 22.7622 30.5936 22.8167C30.6573 22.8515 30.7411 22.7944 30.7424 22.7169C30.7476 22.6689 30.7034 22.4188 30.6664 22.2303C30.6449 22.1206 30.5923 21.9322 30.552 21.7943C30.552 21.793 30.55 21.7916 30.5494 21.7903C30.537 21.7457 30.5247 21.7017 30.5117 21.6577C30.511 21.6544 30.5097 21.6518 30.5091 21.6492C30.0879 20.2479 29.1324 19.1801 27.9552 18.7835C27.8655 18.2654 27.5808 17.7033 27.1726 17.2581C26.6006 16.6343 25.8538 16.2902 25.0699 16.2902C24.9074 16.2902 24.7624 16.3138 24.6344 16.3349C24.5447 16.3493 24.3952 16.3742 24.3601 16.3585C24.3601 16.3585 24.3458 16.3486 24.323 16.3079C23.9363 15.5712 23.3311 15.1942 22.7643 15.0051H22.7656C25.1589 13.8481 24.1839 7.8384 23.3337 4.82304L23.2713 4.6418C22.8105 3.32324 21.7321 0.233026 19.1269 0.0104202C18.8825 -0.0105927 18.6713 0.00582363 18.4821 0.0616393C17.9251 0.223833 17.4837 0.646718 17.1704 1.31848C16.5575 2.56743 16.2838 5.22163 16.0635 7.35444C15.9757 8.20218 15.9003 8.9337 15.8165 9.46887L15.7476 9.91408C15.4011 12.1546 15.0443 14.4627 14.1512 15.6841C13.5915 14.5094 12.8135 13.7568 12.1563 13.7916L12.1232 13.7936L12.0913 13.8015C11.5492 13.9302 11.6415 14.5048 11.6968 14.8482C11.7507 15.1844 11.8177 15.6033 11.7195 16.1031C11.6617 16.3408 11.4426 17.0742 10.9577 17.0742C10.8635 17.0742 10.0022 16.9357 8.88225 12.1434C8.13605 8.95011 7.644 5.26234 7.4321 2.87672C7.41975 2.73882 7.40415 2.57728 7.37555 2.41575C7.111 0.949436 6.31605 0.0018837 5.35015 0.0018837C5.3352 0.0018837 5.3183 0.0018837 5.29945 0.0018837C4.82495 -0.0053395 3.38455 -0.0263523 1.8252 2.44858L1.81415 2.46696C0.7735 4.34237 0.06695 6.36355 0 10.1387C0.00065 13.5474 1.3715 15.9704 2.10795 17.2719C2.1905 17.4177 2.2659 17.5503 2.3309 17.6711L2.33935 17.6856C5.03945 22.1692 5.3079 23.5902 4.83145 26.1433C4.38945 28.3976 5.36185 29.8698 5.80385 30.4024C5.5796 30.8994 5.3599 31.7301 5.3001 32.6278C5.2546 33.312 5.3794 34.4217 5.6641 35.1966C5.0336 36.6471 5.03425 37.8298 5.03425 38.5462V38.5974C5.03425 40.2784 4.2653 40.7374 3.5958 40.9502L3.24415 41.0618L3.3436 41.4204C3.4957 41.9667 4.0144 42.4191 4.6969 42.601C5.2273 42.7429 5.7629 42.7081 6.23155 42.5144C5.9293 45.0746 5.42425 47.5174 4.7255 50.5249L4.72355 50.5328C4.27765 52.6439 4.27115 54.0248 4.70015 55.2988C4.86655 55.7932 5.1311 56.2752 5.4847 56.7316C7.16235 58.892 9.6837 60.399 12.9799 61.2106C15.8295 61.9119 18.8643 62.0019 21.1907 62.0019C26.8177 62.0019 31.5445 61.1981 35.2411 59.6123C39.2197 57.9057 40.9507 55.7459 41.7021 54.235C41.821 53.9953 41.7853 53.709 41.6111 53.5054L41.613 53.5041Z" fill="white"/>
</g>
<defs>
<clipPath id="clip0_323_972">
<rect width="156" height="62" fill="white"/>
</clipPath>
</defs>
</svg>
