<svg width="140" height="54" viewBox="0 0 140 54" fill="none" xmlns="http://www.w3.org/2000/svg">
<g clip-path="url(#clip0_316_914)">
<path d="M18.7233 54.0001C29.5698 54.0001 35.1779 50.6732 36.8708 47.3372C36.9682 47.1448 36.7815 46.927 36.5756 46.9946C34.6663 47.6196 33.2412 46.4585 33.0814 45.1183C33.0814 45.1183 32.5477 39.4351 30.6384 38.8806C30.7516 38.6501 31.2118 36.8339 29.7891 35.1557C30.1782 33.9686 29.8567 33.187 29.5657 32.596C29.9203 32.1657 30.1927 31.6105 30.3106 31.0698C30.3397 30.9416 30.3392 30.8283 30.4442 30.7076C31.115 30.1559 31.8553 29.7007 32.3056 28.8931C33.117 27.4339 32.5733 25.7673 31.5898 24.5374C31.4901 24.4017 31.4119 24.3364 31.4049 23.9875C31.4072 23.3913 31.2982 22.7778 30.9744 22.2741C30.8093 22.0182 30.5929 21.7969 30.366 21.5919C29.421 20.7196 28.2905 20.0755 27.2049 19.38C27.0556 19.2852 26.8818 19.1593 26.817 18.9871C26.4752 17.7278 25.5914 16.7538 24.4924 16.4887C24.4691 15.6453 23.5707 14.3663 22.2116 14.3663C21.7968 14.3663 21.4538 14.5893 21.2397 14.2051C20.7427 13.2722 19.7523 13.0989 19.2354 13.0752C19.1485 13.0711 19.124 12.9556 19.2028 12.9186C19.3684 12.8401 19.6192 12.7315 19.9914 12.5894C21.8581 11.7049 21.0857 6.66703 20.3216 4.00857C19.964 3.01612 19.0575 0.193595 16.8368 0.00700557C16.6839 -0.00570331 16.5276 -0.00223725 16.38 0.0399331C15.9524 0.161823 15.6357 0.500919 15.4128 0.970569C14.6784 2.43209 14.4947 6.37704 14.2246 8.06385C13.8413 10.4693 13.4943 13.0498 12.2838 14.1075C11.7682 12.7609 11.0221 12.137 10.6143 12.1607C10.2591 12.2433 10.7398 12.9267 10.535 13.9348C10.3927 14.5148 10.0683 15.056 9.51592 15.056C7.89717 15.056 6.43942 7.04194 6.00425 2.22759C5.99258 2.10166 5.98033 1.9763 5.957 1.85153C5.7435 0.688086 5.12517 0.00122881 4.47183 0.00122881C4.1405 0.00122881 2.95108 -0.11835 1.589 2.00172C0.65275 3.65503 0.05775 5.38344 0 8.60225C0.00116667 11.8459 1.463 14.0151 2.05508 15.082C4.47475 19.0212 4.79792 20.3811 4.34 22.7825C3.8745 25.1105 5.29433 26.4195 5.29433 26.4195C5.09367 26.7274 4.82883 27.5523 4.76758 28.4576C4.7285 29.0341 4.8475 30.0681 5.12575 30.7082C4.515 32.0108 4.52958 33.046 4.52958 33.6988C4.52958 35.2112 3.86283 35.827 2.996 36.0962C3.22992 36.9211 4.7845 37.363 5.684 36.4815C5.41858 39.0723 4.928 41.4062 4.24317 44.2945C3.81733 46.2719 3.88908 47.3799 4.21167 48.3181C4.35692 48.7409 4.58442 49.1303 4.86267 49.4815C8.18008 53.6702 14.4048 54.0001 18.7233 54.0001ZM18.718 48.3464C17.5228 48.154 16.4045 47.5642 15.5884 46.6711C13.4138 47.3839 11.1528 45.5724 11.8399 43.1808C11.9496 42.8677 12.4209 42.9826 12.3743 43.309C12.3066 43.7302 12.3848 44.1611 12.5673 44.532C13.0533 45.6313 14.5017 45.9271 15.3895 45.1611C15.7179 44.8745 16.1928 44.9837 16.4156 45.339C18.3598 47.9506 22.3936 47.4608 23.7463 44.5291C23.9447 44.1195 24.0742 43.6857 24.1494 43.2362C24.2025 42.9174 24.6855 42.9474 24.6989 43.2697C24.808 46.425 21.8242 48.8397 18.7174 48.3469L18.718 48.3464Z" fill="#240642"/>
<path d="M30.9145 25.8163C30.7069 25.8163 30.4834 26.1034 30.4263 26.5505C30.3026 27.1808 30.3452 28.346 29.7776 28.346C29.385 28.346 29.3494 27.5649 28.6897 26.8452C28.0054 26.1467 27.0243 26.0757 26.3949 25.5731C26.0449 25.3328 25.8366 25.037 25.8593 24.5292C25.8593 24.5292 25.934 23.7205 27.0365 23.8684C27.5609 23.9227 28.4109 24.0492 28.937 24.1087C29.8768 24.2138 30.106 23.5218 30.134 23.2867C30.1941 22.7356 29.6032 22.2792 29.2293 21.958C28.7568 21.5508 28.2417 21.1851 27.7079 20.857C27.6111 20.7975 27.5125 20.7357 27.4139 20.6733C26.0752 19.8281 23.6952 18.4134 22.3605 20.0286C21.8822 20.6629 21.6745 21.3936 21.5246 21.999C21.2475 23.107 20.6659 23.5345 20.2529 24.2104C19.5967 25.2831 19.1458 26.5014 19.1114 27.755C19.1055 29.5649 20.236 31.3377 22.0397 32.4457C23.5365 33.2233 24.3048 33.2233 24.9044 33.0644C25.0141 33.0274 25.2544 32.8616 25.0894 32.5873C25.0596 32.5289 24.9762 32.4007 24.9254 32.3175C24.7545 32.0061 24.9884 31.7213 25.3349 31.9876C25.563 32.1644 25.7958 32.3412 26.0641 32.4492C26.2899 32.5399 26.5471 32.5757 26.7804 32.5145C26.7804 32.5145 26.7804 32.5145 26.781 32.5145C27.054 32.4261 27.1923 32.2487 27.208 32.0223C27.2238 31.7519 27.1001 31.5428 26.8954 31.4313C26.5839 31.2811 25.8944 30.9056 25.6033 30.6931C25.2749 30.4654 24.9237 30.1252 24.8018 29.997C24.4045 29.5787 24.2908 29.1703 24.0434 29.1703C24.002 29.1726 23.9618 29.1957 23.9338 29.2269C23.7786 29.391 23.7774 29.6613 23.7699 29.8156C23.7646 29.9294 23.7827 30.1027 23.6217 30.1027C23.2227 30.1027 23.2239 29.2789 23.2244 29.0553C23.2244 28.7492 23.3376 27.9549 23.8154 27.9549C23.9629 27.9549 24.1636 28.1507 24.2423 28.2275C25.2953 29.3846 26.5191 30.2846 28.0696 30.2846C29.2567 30.2846 30.2483 29.6209 30.8719 28.9987C31.3602 28.5135 31.6816 27.9058 31.7032 27.2778C31.7166 26.8798 31.5235 25.8169 30.9145 25.8169V25.8163ZM24.1128 26.8931C23.9688 26.9722 23.7967 26.874 23.6398 26.8232C23.3242 26.7204 22.966 26.8244 22.7059 27.0289C22.5274 27.1698 22.3909 27.3541 22.28 27.5528C22.1593 27.77 22.1365 28.0565 21.8769 28.0565C21.6634 28.0565 21.5561 27.7637 21.5328 27.6429C21.4074 26.9873 21.727 26.2577 22.3214 25.9434C22.9159 25.6291 23.7401 25.7955 24.1245 26.3432C24.184 26.4281 24.2348 26.524 24.2418 26.6274C24.2488 26.7308 24.205 26.8428 24.1134 26.8931H24.1128Z" fill="white"/>
<path d="M16.2911 19.3888C15.7236 19.3969 15.1729 19.6384 14.7716 20.0462C14.5458 20.2756 14.043 21.0173 14.092 22.1605C14.0838 22.3286 13.8604 22.3887 13.7706 22.2454C13.4083 21.6031 13.3873 20.933 13.5279 20.4385C13.84 19.4391 14.7214 18.6084 15.9126 18.6084C17.4753 18.6084 17.8673 19.6205 17.9455 19.9342C17.9828 20.0641 17.8206 20.16 17.7209 20.0676C17.4619 19.829 17.0623 19.3888 16.29 19.3888H16.2911Z" fill="white"/>
<path d="M16.4189 21.6525C16.0456 21.6854 15.751 21.4469 15.7177 21.0777C15.6851 20.7149 15.9318 20.4157 16.3052 20.3828C16.6785 20.3499 16.9812 20.6011 17.0139 20.9639C17.0472 21.3336 16.7922 21.6196 16.4195 21.6525H16.4189Z" fill="white"/>
<path d="M4.18421 14.7445C3.63354 14.7445 1.82812 11.8445 1.82812 7.74997C1.82812 5.91238 2.30471 3.95117 3.17096 3.95117C3.70413 3.95117 3.82487 5.07533 3.84937 5.40865C4.12996 8.92554 3.67204 11.3142 4.34054 14.5001C4.38488 14.6867 4.27113 14.745 4.18421 14.745V14.7445Z" fill="white"/>
<path d="M104.717 40.9186C104.125 40.1971 103.801 39.2959 103.801 38.3664V31.6544C103.801 26.8909 101.534 24.1631 97.5241 24.1631C92.1848 24.1631 91.1512 27.0434 89.7296 29.4939C89.6608 29.6123 89.5085 29.6545 89.3866 29.5898L89.0897 29.4321C88.9625 29.3645 88.9164 29.2068 88.9882 29.0826L89.3936 28.3807C89.6497 27.9451 89.7868 27.4506 89.7868 26.9463V25.9337C89.7868 25.2803 89.2518 24.7506 88.5921 24.7506H82.778C81.9024 24.7506 81.4305 25.7684 82.0016 26.4258L82.8486 27.4015C83.7026 28.3853 84.1722 29.6395 84.1722 30.9369V37.9043C84.1722 38.6772 84.0053 39.4415 83.6828 40.1451L83.0096 41.6147C82.7022 42.2859 83.1974 43.0479 83.9423 43.0479H91.206C92.0711 43.0479 92.5465 42.052 91.9976 41.39L91.4096 40.6812C90.8099 39.9573 90.4815 39.0504 90.4815 38.114V34.2695C90.4815 32.9276 90.8058 31.5955 91.4854 30.4343C92.3103 29.0248 93.3871 28.3044 94.7352 28.3044C96.5493 28.3044 97.5241 29.584 97.5241 31.8953V38.14C97.5241 38.8944 97.3654 39.6402 97.0574 40.3305L96.4805 41.6239C96.1818 42.2946 96.6771 43.0479 97.4173 43.0479H104.312C105.175 43.0479 105.651 42.0566 105.106 41.394L104.716 40.9186H104.717Z" fill="#240642"/>
<path d="M117.665 40.3706C117.432 40.4162 117.205 40.448 117.005 40.4526C115.131 40.4526 114.229 39.2845 114.229 36.882V27.3347H117.641C118.036 27.3347 118.356 27.0176 118.356 26.6265V25.47C118.356 25.0789 118.036 24.7618 117.641 24.7618H113.275C113.153 24.7618 113.053 24.6636 113.053 24.5423V24.2182C113.053 24.0974 113.151 23.9992 113.273 23.9987H113.717C114 23.9992 114.229 23.7722 114.229 23.492V20.9664C114.229 20.4847 113.835 20.0947 113.349 20.0947H110.838C110.381 20.0947 109.976 20.3882 109.84 20.8209C109.55 21.7683 108.852 24.7623 106.583 24.7623H105.908C105.515 24.7623 105.195 25.0789 105.195 25.4706V26.6271C105.195 27.0188 105.515 27.3353 105.908 27.3353H107.989V37.124C107.989 41.1065 110.035 43.304 113.744 43.304C115.595 43.304 117.273 42.6345 118.29 41.4277C118.685 40.9563 118.274 40.2527 117.665 40.3712V40.3706Z" fill="#240642"/>
<path d="M81.2072 39.6507C80.1018 39.8483 79.354 38.9904 79.354 37.6445V31.1664C79.354 26.5461 76.397 24.0645 70.6535 24.0645C65.5097 24.0645 61.9969 26.0228 61.9875 28.9805C61.9852 29.5114 62.1865 30.0318 62.4828 30.5327C62.9594 31.2571 63.8204 31.7429 64.8068 31.7429C66.3083 31.7429 67.5257 30.6211 67.5257 29.2375C67.521 27.8188 66.3112 27.0996 65.9443 26.9644C66.205 26.7443 67.3315 25.8847 68.9945 25.8847C71.6382 25.8847 73.054 27.869 73.054 30.9584V32.1866C71.0695 32.1866 68.844 32.3836 67.2784 32.7619C63.4476 33.5909 61.4287 35.7497 61.4287 38.4388C61.4287 41.4716 63.8659 43.3663 67.7287 43.3663C70.4097 43.3663 72.6375 42.4374 73.6816 40.8846C74.3414 42.196 75.8038 43.0226 77.6845 43.0226C80.117 43.0226 81.391 41.7656 81.7935 40.2717C81.8973 39.8466 81.573 39.5797 81.2072 39.6502V39.6507ZM73.054 38.1979C72.8469 39.6438 71.8377 40.5068 70.3753 40.5068C68.7729 40.5068 67.6943 39.4387 67.6943 37.7496C67.6943 36.44 68.2852 35.2951 69.575 34.7439C70.4441 34.3638 71.8004 34.1565 73.054 34.1224V38.1985V38.1979Z" fill="#240642"/>
<path d="M139.394 39.6507C138.288 39.8483 137.54 38.9904 137.54 37.6445V31.1664C137.54 26.5461 134.584 24.0645 128.84 24.0645C123.696 24.0645 120.183 26.0228 120.174 28.9805C120.172 29.5114 120.373 30.0318 120.669 30.5327C121.146 31.2571 122.007 31.7429 122.993 31.7429C124.495 31.7429 125.712 30.6211 125.712 29.2375C125.708 27.8188 124.498 27.0996 124.131 26.9644C124.392 26.7443 125.518 25.8847 127.181 25.8847C129.825 25.8847 131.24 27.869 131.24 30.9584V32.1866C129.256 32.1866 127.031 32.3836 125.465 32.7619C121.634 33.5909 119.615 35.7497 119.615 38.4388C119.615 41.4716 122.052 43.3663 125.915 43.3663C128.596 43.3663 130.824 42.4374 131.868 40.8846C132.528 42.196 133.99 43.0226 135.871 43.0226C138.303 43.0226 139.577 41.7656 139.98 40.2717C140.084 39.8466 139.759 39.5797 139.394 39.6502V39.6507ZM131.24 38.1979C131.033 39.6438 130.024 40.5068 128.562 40.5068C126.959 40.5068 125.881 39.4387 125.881 37.7496C125.881 36.44 126.472 35.2951 127.761 34.7439C128.631 34.3638 129.987 34.1565 131.24 34.1224V38.1985V38.1979Z" fill="#240642"/>
<path d="M62.4176 18.6523H59.2606C58.581 18.6523 58.1744 19.4004 58.5478 19.9619L59.0885 20.7759C59.5505 21.4714 59.6409 22.346 59.3306 23.1195L53.667 37.2269C53.4063 37.9063 53.142 38.3719 53.0224 38.4863C52.9583 38.5475 52.8509 38.566 52.7675 38.5042L52.4688 38.2691C52.3738 38.1986 52.3796 38.0963 52.4665 37.9999C52.6328 37.7815 52.736 37.5181 52.7938 37.2784C52.8632 36.9907 52.8398 36.6885 52.7337 36.4118L47.9375 23.856C47.6208 23.0277 47.633 22.1109 47.9719 21.2906L48.4841 20.0509C48.76 19.3837 48.2642 18.6523 47.5362 18.6523H39.8076C38.7663 18.6523 38.2233 19.8793 38.9291 20.6372L39.4208 21.1658C40.3244 22.1369 41.0384 23.2645 41.5273 24.4926L48.4135 42.3151C48.5938 42.7674 49.0342 43.0644 49.5253 43.0644H53.3386C53.8286 43.0644 54.269 42.768 54.4493 42.3174L63.3696 20.0411C63.6362 19.375 63.1409 18.6529 62.4176 18.6529V18.6523Z" fill="#240642"/>
</g>
<defs>
<clipPath id="clip0_316_914">
<rect width="140" height="54" fill="white"/>
</clipPath>
</defs>
</svg>
