<svg width="192" height="32" viewBox="0 0 192 32" fill="none" xmlns="http://www.w3.org/2000/svg">
<g clip-path="url(#clip0_316_894)">
<path fill-rule="evenodd" clip-rule="evenodd" d="M51.3291 0L34.9306 32H19.5596L26.3956 18.7259H26.0794C20.4684 26.0741 12.0123 30.8938 0 32V18.9235C0 18.9235 7.70529 18.4889 12.2099 13.7086H0V0H13.7115V11.2988H14.0276L19.6386 0H30.0309V11.2198H30.347L36.1161 0H51.3291Z" fill="white"/>
<path d="M140.592 28.4841H145.017V3.12109H140.592V28.4841Z" fill="white"/>
<path fill-rule="evenodd" clip-rule="evenodd" d="M116.251 28.2075C117.199 28.6026 118.187 28.8001 119.175 28.8001C120.835 28.8001 122.297 28.405 123.561 27.6149C124.865 26.8248 125.853 25.7186 126.564 24.2964C127.276 22.8742 127.631 21.2939 127.631 19.4766C127.631 17.6594 127.276 16.0791 126.525 14.6569C125.774 13.2347 124.786 12.168 123.482 11.3779C122.178 10.5878 120.677 10.1927 119.017 10.2322C117.95 10.2322 116.962 10.4297 115.975 10.8643C114.987 11.2594 114.196 11.852 113.564 12.6026C113.525 12.6421 113.485 12.7211 113.406 12.7606V3.12109H108.98V28.4446H113.367V26.0742C113.485 26.2322 113.604 26.3507 113.722 26.4692C114.433 27.2199 115.263 27.8125 116.251 28.2075ZM120.756 24.0989C120.044 24.5334 119.215 24.7705 118.266 24.7705C117.358 24.7705 116.488 24.5334 115.737 24.0989C114.987 23.6248 114.354 22.9927 113.92 22.2026C113.485 21.4125 113.248 20.5038 113.248 19.4766C113.248 18.4495 113.446 17.5408 113.88 16.7507C114.315 15.9606 114.947 15.3285 115.698 14.8544C116.449 14.4199 117.318 14.1828 118.227 14.1828C119.136 14.1828 119.965 14.3804 120.716 14.8149C121.467 15.2495 122.02 15.8816 122.415 16.6717C122.81 17.4618 123.008 18.3705 123.008 19.4371C123.008 20.4643 122.81 21.3729 122.415 22.2026C122.06 23.0322 121.507 23.6643 120.756 24.0989Z" fill="white"/>
<path d="M57.7305 4.66211H62.7883L67.2929 21.1362L72.1137 4.66211H76.3022L81.5181 20.8201L85.8647 4.66211H90.4878L83.6518 28.4843H79.3053L74.0104 12.6819L69.1501 28.4843H64.764L57.7305 4.66211Z" fill="white"/>
<path fill-rule="evenodd" clip-rule="evenodd" d="M97.9163 28.8794C96.1381 28.8794 94.5576 28.4844 93.1746 27.7337C91.752 26.9436 90.6852 25.8374 89.8554 24.4152C89.0651 22.993 88.6699 21.3733 88.6699 19.5955C88.6699 17.8177 89.0651 16.2374 89.8949 14.8152C90.7247 13.393 91.8311 12.2868 93.2141 11.4967C94.6366 10.7066 96.1776 10.3115 97.9163 10.3115C99.8525 10.3115 101.552 10.7461 103.014 11.6152C104.476 12.4844 105.582 13.7091 106.293 15.2893C107.044 16.8695 107.281 18.6868 107.084 20.7016H93.2141C93.2536 21.5313 93.4512 22.2424 93.8068 22.914C94.2019 23.6646 94.7946 24.2177 95.5059 24.6128C96.2567 25.0078 97.047 25.2449 97.9558 25.2449C98.6275 25.2449 99.2993 25.1263 99.892 24.8893C100.485 24.6523 100.998 24.3362 101.394 23.9412C101.828 23.5461 102.105 23.072 102.302 22.5979H106.926C106.649 23.8226 106.096 24.9288 105.226 25.9165C104.397 26.8646 103.33 27.6152 102.065 28.1683C100.84 28.6424 99.4573 28.9189 97.9163 28.8794ZM93.8463 16.1979C93.5697 16.6325 93.4116 17.1461 93.2931 17.6597H102.5C102.421 16.9881 102.223 16.3955 101.907 15.8819C101.512 15.2498 100.998 14.7362 100.327 14.4202C99.6549 14.0646 98.9041 13.8671 98.0743 13.8671C97.1655 13.8671 96.3752 14.0646 95.6244 14.4992C94.8737 14.8942 94.281 15.4473 93.8463 16.1979Z" fill="white"/>
<path d="M130.91 10.6268C130.91 9.16509 131.227 7.9009 131.898 6.79472C132.57 5.64905 133.479 4.77991 134.664 4.14781C135.85 3.51571 137.272 3.19966 138.853 3.16016V7.11077C138.102 7.11077 137.47 7.2688 136.956 7.58485C136.442 7.86139 136.047 8.29596 135.771 8.84905C135.494 9.36263 135.376 9.95522 135.336 10.6268H138.774V14.3799H135.336V28.4836H130.91V14.3799H128.065V10.6268H130.91Z" fill="white"/>
<path fill-rule="evenodd" clip-rule="evenodd" d="M156.239 28.8393C154.422 28.8393 152.841 28.4442 151.419 27.6541C149.996 26.864 148.89 25.7578 148.099 24.3356C147.309 22.9134 146.914 21.3331 146.914 19.5158C146.914 17.6986 147.309 16.1183 148.099 14.6961C148.89 13.2739 150.036 12.1677 151.419 11.3776C152.841 10.5874 154.461 10.1924 156.239 10.1924C158.057 10.1924 159.677 10.5874 161.1 11.3776C162.522 12.1677 163.668 13.2739 164.458 14.6961C165.249 16.1183 165.644 17.7381 165.683 19.5158C165.683 21.2936 165.249 22.9134 164.458 24.3356C163.668 25.7578 162.562 26.8245 161.139 27.6541C159.677 28.4442 158.057 28.8393 156.239 28.8393ZM156.239 24.8097C157.188 24.8097 158.018 24.6121 158.768 24.1776C159.519 23.743 160.072 23.1109 160.467 22.3208C160.863 21.5307 161.06 20.622 161.06 19.5949C161.06 18.5677 160.863 17.659 160.467 16.8294C160.072 16.0393 159.519 15.4072 158.768 14.9726C158.018 14.5381 157.188 14.301 156.239 14.301C155.291 14.301 154.461 14.5381 153.75 14.9726C153.039 15.4072 152.486 15.9998 152.051 16.8294C151.656 17.6195 151.458 18.5282 151.458 19.5949C151.458 20.622 151.656 21.5307 152.051 22.3208C152.446 23.1109 153.039 23.743 153.75 24.1776C154.461 24.5726 155.291 24.8097 156.239 24.8097Z" fill="white"/>
<path d="M170.426 10.627H165.486L170.821 28.4442H175.128L178.645 17.0665L182.438 28.4442H186.666L192 10.627H187.535L184.532 21.7282L181.174 10.627H176.866L173.547 21.9652L170.426 10.627Z" fill="white"/>
</g>
<defs>
<clipPath id="clip0_316_894">
<rect width="192" height="32" fill="white"/>
</clipPath>
</defs>
</svg>
